<?xml version="1.0" encoding="iso-8859-1"?>
<!-- Generator: Adobe Illustrator 19.0.0, SVG Export Plug-In . SVG Version: 6.00 Build 0)  -->
<svg version="1.1" id="Capa_1" xmlns="http://www.w3.org/2000/svg" xmlns:xlink="http://www.w3.org/1999/xlink" x="0px" y="0px"
	 viewBox="0 0 511 511" style="enable-background:new 0 0 511 511;" xml:space="preserve">
<path d="M267.701,298.364l13.612-13.612c6.63-6.63,9.946-15.789,9.097-25.126l-21.6-237.599C267.669,9.47,257.3,0,244.69,0h-0.011
	c-13.355,0-24.22,10.865-24.22,24.22v456.24c0,16.84,13.7,30.54,30.62,30.54c8.479,0,16.646-3.568,22.408-9.79
	c5.761-6.222,8.693-14.639,8.042-23.093L267.701,298.364z M244.679,15h0.011c4.8,0,8.748,3.605,9.182,8.385l21.6,237.599
	c0.445,4.891-1.292,9.688-4.765,13.161l-16.051,16.051c-1.548,1.548-2.343,3.695-2.175,5.878L253.706,312h-17.747
	c-0.169,0-0.334,0.014-0.5,0.025V24.22C235.459,19.136,239.595,15,244.679,15z M262.48,491.019
	c-2.975,3.212-7.024,4.981-11.481,4.981c-8.569,0-15.54-6.971-15.54-15.54V326.975c0.166,0.011,0.331,0.025,0.5,0.025h18.901
	l11.713,152.268C266.909,483.633,265.455,487.806,262.48,491.019z"/>
<g>
</g>
<g>
</g>
<g>
</g>
<g>
</g>
<g>
</g>
<g>
</g>
<g>
</g>
<g>
</g>
<g>
</g>
<g>
</g>
<g>
</g>
<g>
</g>
<g>
</g>
<g>
</g>
<g>
</g>
</svg>
