<svg height="512" viewBox="0 0 64 64" width="512" xmlns="http://www.w3.org/2000/svg"><path d="m42 32h-2c0 2.979 3.479 5.595 7.919 5.957l.162-1.994c-3.581-.292-6.081-2.323-6.081-3.963z"/><path d="m49 22c-5.7 0-10.654 2.809-12.364 6.92l-29.586-1.691a4.779 4.779 0 1 0 0 9.542l29.586-1.691c1.71 4.111 6.664 6.92 12.364 6.92 7.168 0 13-4.486 13-10s-5.832-10-13-10zm0 18c-5.093 0-9.6-2.631-10.724-6.256a1 1 0 0 0 -.955-.7h-.056l-30.328 1.729a2.73 2.73 0 0 1 -2.067-.753 2.778 2.778 0 0 1 2.067-4.793l30.328 1.732a1 1 0 0 0 1.011-.7c1.124-3.628 5.631-6.259 10.724-6.259 6.065 0 11 3.589 11 8s-4.935 8-11 8z"/><path d="m50 36h2v2h-2z"/></svg>