<?xml version="1.0" encoding="iso-8859-1"?>
<!-- Generator: Adobe Illustrator 19.0.0, SVG Export Plug-In . SVG Version: 6.00 Build 0)  -->
<svg version="1.1" id="Capa_1" xmlns="http://www.w3.org/2000/svg" xmlns:xlink="http://www.w3.org/1999/xlink" x="0px" y="0px"
	 viewBox="0 0 511 511" style="enable-background:new 0 0 511 511;" xml:space="preserve">
<g>
	<path d="M307.252,38.003C293.119,13.497,274.74,0,255.5,0C215.233,0,184,59.938,184,111.5c0,25.575,13.824,49.35,36.077,62.049
		c10.32,5.889,16.646,18.063,16.118,31.013l-11.21,274.653c-0.342,8.387,2.671,16.34,8.484,22.395
		c5.813,6.055,13.638,9.39,22.032,9.39c8.394,0,16.218-3.334,22.031-9.39s8.826-14.009,8.484-22.396l-11.21-274.653
		c-0.528-12.95,5.798-25.124,16.118-31.013C313.176,160.85,327,137.075,327,111.5C327,86.921,319.618,59.446,307.252,38.003z
		 M266.711,491.222c-2.958,3.082-6.94,4.778-11.211,4.778c-4.271,0-8.252-1.697-11.21-4.778s-4.491-7.128-4.317-11.396L247.843,287
		h15.314l7.871,192.826C271.202,484.094,269.668,488.141,266.711,491.222z M283.488,160.521
		c-15.367,8.77-24.438,25.879-23.671,44.653L262.545,272h-14.09l2.728-66.827c0.767-18.773-8.304-35.883-23.671-44.653
		C209.925,150.485,199,131.702,199,111.5c0-22.064,6.633-46.739,17.742-66.003C227.919,26.116,242.046,15,255.5,15
		s27.581,11.116,38.758,30.497C305.367,64.761,312,89.436,312,111.5C312,131.702,301.075,150.485,283.488,160.521z"/>
	<path d="M267.553,48.663c-3.519,2.185-4.6,6.809-2.415,10.328C274.444,73.978,280,93.607,280,111.5
		c0,8.739-4.74,16.873-12.372,21.228c-3.598,2.053-4.85,6.634-2.797,10.231c1.384,2.425,3.916,3.784,6.521,3.784
		c1.26,0,2.538-0.318,3.71-0.987C287.36,138.738,295,125.612,295,111.5c0-29.652-11.972-52.133-17.119-60.422
		C275.696,47.559,271.072,46.478,267.553,48.663z"/>
</g>
<g>
</g>
<g>
</g>
<g>
</g>
<g>
</g>
<g>
</g>
<g>
</g>
<g>
</g>
<g>
</g>
<g>
</g>
<g>
</g>
<g>
</g>
<g>
</g>
<g>
</g>
<g>
</g>
<g>
</g>
</svg>
