<?xml version="1.0" encoding="iso-8859-1"?>
<!-- Generator: Adobe Illustrator 19.0.0, SVG Export Plug-In . SVG Version: 6.00 Build 0)  -->
<svg version="1.1" id="Layer_1" xmlns="http://www.w3.org/2000/svg" xmlns:xlink="http://www.w3.org/1999/xlink" x="0px" y="0px"
	 viewBox="0 0 485 485" style="enable-background:new 0 0 485 485;" xml:space="preserve">
<g>
	<path d="M454.77,180.715c0-37.854-10.099-75.025-29.202-107.493L382.495,0h-279.99L59.432,73.221
		C40.328,105.69,30.23,142.861,30.23,180.715c0,112.002,87.197,204.01,197.27,211.732V455H124.859v30h235.281v-30H257.5v-62.553
		C367.572,384.725,454.77,292.717,454.77,180.715z M85.289,88.433L119.663,30h245.674l34.374,58.434
		c16.394,27.862,25.059,59.772,25.059,92.281c0,33.268-8.966,64.478-24.597,91.354H84.828
		c-15.632-26.875-24.597-58.086-24.597-91.354C60.23,148.207,68.896,116.296,85.289,88.433z M106.628,302.068h271.743
		c-33.402,37.358-81.934,60.916-135.872,60.916S140.03,339.426,106.628,302.068z"/>
</g>
<g>
</g>
<g>
</g>
<g>
</g>
<g>
</g>
<g>
</g>
<g>
</g>
<g>
</g>
<g>
</g>
<g>
</g>
<g>
</g>
<g>
</g>
<g>
</g>
<g>
</g>
<g>
</g>
<g>
</g>
</svg>
