<?xml version="1.0" encoding="utf-8"?>
<!-- Generator: Adobe Illustrator 23.0.0, SVG Export Plug-In . SVG Version: 6.00 Build 0)  -->
<svg version="1.1" id="Layer_1" xmlns="http://www.w3.org/2000/svg" xmlns:xlink="http://www.w3.org/1999/xlink" x="0px" y="0px"
	 viewBox="0 0 820 592" style="enable-background:new 0 0 820 592;" xml:space="preserve">
<style type="text/css">
	.st0{display:none;}
	.st1{display:inline;fill:#242021;}
	.st2{fill:none;stroke:#242021;stroke-width:11;stroke-miterlimit:10;}
	.st3{fill:#242021;}
</style>
<g class="st0">
	<path class="st1" d="M412,34c13.7,5.1,22.3,15.6,29.3,27.7c14.5,24.9,22.3,52.2,27.1,80.4c5.8,34.2,5.8,68.3-4.4,101.9
		c-4.3,13.9-10.1,27.1-18.8,38.8c-5.6,7.6-12.2,14.2-20.7,18.4c-2.2,1.1-2.6,2.5-2.6,4.7c-0.2,22.7-1.2,45.3-2.6,67.9
		c-1.6,24.2,1.3,48.3,4.1,72.2c3,25.3,4.6,50.8,6.6,76.1c4,50.5,7.9,101,11.7,151.4c1,13.1,2.6,26.2,2.4,39.4
		c-0.1,6.7-0.8,13.3-3,19.6c-3.7,10.4-10.5,17.6-21.5,20.3c-0.7,0.2-1.3,0.2-1.5,1c-4.7,0-9.3,0-14,0c-0.5-0.4-0.9-0.9-1.5-1.1
		c-17.6-5.1-25.4-18-26.5-35.3c-1.3-18.6-0.1-37.3,1.5-55.9c4.2-47.8,8.2-95.5,11.6-143.4c2.5-35.7,4.7-71.4,6.5-107.2
		c0.7-13.3-0.5-26.6-0.7-40c-0.4-21.3-1.2-42.6-1.6-63.9c-0.1-2.8-0.9-4.3-3.5-5.7c-12-6.1-20.2-16.1-26.9-27.5
		c-11.3-19.1-17.4-40-19.6-61.8c-5.2-51.1,3.9-99.7,26.8-145.7c4.4-8.8,10.1-16.8,17.3-23.7c4.2-4.1,9.5-6.3,14.6-8.9
		C405.3,34,408.7,34,412,34z"/>
	<path class="st1" d="M712,265c-2.1,4.3-1.4,9-1.9,13.4c-2.3,23.1-5.5,45.9-14,67.7c-0.7,1.9-1.2,3.9-2.4,5.5
		c-5.2,7-5.2,14.9-5,23.2c1.7,63.8,5.1,127.5,9,191.2c2.5,40.7,4.9,81.5,7.5,122.2c0.4,5.8,1.2,11.6,2,17.4c1.6,11.4,3,23-7.5,31.3
		c-11.3,9-24.2,11.3-38.1,7.1c-12.1-3.7-18.1-11.4-18.6-24.2c-0.5-14.2,1.6-28.3,2.3-42.4c1.8-33.6,4-67.2,5.7-100.8
		c3-59.4,5-118.9,5.4-178.4c0-4.3,0.5-8.7,0.9-13c1.1-9.8,1-19.3-2.2-29.1c-5.1-15.9-6.1-32.7-7-49.3c-3.3-64.3-2.8-128.6,0-192.9
		c0.8-17.5,2.3-34.9,6.7-51.9c1.3-5,2.9-9.9,5.8-14.2c5.1-7.5,11.8-8,17.7-1.2c5.7,6.6,8.7,14.5,11.5,22.5
		c8.3,24.2,12.6,49.3,16,74.5c2.4,17.8,4,35.7,5,53.7c0.1,0.9-0.3,2.1,1,2.5C712,221.7,712,243.3,712,265z"/>
	<path class="st1" d="M76,207c1.9-0.9,1.1-2.6,1.1-3.9c2-39.6,4-79.2,5.9-118.8c0.5-9.3,0.6-18.6,1-28c0.2-3.8,0.3-9,5-8.8
		c4.1,0.1,3.8,5.3,3.8,8.6c0,37.2-0.2,74.3-0.3,111.5c-0.1,14.8-0.2,29.7-0.2,44.5c0,0.5,0,1,0,1.5c-0.1,4,1.4,7.2,5.7,7.2
		c4.4,0,5.8-3,5.8-7.1c0.2-18.5,0.6-37,0.7-55.5c0.3-29.8,0.5-59.6,0.8-89.5c0.1-6.8,0.7-13.6,2.6-20.3c0.5-1.8,0.9-3.9,3.1-4
		c2.5-0.1,3.4,2.2,3.6,4.1c0.6,6.1,1,12.3,1.2,18.4c0.4,10.2,0.7,20.3,0.9,30.5c0.5,38.3,1,76.6,1.5,115c0,0.2,0,0.3,0,0.5
		c0.1,5.1,2.1,7.7,5.9,7.5c4.8-0.3,5.7-3.6,5.7-7.7c0.3-19.3,0.7-38.7,1-58c0.4-33,0.7-66,1.1-99c0-3.7-0.6-9.2,4-9.6
		c5.1-0.4,5.1,5.2,5.5,9c0.4,3.6,0.1,7.3,0.2,11c1.2,48.6,1.5,97.3,1.7,146c0,1.2,0,2.4,0.2,3.5c0.6,3,2.4,4.7,5.6,4.6
		c3.1,0,5-1.7,5.6-4.7c0.3-1.4,0.1-3,0.1-4.5c0-49.2,0-98.3,0-147.5c0-3.8-0.2-7.7,0.9-11.4c0.5-1.7,0.7-4.1,2.9-4.1
		c2.3,0,3.9,2,4.4,4.2c0.5,2.1,0.5,4.3,0.6,6.5c1.4,30.3,2.8,60.6,4.3,90.9c1.3,27.6,2.8,55.2,3.9,82.9c0.7,18.5-5,34.7-18.1,48.2
		c-3.6,3.7-7.7,7-12.5,9c-2.3,1-3.3,2.1-3.2,4.7c0.3,49-2.2,98,0,146.9c1.7,37.5,5.3,74.8,9.4,112c4.9,44.9,10.7,89.6,14.2,134.6
		c0.9,11,0.4,22-3.5,32.5c-3.9,10.4-10.5,18.5-20.7,23.2c-11.7,5.4-24.3,1.9-33.6-8.8c-8.9-10.3-11.5-22.7-11.6-35.8
		c-0.1-17,2-33.9,3.2-50.9c2.4-34.7,5.1-69.4,7.5-104.2c3.9-57.8,7.6-115.7,9.7-173.7c0.8-21.6,1.3-43.3,0.5-65
		c-0.1-1.5-0.2-3-0.2-4.5c-0.2-6-2.2-9.9-8.4-12.9c-15-7.2-22.3-20.7-26.4-36.3c-0.4-1.6,0-3.7-1.9-4.8C76,233.7,76,220.3,76,207z"
		/>
</g>
<g>
	<path class="st2" d="M475.4,380.6c0-45.5-36.9-82.4-82.4-82.4s-82.4,36.9-82.4,82.4"/>
	<g>
		<path class="st3" d="M350.4,102.2c4,0.8,6.8,3.3,9.3,6.4c5.1,6.3,8.5,13.5,11,21c3.1,9.2,4.6,18.6,3.2,28.4
			c-0.6,4-1.6,7.9-3.5,11.6c-1.2,2.3-2.7,4.5-4.9,6c-0.6,0.4-0.6,0.8-0.5,1.4c0.9,6.3,1.7,12.6,2.2,18.9c0.6,6.8,2.5,13.3,4.3,19.8
			c1.9,6.9,3.5,13.8,5.2,20.8c3.3,13.8,6.6,27.6,9.9,41.4c0.8,3.6,1.9,7.1,2.4,10.8c0.3,1.9,0.4,3.7,0,5.6c-0.6,3-2.1,5.3-5.1,6.6
			c-0.2,0.1-0.3,0.1-0.4,0.3c-1.3,0.2-2.6,0.4-3.9,0.6c-0.2-0.1-0.3-0.2-0.5-0.2c-5.1-0.6-7.8-3.9-8.9-8.6c-1.2-5.1-1.7-10.3-2-15.5
			c-0.9-13.4-1.9-26.8-3.1-40.2c-0.9-10-1.8-20-2.9-29.9c-0.4-3.7-1.3-7.3-1.9-11c-1-5.9-2.2-11.7-3.3-17.6
			c-0.1-0.8-0.4-1.2-1.2-1.4c-3.6-1.2-6.3-3.6-8.6-6.4c-4-4.8-6.6-10.3-8.1-16.3c-3.7-13.9-3.3-27.8,1-41.5c0.8-2.6,2.1-5.1,3.8-7.3
			c1-1.3,2.4-2.2,3.6-3.1C348.6,102.5,349.5,102.3,350.4,102.2z"/>
		<path class="st3" d="M266.5,129c4.1-0.5,7.5,1.1,10.8,3.2c6.8,4.4,12.2,10.2,17,16.6c5.8,7.8,10.1,16.3,11.8,26
			c0.7,4,0.9,8,0.2,12.1c-0.4,2.6-1.2,5.1-2.8,7.2c-0.4,0.6-0.3,1-0.1,1.5c2.8,5.7,5.5,11.5,8,17.3c2.7,6.2,6.5,11.9,10.2,17.5
			c4,5.9,7.6,12.1,11.3,18.2c7.4,12.1,14.8,24.2,22.2,36.3c1.9,3.1,4,6.2,5.6,9.5c0.8,1.7,1.5,3.4,1.7,5.3c0.4,3.1-0.4,5.7-2.8,7.8
			c-0.1,0.1-0.3,0.2-0.2,0.4c-1.2,0.6-2.3,1.2-3.5,1.8c-0.2,0-0.3-0.1-0.5-0.1c-5.1,1-8.6-1.3-11.1-5.4c-2.7-4.5-4.8-9.3-6.7-14.1
			c-5-12.5-10.1-24.9-15.3-37.3c-3.9-9.2-7.9-18.4-12-27.6c-1.5-3.4-3.5-6.6-5.3-9.9c-2.8-5.3-5.7-10.5-8.5-15.7
			c-0.4-0.7-0.8-1-1.6-1c-3.8,0-7.1-1.5-10.2-3.4c-5.2-3.3-9.4-7.8-12.8-12.9c-7.8-12.1-11.7-25.4-11.8-39.8c0-2.8,0.4-5.5,1.3-8.1
			c0.5-1.6,1.6-2.8,2.5-4.1C264.8,129.8,265.6,129.4,266.5,129z"/>
		<path class="st3" d="M194.9,180.4c3.7-1.7,7.5-1.3,11.3-0.3c7.8,2.1,14.8,5.9,21.3,10.5c7.9,5.6,14.7,12.4,19.3,21.1
			c1.9,3.6,3.4,7.4,4,11.4c0.4,2.6,0.4,5.2-0.4,7.8c-0.2,0.7,0,1,0.4,1.5c4.4,4.5,8.7,9.2,12.9,14c4.5,5.1,9.8,9.3,15.1,13.5
			c5.6,4.4,11,9.1,16.4,13.8c10.8,9.2,21.6,18.4,32.3,27.7c2.8,2.4,5.7,4.7,8.3,7.3c1.3,1.3,2.5,2.8,3.3,4.5
			c1.3,2.8,1.4,5.6-0.2,8.3c-0.1,0.2-0.2,0.3-0.1,0.5c-0.9,0.9-1.8,1.8-2.8,2.8c-0.2,0-0.4,0-0.5,0.1c-4.5,2.5-8.6,1.5-12.2-1.7
			c-3.9-3.4-7.4-7.4-10.8-11.4c-8.6-10.3-17.3-20.6-26.1-30.7c-6.6-7.6-13.2-15.1-19.9-22.5c-2.5-2.8-5.4-5.2-8.1-7.8
			c-4.3-4.1-8.7-8.2-13-12.3c-0.6-0.5-1-0.7-1.8-0.4c-3.6,1.2-7.2,0.8-10.8-0.1c-6-1.6-11.4-4.5-16.1-8.4
			c-11.1-9.1-19-20.5-23.6-34.2c-0.9-2.6-1.3-5.3-1.3-8.1c0-1.6,0.6-3.1,1.1-4.7C193.6,181.7,194.3,181.1,194.9,180.4z"/>
		<path class="st3" d="M142.7,251.4c3-2.8,6.7-3.6,10.6-3.8c8.1-0.5,15.9,1.1,23.5,3.5c9.3,2.9,17.8,7.2,24.9,14.1
			c2.9,2.8,5.5,6,7.3,9.6c1.2,2.4,2,4.8,2,7.5c0,0.7,0.3,1,0.8,1.3c5.6,2.9,11.2,6.1,16.6,9.3c5.8,3.5,12.2,5.8,18.5,8.2
			c6.7,2.5,13.2,5.3,19.8,8c13.1,5.4,26.2,10.9,39.3,16.3c3.4,1.4,6.9,2.7,10.1,4.4c1.7,0.9,3.2,1.9,4.5,3.3
			c2.1,2.2,3.1,4.9,2.3,7.9c0,0.2-0.1,0.4,0.1,0.5c-0.6,1.2-1.2,2.3-1.8,3.5c-0.2,0.1-0.4,0.1-0.5,0.2c-3.5,3.7-7.7,4-12.2,2.1
			c-4.8-2.1-9.3-4.7-13.8-7.5c-11.4-7.1-22.8-14.2-34.3-21.1c-8.6-5.2-17.2-10.3-25.9-15.3c-3.2-1.9-6.7-3.3-10.1-4.9
			c-5.4-2.6-10.8-5.1-16.2-7.7c-0.7-0.3-1.2-0.3-1.9,0.2c-3.1,2.2-6.6,3-10.3,3.2c-6.2,0.4-12.2-0.8-17.9-3
			c-13.4-5.2-24.4-13.7-33-25.2c-1.6-2.2-2.9-4.7-3.7-7.3c-0.5-1.6-0.4-3.2-0.4-4.8C141.9,253.1,142.3,252.2,142.7,251.4z"/>
		<path class="st3" d="M115.1,335.1c2-3.6,5.3-5.5,9-6.9c7.5-2.9,15.4-3.9,23.4-4c9.7-0.1,19.1,1.4,28,5.7c3.7,1.8,7.1,4,9.9,6.9
			c1.8,1.9,3.4,4,4.2,6.5c0.2,0.7,0.6,0.8,1.2,0.9c6.3,1.1,12.5,2.3,18.7,3.7c6.6,1.5,13.4,1.8,20.2,2c7.1,0.3,14.2,1,21.4,1.5
			c14.1,1.1,28.3,2.2,42.4,3.4c3.7,0.3,7.4,0.4,11,1.1c1.9,0.3,3.6,0.8,5.3,1.7c2.7,1.5,4.4,3.7,4.7,6.8c0,0.2,0,0.4,0.2,0.5
			c-0.2,1.3-0.4,2.6-0.6,3.9c-0.1,0.1-0.3,0.2-0.4,0.4c-2.2,4.7-6.1,6.2-10.9,5.8c-5.2-0.5-10.3-1.6-15.4-2.9
			c-13-3.2-26.1-6.5-39.2-9.5c-9.8-2.3-19.6-4.4-29.4-6.5c-3.7-0.8-7.4-1-11.1-1.6c-5.9-0.8-11.8-1.5-17.8-2.3
			c-0.8-0.1-1.2,0.1-1.7,0.7c-2.2,3-5.3,4.9-8.8,6.2c-5.8,2.3-11.8,3-18,2.7c-14.4-0.8-27.4-5.4-39.1-13.8c-2.2-1.6-4.2-3.5-5.8-5.8
			c-0.9-1.3-1.3-2.9-1.8-4.4C114.8,336.9,114.9,336,115.1,335.1z"/>
		<path class="st3" d="M671.4,338c-0.8,4-3.3,6.8-6.4,9.3c-6.3,5.1-13.5,8.5-21,11c-9.2,3.1-18.6,4.6-28.4,3.2
			c-4-0.6-7.9-1.6-11.6-3.5c-2.3-1.2-4.5-2.7-6-4.9c-0.4-0.6-0.8-0.6-1.4-0.5c-6.3,0.9-12.6,1.7-18.9,2.2
			c-6.8,0.6-13.3,2.5-19.8,4.3c-6.9,1.9-13.8,3.5-20.8,5.2c-13.8,3.3-27.6,6.6-41.4,9.9c-3.6,0.8-7.1,1.9-10.8,2.4
			c-1.9,0.3-3.7,0.4-5.6,0c-3-0.6-5.3-2.1-6.6-5.1c-0.1-0.2-0.1-0.3-0.3-0.4c-0.2-1.3-0.4-2.6-0.6-3.9c0.1-0.2,0.2-0.3,0.2-0.5
			c0.6-5.1,3.9-7.8,8.6-8.9c5.1-1.2,10.3-1.7,15.5-2c13.4-0.9,26.8-1.9,40.2-3.1c10-0.9,20-1.8,29.9-2.9c3.7-0.4,7.3-1.3,11-1.9
			c5.9-1,11.7-2.2,17.6-3.3c0.8-0.1,1.2-0.4,1.4-1.2c1.2-3.6,3.6-6.3,6.4-8.6c4.8-4,10.3-6.6,16.3-8.1c13.9-3.7,27.8-3.3,41.5,1
			c2.6,0.8,5.1,2.1,7.3,3.8c1.3,1,2.2,2.4,3.1,3.6C671.1,336.1,671.2,337,671.4,338z"/>
		<path class="st3" d="M644.6,254c0.5,4.1-1.1,7.5-3.2,10.8c-4.4,6.8-10.2,12.2-16.6,17c-7.8,5.8-16.3,10.1-26,11.8
			c-4,0.7-8,0.9-12.1,0.2c-2.6-0.4-5.1-1.2-7.2-2.8c-0.6-0.4-1-0.3-1.5-0.1c-5.7,2.8-11.5,5.5-17.3,8c-6.2,2.7-11.9,6.5-17.5,10.2
			c-5.9,4-12.1,7.6-18.2,11.3c-12.1,7.4-24.2,14.8-36.3,22.2c-3.1,1.9-6.2,4-9.5,5.6c-1.7,0.8-3.4,1.5-5.3,1.7
			c-3.1,0.4-5.7-0.4-7.8-2.8c-0.1-0.1-0.2-0.3-0.4-0.2c-0.6-1.2-1.2-2.3-1.8-3.5c0-0.2,0.1-0.3,0.1-0.5c-1-5.1,1.3-8.6,5.4-11.1
			c4.5-2.7,9.3-4.8,14.1-6.7c12.5-5,24.9-10.1,37.3-15.3c9.2-3.9,18.4-7.9,27.6-12c3.4-1.5,6.6-3.5,9.9-5.3
			c5.3-2.8,10.5-5.7,15.7-8.5c0.7-0.4,1-0.8,1-1.6c0-3.8,1.5-7.1,3.4-10.2c3.3-5.2,7.8-9.4,12.9-12.8c12.1-7.8,25.4-11.7,39.8-11.8
			c2.8,0,5.5,0.4,8.1,1.3c1.6,0.5,2.8,1.6,4.1,2.5C643.7,252.4,644.2,253.2,644.6,254z"/>
		<path class="st3" d="M593.2,182.5c1.7,3.7,1.3,7.5,0.3,11.3c-2.1,7.8-5.9,14.8-10.5,21.3c-5.6,7.9-12.4,14.7-21.1,19.3
			c-3.6,1.9-7.4,3.4-11.4,4c-2.6,0.4-5.2,0.4-7.8-0.4c-0.7-0.2-1,0-1.5,0.4c-4.5,4.4-9.2,8.7-14,12.9c-5.1,4.5-9.3,9.8-13.5,15.1
			c-4.4,5.6-9.1,11-13.8,16.4c-9.2,10.8-18.4,21.6-27.7,32.3c-2.4,2.8-4.7,5.7-7.3,8.3c-1.3,1.3-2.8,2.5-4.5,3.3
			c-2.8,1.3-5.6,1.4-8.3-0.2c-0.2-0.1-0.3-0.2-0.5-0.1c-0.9-0.9-1.8-1.8-2.8-2.8c0-0.2,0-0.4-0.1-0.5c-2.5-4.5-1.5-8.6,1.7-12.2
			c3.4-3.9,7.4-7.4,11.4-10.8c10.3-8.6,20.6-17.3,30.7-26.1c7.6-6.6,15.1-13.2,22.5-19.9c2.8-2.5,5.2-5.4,7.8-8.1
			c4.1-4.3,8.2-8.7,12.3-13c0.5-0.6,0.7-1,0.4-1.8c-1.2-3.6-0.8-7.2,0.1-10.8c1.6-6,4.5-11.4,8.4-16.1c9.1-11.1,20.5-19,34.2-23.6
			c2.6-0.9,5.3-1.3,8.1-1.3c1.6,0,3.1,0.6,4.7,1.1C591.8,181.2,592.5,181.8,593.2,182.5z"/>
		<path class="st3" d="M522.2,130.3c2.8,3,3.6,6.7,3.8,10.6c0.5,8.1-1.1,15.9-3.5,23.5c-2.9,9.3-7.2,17.8-14.1,24.9
			c-2.8,2.9-6,5.5-9.6,7.3c-2.4,1.2-4.8,2-7.5,2c-0.7,0-1,0.3-1.3,0.8c-2.9,5.6-6.1,11.2-9.3,16.6c-3.5,5.8-5.8,12.2-8.2,18.5
			c-2.5,6.7-5.3,13.2-8,19.8c-5.4,13.1-10.9,26.2-16.3,39.3c-1.4,3.4-2.7,6.9-4.4,10.1c-0.9,1.7-1.9,3.2-3.3,4.5
			c-2.2,2.1-4.9,3.1-7.9,2.3c-0.2,0-0.4-0.1-0.5,0.1c-1.2-0.6-2.3-1.2-3.5-1.8c-0.1-0.2-0.1-0.4-0.2-0.5c-3.7-3.5-4-7.7-2.1-12.2
			c2.1-4.8,4.7-9.3,7.5-13.8c7.1-11.4,14.2-22.8,21.1-34.3c5.2-8.6,10.3-17.2,15.3-25.9c1.9-3.2,3.3-6.7,4.9-10.1
			c2.6-5.4,5.1-10.8,7.7-16.2c0.3-0.7,0.3-1.2-0.2-1.9c-2.2-3.1-3-6.6-3.2-10.3c-0.4-6.2,0.8-12.2,3-17.9
			c5.2-13.4,13.7-24.4,25.2-33c2.2-1.6,4.7-2.9,7.3-3.7c1.6-0.5,3.2-0.4,4.8-0.4C520.5,129.5,521.3,129.9,522.2,130.3z"/>
		<path class="st3" d="M438.5,102.7c3.6,2,5.5,5.3,6.9,9c2.9,7.5,3.9,15.4,4,23.4c0.1,9.7-1.4,19.1-5.7,28c-1.8,3.7-4,7.1-6.9,9.9
			c-1.9,1.8-4,3.4-6.5,4.2c-0.7,0.2-0.8,0.6-0.9,1.2c-1.1,6.3-2.3,12.5-3.7,18.7c-1.5,6.6-1.8,13.4-2,20.2c-0.3,7.1-1,14.2-1.5,21.4
			c-1.1,14.1-2.2,28.3-3.4,42.4c-0.3,3.7-0.4,7.4-1.1,11c-0.3,1.9-0.8,3.6-1.7,5.3c-1.5,2.7-3.7,4.4-6.8,4.7c-0.2,0-0.4,0-0.5,0.2
			c-1.3-0.2-2.6-0.4-3.9-0.6c-0.1-0.1-0.2-0.3-0.4-0.4c-4.7-2.2-6.2-6.1-5.8-10.9c0.5-5.2,1.6-10.3,2.9-15.4
			c3.2-13,6.5-26.1,9.5-39.2c2.3-9.8,4.4-19.6,6.5-29.4c0.8-3.7,1-7.4,1.6-11.1c0.8-5.9,1.5-11.8,2.3-17.8c0.1-0.8-0.1-1.2-0.7-1.7
			c-3-2.2-4.9-5.3-6.2-8.8c-2.3-5.8-3-11.8-2.7-18c0.8-14.4,5.4-27.4,13.8-39.1c1.6-2.2,3.5-4.2,5.8-5.8c1.3-0.9,2.9-1.3,4.4-1.8
			C436.7,102.4,437.6,102.5,438.5,102.7z"/>
	</g>
	<g>
		<path class="st3" d="M375,96.2c0.7-0.3,0.4-1,0.4-1.5c0.8-15,1.5-30,2.3-45.1c0.2-3.5,0.2-7.1,0.4-10.6c0.1-1.5,0.1-3.4,1.9-3.4
			c1.6,0,1.4,2,1.4,3.3c0,14.1-0.1,28.2-0.1,42.3c0,5.6-0.1,11.3-0.1,16.9c0,0.2,0,0.4,0,0.6c0,1.5,0.5,2.7,2.2,2.7
			c1.7,0,2.2-1.1,2.2-2.7c0.1-7,0.2-14,0.3-21c0.1-11.3,0.2-22.6,0.3-33.9c0-2.6,0.3-5.2,1-7.7c0.2-0.7,0.3-1.5,1.2-1.5
			c1,0,1.3,0.8,1.4,1.6c0.2,2.3,0.4,4.7,0.5,7c0.1,3.9,0.3,7.7,0.3,11.6c0.2,14.5,0.4,29.1,0.6,43.6c0,0.1,0,0.1,0,0.2
			c0,1.9,0.8,2.9,2.2,2.8c1.8-0.1,2.2-1.4,2.2-2.9c0.1-7.3,0.3-14.7,0.4-22c0.2-12.5,0.3-25,0.4-37.5c0-1.4-0.2-3.5,1.5-3.6
			c1.9-0.2,1.9,2,2.1,3.4c0.2,1.4,0.1,2.8,0.1,4.2c0.5,18.5,0.6,36.9,0.7,55.4c0,0.4,0,0.9,0.1,1.3c0.2,1.1,0.9,1.8,2.1,1.8
			c1.2,0,1.9-0.7,2.1-1.8c0.1-0.5,0.1-1.1,0.1-1.7c0-18.6,0-37.3,0-55.9c0-1.5-0.1-2.9,0.3-4.3c0.2-0.7,0.3-1.5,1.1-1.5
			c0.9,0,1.5,0.8,1.7,1.6c0.2,0.8,0.2,1.6,0.2,2.4c0.5,11.5,1.1,23,1.6,34.5c0.5,10.5,1.1,21,1.5,31.4c0.3,7-1.9,13.2-6.9,18.3
			c-1.4,1.4-2.9,2.6-4.7,3.4c-0.9,0.4-1.2,0.8-1.2,1.8c0.1,18.6-0.8,37.2,0,55.7c0.6,14.2,2,28.4,3.6,42.5c1.9,17,4,34,5.4,51.1
			c0.3,4.2,0.1,8.3-1.3,12.3c-1.5,4-4,7-7.8,8.8c-4.4,2-9.2,0.7-12.8-3.3c-3.4-3.9-4.4-8.6-4.4-13.6c0-6.5,0.8-12.9,1.2-19.3
			c0.9-13.2,1.9-26.3,2.8-39.5c1.5-21.9,2.9-43.9,3.7-65.9c0.3-8.2,0.5-16.4,0.2-24.6c0-0.6-0.1-1.1-0.1-1.7
			c-0.1-2.3-0.9-3.8-3.2-4.9c-5.7-2.7-8.5-7.9-10-13.8c-0.2-0.6,0-1.4-0.7-1.8C375,106.3,375,101.3,375,96.2z"/>
		<path class="st3" d="M288,115.7c0.6-0.5,0.1-1.1-0.1-1.6c-3.9-14.5-7.8-29-11.8-43.6c-0.9-3.4-2-6.8-2.9-10.2
			c-0.4-1.4-1-3.3,0.8-3.8c1.5-0.4,2,1.5,2.4,2.7c4.3,13.4,8.6,26.8,12.9,40.3c1.7,5.4,3.4,10.7,5.1,16.1c0.1,0.2,0.1,0.4,0.2,0.5
			c0.4,1.5,1.3,2.4,2.9,1.9c1.6-0.5,1.7-1.8,1.3-3.2c-2.1-6.7-4.1-13.4-6.2-20.1c-3.4-10.8-6.8-21.6-10.2-32.4
			c-0.8-2.5-1.4-5-1.5-7.6c0-0.7-0.1-1.5,0.7-1.8c0.9-0.3,1.5,0.4,1.8,1.1c0.9,2.1,1.8,4.3,2.6,6.5c1.3,3.6,2.6,7.2,3.9,10.9
			c4.7,13.8,9.3,27.5,14,41.3c0,0.1,0,0.1,0.1,0.2c0.6,1.8,1.7,2.6,3,2c1.7-0.7,1.6-2,1.2-3.5c-2.2-7-4.3-14-6.4-21
			c-3.7-12-7.5-23.9-11.2-35.8c-0.4-1.4-1.3-3.2,0.3-3.9c1.8-0.8,2.4,1.3,3,2.6c0.6,1.3,0.9,2.6,1.4,3.9
			c6.1,17.4,11.9,34.9,17.7,52.5c0.1,0.4,0.3,0.9,0.5,1.2c0.6,1,1.4,1.4,2.5,1c1.1-0.4,1.6-1.2,1.5-2.3c-0.1-0.6-0.3-1.1-0.5-1.6
			c-5.8-17.7-11.5-35.5-17.3-53.2c-0.4-1.4-1-2.7-1-4.2c0-0.7-0.2-1.6,0.6-1.8c0.8-0.3,1.6,0.3,2.1,1c0.4,0.7,0.7,1.5,1,2.3
			c4.1,10.8,8.1,21.5,12.2,32.3c3.7,9.8,7.5,19.6,11.1,29.4c2.4,6.6,2.3,13.1-0.9,19.5c-0.9,1.8-2,3.4-3.5,4.7
			c-0.7,0.6-0.9,1.1-0.6,2.1c5.9,17.6,10.7,35.6,17.2,53c5,13.3,10.7,26.3,16.5,39.3c7,15.6,14.4,31.1,20.9,46.9
			c1.6,3.9,2.7,7.9,2.5,12.2c-0.2,4.2-1.6,7.9-4.7,10.8c-3.6,3.3-8.5,3.5-13.2,0.8c-4.4-2.7-6.8-6.8-8.4-11.6
			c-2-6.1-3.2-12.5-4.8-18.7c-3.2-12.8-6.3-25.7-9.5-38.5c-5.4-21.3-10.8-42.6-16.9-63.8c-2.3-7.9-4.6-15.8-7.4-23.5
			c-0.2-0.5-0.4-1.1-0.6-1.6c-0.8-2.2-2-3.3-4.6-3.7c-6.2-0.8-10.5-4.9-13.8-10c-0.3-0.5-0.4-1.3-1.3-1.5
			C291.2,125.3,289.6,120.5,288,115.7z"/>
		<path class="st3" d="M211.3,161.1c0.4-0.7-0.3-1-0.5-1.5c-8.2-12.6-16.4-25.2-24.7-37.8c-1.9-3-4-5.9-5.9-8.8
			c-0.8-1.2-1.9-2.8-0.4-3.8c1.3-0.9,2.3,0.8,3.1,1.8c8.3,11.4,16.5,22.8,24.8,34.3c3.3,4.6,6.6,9.1,9.8,13.7
			c0.1,0.2,0.2,0.3,0.3,0.5c0.9,1.3,2,1.9,3.4,0.9c1.3-1,1.1-2.2,0.2-3.5c-4.1-5.7-8.1-11.5-12.1-17.2c-6.6-9.2-13.1-18.4-19.7-27.6
			c-1.5-2.1-2.8-4.3-3.7-6.8c-0.2-0.7-0.6-1.4,0.1-1.9c0.7-0.6,1.5-0.1,2,0.5c1.6,1.7,3,3.5,4.5,5.4c2.4,3,4.8,6.1,7.1,9.2
			c8.7,11.6,17.4,23.3,26.1,34.9c0,0.1,0.1,0.1,0.1,0.2c1.2,1.5,2.4,1.9,3.5,1c1.4-1.2,0.9-2.4,0-3.6c-4.2-6-8.4-12-12.6-18
			c-7.2-10.2-14.5-20.4-21.7-30.6c-0.8-1.2-2.2-2.7-0.9-3.8c1.5-1.3,2.7,0.5,3.7,1.5c0.9,1,1.7,2.2,2.5,3.3
			c11.2,14.7,22.2,29.5,33.1,44.4c0.3,0.4,0.5,0.7,0.8,1c0.8,0.8,1.8,0.9,2.7,0.2c1-0.7,1.1-1.6,0.7-2.7c-0.2-0.5-0.6-0.9-1-1.4
			c-11-15.1-21.9-30.2-32.9-45.3c-0.9-1.2-1.8-2.3-2.3-3.7c-0.2-0.6-0.7-1.4,0-1.9c0.7-0.5,1.6-0.2,2.3,0.3c0.6,0.5,1.1,1.2,1.6,1.8
			c7.2,9,14.4,18,21.6,26.9c6.6,8.2,13.2,16.3,19.7,24.6c4.3,5.5,6.2,11.8,5.2,18.8c-0.3,2-0.8,3.9-1.8,5.5
			c-0.5,0.8-0.5,1.4,0.1,2.2c11,15,21.2,30.5,32.8,45.1c8.9,11.1,18.3,21.8,27.9,32.3c11.5,12.7,23.3,25.1,34.4,38.2
			c2.7,3.2,5,6.7,6.2,10.8c1.1,4.1,0.9,8-1.2,11.7c-2.4,4.2-7,6-12.3,4.8c-5-1.2-8.6-4.4-11.5-8.4c-3.8-5.2-6.9-10.9-10.4-16.3
			c-7-11.2-13.9-22.5-20.9-33.6C283,240,271.2,221.4,259,203.1c-4.6-6.8-9.2-13.6-14.3-20c-0.4-0.4-0.7-0.9-1.1-1.3
			c-1.4-1.8-2.9-2.5-5.5-2.1c-6.2,1.1-11.5-1.4-16.2-5.3c-0.5-0.4-0.8-1.1-1.7-1C217.3,169.3,214.3,165.2,211.3,161.1z"/>
		<path class="st3" d="M152.4,228c0.2-0.8-0.6-0.9-1-1.2c-11.7-9.5-23.4-18.9-35.1-28.3c-2.8-2.2-5.6-4.4-8.3-6.6
			c-1.1-0.9-2.7-2.1-1.6-3.5c1-1.2,2.5,0,3.5,0.8c11.4,8.3,22.8,16.6,34.1,25c4.5,3.3,9.1,6.7,13.6,10c0.2,0.1,0.3,0.2,0.5,0.3
			c1.2,0.9,2.5,1.2,3.5-0.2c1-1.3,0.4-2.4-0.9-3.4c-5.6-4.2-11.2-8.4-16.9-12.6c-9.1-6.7-18.2-13.5-27.3-20.2
			c-2.1-1.5-4-3.2-5.6-5.3c-0.4-0.6-1-1.1-0.5-1.8c0.5-0.8,1.4-0.6,2.1-0.2c2,1.2,4,2.4,5.9,3.7c3.2,2.1,6.4,4.3,9.5,6.5
			c11.9,8.4,23.7,16.8,35.6,25.2c0.1,0,0.1,0.1,0.2,0.1c1.6,1.1,2.8,1.1,3.6-0.1c1-1.5,0.2-2.5-1.1-3.5c-5.9-4.4-11.7-8.8-17.6-13.2
			c-10-7.5-20.1-14.9-30.1-22.4c-1.1-0.8-2.9-1.9-2.1-3.4c1-1.7,2.7-0.4,4,0.3c1.2,0.7,2.3,1.6,3.4,2.4c15.2,10.5,30.2,21.2,45.2,32
			c0.4,0.3,0.7,0.5,1.1,0.7c1.1,0.5,2,0.3,2.7-0.7c0.7-1,0.6-1.9-0.2-2.8c-0.4-0.4-0.9-0.7-1.3-1c-15.1-11-30.2-21.9-45.3-32.9
			c-1.2-0.9-2.4-1.7-3.3-2.8c-0.4-0.5-1.1-1.1-0.6-1.8c0.5-0.7,1.5-0.7,2.3-0.4c0.8,0.3,1.4,0.8,2.1,1.2
			c9.6,6.3,19.2,12.6,28.8,18.9c8.8,5.8,17.6,11.4,26.3,17.3c5.8,3.9,9.5,9.3,10.7,16.3c0.3,1.9,0.4,3.9,0,5.8
			c-0.2,0.9-0.1,1.5,0.7,2.1c15.1,10.8,29.6,22.5,45.1,32.8c11.9,7.8,24.1,15,36.5,22.1c14.9,8.5,29.9,16.7,44.5,25.7
			c3.6,2.2,6.8,4.8,9.2,8.3c2.3,3.5,3.4,7.3,2.5,11.5c-1,4.8-4.8,7.9-10.2,8.4c-5.1,0.5-9.5-1.5-13.6-4.4c-5.2-3.8-10-8.2-14.9-12.3
			c-10.1-8.5-20.2-17.1-30.3-25.5c-16.9-14.1-33.8-28.1-51.1-41.7c-6.5-5.1-13-10.1-19.8-14.6c-0.5-0.3-1-0.6-1.4-0.9
			c-1.9-1.3-3.5-1.5-5.8-0.3c-5.6,3-11.3,2.2-17,0c-0.6-0.2-1.1-0.8-1.9-0.5C160.6,233.9,156.5,231,152.4,228z"/>
		<path class="st3" d="M117,309.8c-0.1-0.8-0.8-0.7-1.3-0.9c-14-5.4-28.1-10.7-42.2-16.1c-3.3-1.3-6.7-2.4-10-3.7
			c-1.4-0.5-3.2-1.1-2.6-2.8c0.5-1.5,2.4-0.7,3.6-0.4c13.4,4.4,26.8,8.8,40.2,13.2c5.3,1.8,10.7,3.5,16,5.3c0.2,0.1,0.4,0.1,0.5,0.2
			c1.4,0.5,2.7,0.3,3.3-1.2c0.5-1.6-0.4-2.4-1.9-2.9c-6.6-2.2-13.3-4.5-19.9-6.8c-10.7-3.6-21.5-7.2-32.2-10.8
			c-2.5-0.8-4.8-1.8-7-3.3c-0.6-0.4-1.3-0.8-1.1-1.6c0.3-0.9,1.2-1,1.9-0.8c2.3,0.5,4.5,1.1,6.8,1.7c3.7,1.1,7.4,2.1,11.1,3.3
			c13.9,4.3,27.8,8.6,41.7,12.9c0.1,0,0.1,0,0.2,0.1c1.9,0.6,3,0.2,3.4-1.2c0.5-1.8-0.6-2.5-2.1-3c-6.9-2.4-13.9-4.8-20.8-7.2
			c-11.9-4-23.7-8-35.6-12c-1.3-0.5-3.4-0.9-3-2.6c0.4-1.9,2.5-1.2,3.9-0.9c1.4,0.3,2.7,0.8,4,1.2c17.7,5.3,35.3,10.9,52.9,16.5
			c0.4,0.1,0.8,0.3,1.3,0.3c1.2,0.2,2-0.3,2.3-1.5c0.4-1.1,0-2-1-2.6c-0.5-0.3-1.1-0.4-1.6-0.6c-17.7-5.8-35.5-11.5-53.2-17.3
			c-1.4-0.4-2.8-0.8-4-1.7c-0.6-0.4-1.4-0.7-1.1-1.5c0.3-0.8,1.2-1.2,2-1.1c0.8,0.1,1.6,0.3,2.4,0.5c11.1,3,22.2,6.1,33.3,9.1
			c10.1,2.8,20.3,5.5,30.4,8.3c6.7,1.9,11.9,5.9,15.3,12.2c0.9,1.7,1.6,3.6,1.8,5.6c0.1,1,0.4,1.4,1.3,1.7
			c17.7,5.6,35.1,12.3,53,17.2c13.7,3.8,27.6,6.8,41.5,9.7c16.8,3.5,33.6,6.7,50.2,10.7c4.1,1,8,2.4,11.3,5.1c3.3,2.6,5.5,6,6,10.2
			c0.6,4.8-2.2,9-7.1,11.1c-4.8,2-9.5,1.5-14.3,0c-6.1-2-12-4.7-18-7.1c-12.3-4.9-24.4-10-36.7-14.9c-20.4-8.2-40.9-16.3-61.5-23.8
			c-7.7-2.8-15.5-5.6-23.4-7.8c-0.5-0.2-1.1-0.3-1.6-0.4c-2.2-0.6-3.8-0.3-5.6,1.5c-4.4,4.6-10.1,5.6-16.2,5.3c-0.6,0-1.3-0.4-2,0.1
			C126.6,312.9,121.8,311.4,117,309.8z"/>
		<path class="st3" d="M657.9,275.6c0.5,0.6,1.1,0.1,1.6-0.1c14.5-3.9,29-7.8,43.6-11.8c3.4-0.9,6.8-2,10.2-2.9
			c1.4-0.4,3.3-1,3.8,0.8c0.4,1.5-1.5,2-2.7,2.4c-13.4,4.3-26.8,8.6-40.3,12.9c-5.4,1.7-10.7,3.4-16.1,5.1c-0.2,0.1-0.4,0.1-0.5,0.2
			c-1.5,0.4-2.4,1.3-1.9,2.9c0.5,1.6,1.8,1.7,3.2,1.3c6.7-2.1,13.4-4.1,20.1-6.2c10.8-3.4,21.6-6.8,32.4-10.2c2.5-0.8,5-1.4,7.6-1.5
			c0.7,0,1.5-0.1,1.8,0.7c0.3,0.9-0.4,1.5-1.1,1.8c-2.1,0.9-4.3,1.8-6.5,2.6c-3.6,1.3-7.2,2.6-10.9,3.9c-13.8,4.7-27.5,9.3-41.3,14
			c-0.1,0-0.1,0-0.2,0.1c-1.8,0.6-2.6,1.7-2,3c0.7,1.7,2,1.6,3.5,1.2c7-2.2,14-4.3,21-6.4c12-3.7,23.9-7.5,35.8-11.2
			c1.4-0.4,3.2-1.3,3.9,0.3c0.8,1.8-1.3,2.4-2.6,3c-1.3,0.6-2.6,0.9-3.9,1.4c-17.4,6.1-34.9,11.9-52.5,17.7
			c-0.4,0.1-0.9,0.3-1.2,0.5c-1,0.6-1.4,1.4-1,2.5c0.4,1.1,1.2,1.6,2.3,1.5c0.6-0.1,1.1-0.3,1.6-0.5c17.7-5.8,35.5-11.5,53.2-17.3
			c1.4-0.4,2.7-1,4.2-1c0.7,0,1.6-0.2,1.8,0.6c0.3,0.8-0.3,1.6-1,2.1c-0.7,0.4-1.5,0.7-2.3,1c-10.8,4.1-21.5,8.1-32.3,12.2
			c-9.8,3.7-19.6,7.5-29.4,11.1c-6.6,2.4-13.1,2.3-19.5-0.9c-1.8-0.9-3.4-2-4.7-3.5c-0.6-0.7-1.1-0.9-2.1-0.6
			c-17.6,5.9-35.6,10.7-53,17.2c-13.3,5-26.3,10.7-39.3,16.5c-15.6,7-31.1,14.4-46.9,20.9c-3.9,1.6-7.9,2.7-12.2,2.5
			c-4.2-0.2-7.9-1.6-10.8-4.7c-3.3-3.6-3.5-8.5-0.8-13.2c2.7-4.4,6.8-6.8,11.6-8.4c6.1-2,12.5-3.2,18.7-4.8
			c12.8-3.2,25.7-6.3,38.5-9.5c21.3-5.4,42.6-10.8,63.8-16.9c7.9-2.3,15.8-4.6,23.5-7.4c0.5-0.2,1.1-0.4,1.6-0.6
			c2.2-0.8,3.3-2,3.7-4.6c0.8-6.2,4.9-10.5,10-13.8c0.5-0.3,1.3-0.4,1.5-1.3C648.2,278.7,653.1,277.2,657.9,275.6z"/>
		<path class="st3" d="M612.5,198.9c0.7,0.4,1-0.3,1.5-0.5c12.6-8.2,25.2-16.4,37.8-24.7c3-1.9,5.9-4,8.8-5.9
			c1.2-0.8,2.8-1.9,3.8-0.4c0.9,1.3-0.8,2.3-1.8,3.1c-11.4,8.3-22.8,16.5-34.3,24.8c-4.6,3.3-9.1,6.6-13.7,9.8
			c-0.2,0.1-0.3,0.2-0.5,0.3c-1.3,0.9-1.9,2-0.9,3.4c1,1.3,2.2,1.1,3.5,0.2c5.7-4.1,11.5-8.1,17.2-12.1c9.2-6.6,18.4-13.1,27.6-19.7
			c2.1-1.5,4.3-2.8,6.8-3.7c0.7-0.2,1.4-0.6,1.9,0.1c0.6,0.7,0.1,1.5-0.5,2c-1.7,1.6-3.5,3-5.4,4.5c-3,2.4-6.1,4.8-9.2,7.1
			c-11.6,8.7-23.3,17.4-34.9,26.1c-0.1,0-0.1,0.1-0.2,0.1c-1.5,1.2-1.9,2.4-1,3.5c1.2,1.4,2.4,0.9,3.6,0c6-4.2,12-8.4,18-12.6
			c10.2-7.2,20.4-14.5,30.6-21.7c1.2-0.8,2.7-2.2,3.8-0.9c1.3,1.5-0.5,2.7-1.5,3.7c-1,0.9-2.2,1.7-3.3,2.5
			c-14.7,11.2-29.5,22.2-44.4,33.1c-0.4,0.3-0.7,0.5-1,0.8c-0.8,0.8-0.9,1.8-0.2,2.7c0.7,1,1.6,1.1,2.7,0.7c0.5-0.2,0.9-0.6,1.4-1
			c15.1-11,30.2-21.9,45.3-32.9c1.2-0.9,2.3-1.8,3.7-2.3c0.6-0.2,1.4-0.7,1.9,0c0.5,0.7,0.2,1.6-0.3,2.3c-0.5,0.6-1.2,1.1-1.8,1.6
			c-9,7.2-18,14.4-26.9,21.6c-8.2,6.6-16.3,13.2-24.6,19.7c-5.5,4.3-11.8,6.2-18.8,5.2c-2-0.3-3.9-0.8-5.5-1.8
			c-0.8-0.5-1.4-0.5-2.2,0.1c-15,11-30.5,21.2-45.1,32.8c-11.1,8.9-21.8,18.3-32.3,27.9c-12.7,11.5-25.1,23.3-38.2,34.4
			c-3.2,2.7-6.7,5-10.8,6.2c-4.1,1.1-8,0.9-11.7-1.2c-4.2-2.4-6-7-4.8-12.3c1.2-5,4.4-8.6,8.4-11.5c5.2-3.8,10.9-6.9,16.3-10.4
			c11.2-7,22.5-13.9,33.6-20.9c18.6-11.7,37.2-23.5,55.4-35.8c6.8-4.6,13.6-9.2,20-14.3c0.4-0.4,0.9-0.7,1.3-1.1
			c1.8-1.4,2.5-2.9,2.1-5.5c-1.1-6.2,1.4-11.5,5.3-16.2c0.4-0.5,1.1-0.8,1-1.7C604.3,204.8,608.4,201.9,612.5,198.9z"/>
		<path class="st3" d="M545.6,140c0.8,0.2,0.9-0.6,1.2-1c9.5-11.7,18.9-23.4,28.3-35.1c2.2-2.8,4.4-5.6,6.6-8.3
			c0.9-1.1,2.1-2.7,3.5-1.6c1.2,1,0,2.5-0.8,3.5c-8.3,11.4-16.6,22.8-25,34.1c-3.3,4.5-6.7,9.1-10,13.6c-0.1,0.2-0.2,0.3-0.3,0.5
			c-0.9,1.2-1.2,2.5,0.2,3.5c1.3,1,2.4,0.4,3.4-0.9c4.2-5.6,8.4-11.2,12.6-16.9c6.7-9.1,13.5-18.2,20.2-27.3c1.5-2.1,3.2-4,5.3-5.6
			c0.6-0.4,1.1-1,1.8-0.5c0.8,0.5,0.6,1.4,0.2,2.1c-1.2,2-2.4,4-3.7,5.9c-2.1,3.2-4.3,6.4-6.5,9.5c-8.4,11.9-16.8,23.7-25.2,35.6
			c0,0.1-0.1,0.1-0.1,0.2c-1.1,1.6-1.1,2.8,0.1,3.6c1.5,1,2.5,0.2,3.5-1.1c4.4-5.9,8.8-11.7,13.2-17.6c7.5-10,14.9-20.1,22.4-30.1
			c0.8-1.1,1.9-2.9,3.4-2.1c1.7,1,0.4,2.7-0.3,4c-0.7,1.2-1.6,2.3-2.4,3.4c-10.5,15.2-21.2,30.2-32,45.2c-0.3,0.4-0.5,0.7-0.7,1.1
			c-0.5,1.1-0.3,2,0.7,2.7c1,0.7,1.9,0.6,2.8-0.2c0.4-0.4,0.7-0.9,1-1.3c11-15.1,21.9-30.2,32.9-45.3c0.9-1.2,1.7-2.4,2.8-3.3
			c0.5-0.4,1.1-1.1,1.8-0.6c0.7,0.5,0.7,1.5,0.4,2.3c-0.3,0.8-0.8,1.4-1.2,2.1c-6.3,9.6-12.6,19.2-18.9,28.8
			c-5.8,8.8-11.4,17.6-17.3,26.3c-3.9,5.8-9.3,9.5-16.3,10.7c-1.9,0.3-3.9,0.4-5.8,0c-0.9-0.2-1.5-0.1-2.1,0.7
			c-10.8,15.1-22.5,29.6-32.8,45.1c-7.8,11.9-15,24.1-22.1,36.5c-8.5,14.9-16.7,29.9-25.7,44.5c-2.2,3.6-4.8,6.8-8.3,9.2
			c-3.5,2.3-7.3,3.4-11.5,2.5c-4.8-1-7.9-4.8-8.4-10.2c-0.5-5.1,1.5-9.5,4.4-13.6c3.8-5.2,8.2-10,12.3-14.9
			c8.5-10.1,17.1-20.2,25.5-30.3c14.1-16.9,28.1-33.8,41.7-51.1c5.1-6.5,10.1-13,14.6-19.8c0.3-0.5,0.6-1,0.9-1.4
			c1.3-1.9,1.5-3.5,0.3-5.8c-3-5.6-2.2-11.3,0-17c0.2-0.6,0.8-1.1,0.5-1.9C539.6,148.2,542.6,144.1,545.6,140z"/>
		<path class="st3" d="M463.8,104.6c0.8-0.1,0.7-0.8,0.9-1.3c5.4-14,10.7-28.1,16.1-42.2c1.3-3.3,2.4-6.7,3.7-10
			c0.5-1.4,1.1-3.2,2.8-2.6c1.5,0.5,0.7,2.4,0.4,3.6c-4.4,13.4-8.8,26.8-13.2,40.2c-1.8,5.3-3.5,10.7-5.3,16
			c-0.1,0.2-0.1,0.4-0.2,0.5c-0.5,1.4-0.3,2.7,1.2,3.3c1.6,0.5,2.4-0.4,2.9-1.9c2.2-6.6,4.5-13.3,6.8-19.9
			c3.6-10.7,7.2-21.5,10.8-32.2c0.8-2.5,1.8-4.8,3.3-7c0.4-0.6,0.8-1.3,1.6-1.1c0.9,0.3,1,1.2,0.8,1.9c-0.5,2.3-1.1,4.5-1.7,6.8
			c-1.1,3.7-2.1,7.4-3.3,11.1c-4.3,13.9-8.6,27.8-12.9,41.7c0,0.1,0,0.1-0.1,0.2c-0.6,1.9-0.2,3,1.2,3.4c1.8,0.5,2.5-0.6,3-2.1
			c2.4-6.9,4.8-13.9,7.2-20.8c4-11.9,8-23.7,12-35.6c0.5-1.3,0.9-3.4,2.6-3c1.9,0.4,1.2,2.5,0.9,3.9c-0.3,1.4-0.8,2.7-1.2,4
			c-5.3,17.7-10.9,35.3-16.5,52.9c-0.1,0.4-0.3,0.8-0.3,1.3c-0.2,1.2,0.3,2,1.5,2.3c1.1,0.4,2,0,2.6-1c0.3-0.5,0.4-1.1,0.6-1.6
			c5.8-17.7,11.5-35.5,17.3-53.2c0.4-1.4,0.8-2.8,1.7-4c0.4-0.6,0.7-1.4,1.5-1.1c0.8,0.3,1.2,1.2,1.1,2c-0.1,0.8-0.3,1.6-0.5,2.4
			c-3,11.1-6.1,22.2-9.1,33.3c-2.8,10.1-5.5,20.3-8.3,30.4c-1.9,6.7-5.9,11.9-12.2,15.3c-1.7,0.9-3.6,1.6-5.6,1.8
			c-1,0.1-1.4,0.4-1.7,1.3c-5.6,17.7-12.3,35.1-17.2,53c-3.8,13.7-6.8,27.6-9.7,41.5c-3.5,16.8-6.7,33.6-10.7,50.2
			c-1,4.1-2.4,8-5.1,11.3c-2.6,3.3-6,5.5-10.2,6c-4.8,0.6-9-2.2-11.1-7.1c-2-4.8-1.5-9.5,0-14.3c2-6.1,4.7-12,7.1-18
			c4.9-12.3,10-24.4,14.9-36.7c8.2-20.4,16.3-40.9,23.8-61.5c2.8-7.7,5.6-15.5,7.8-23.4c0.2-0.5,0.3-1.1,0.4-1.6
			c0.6-2.2,0.3-3.8-1.5-5.6c-4.6-4.4-5.6-10.1-5.3-16.2c0-0.6,0.4-1.3-0.1-2C460.6,114.2,462.2,109.4,463.8,104.6z"/>
	</g>
	<path class="st3" d="M131.8,393.3c1.6-0.8,3.4-0.5,5.1-0.7c8.8-0.9,17.5-2.1,25.7-5.3c0.7-0.3,1.5-0.5,2.1-0.9c2.7-2,5.6-2,8.8-1.9
		c24.2,0.7,48.4,1.9,72.6,3.4c15.5,1,31,1.9,46.4,2.8c2.2,0.1,4.4,0.4,6.6,0.8c4.3,0.6,8.7,1.1,11.9-2.8c3.4-4.3,4.3-9.2,2.7-14.4
		c-1.4-4.6-4.3-6.8-9.2-7c-5.4-0.2-10.7,0.6-16.1,0.9c-12.8,0.7-25.5,1.5-38.3,2.2c-22.6,1.1-45.2,1.9-67.8,2.1
		c-1.6,0-3.3,0.2-4.9,0.4c-3.7,0.4-7.3,0.4-11-0.8c-6.1-1.9-12.4-2.3-18.7-2.6c-24.4-1.3-48.8-1.1-73.3,0
		c-6.6,0.3-13.3,0.9-19.7,2.6c-1.9,0.5-3.8,1.1-5.4,2.2c-2.9,1.9-3,4.4-0.5,6.7c2.5,2.1,5.5,3.3,8.6,4.3c9.2,3.1,18.7,4.8,28.3,6.1
		c6.8,0.9,13.6,1.5,20.4,1.9c0.3,0,0.8-0.1,1,0.4C115.3,393.3,123.5,393.3,131.8,393.3z"/>
	<path class="st3" d="M654.2,394c-1.6-0.8-3.4-0.5-5.1-0.7c-8.8-0.9-17.5-2.1-25.7-5.3c-0.7-0.3-1.5-0.5-2.1-0.9
		c-2.7-2-5.6-2-8.8-1.9c-24.2,0.7-48.4,1.9-72.6,3.4c-15.5,1-31,1.9-46.4,2.8c-2.2,0.1-4.4,0.4-6.6,0.8c-4.3,0.6-8.7,1.1-11.9-2.8
		c-3.4-4.3-4.3-9.2-2.7-14.4c1.4-4.6,4.3-6.8,9.2-7c5.4-0.2,10.7,0.6,16.1,0.9c12.8,0.7,25.5,1.5,38.3,2.2
		c22.6,1.1,45.2,1.9,67.8,2.1c1.6,0,3.3,0.2,4.9,0.4c3.7,0.4,7.3,0.4,11-0.8c6.1-1.9,12.4-2.3,18.7-2.6c24.4-1.3,48.8-1.1,73.3,0
		c6.6,0.3,13.3,0.9,19.7,2.6c1.9,0.5,3.8,1.1,5.4,2.2c2.9,1.9,3,4.4,0.5,6.7c-2.5,2.1-5.5,3.3-8.6,4.3c-9.2,3.1-18.7,4.8-28.3,6.1
		c-6.8,0.9-13.6,1.5-20.4,1.9c-0.3,0-0.8-0.1-1,0.4C670.7,394,662.5,394,654.2,394z"/>
	<path class="st3" d="M654.2,394c-1.6-0.8-3.4-0.5-5.1-0.7c-8.8-0.9-17.5-2.1-25.7-5.3c-0.7-0.3-1.5-0.5-2.1-0.9
		c-2.7-2-5.6-2-8.8-1.9c-24.2,0.7-48.4,1.9-72.6,3.4c-15.5,1-31,1.9-46.4,2.8c-2.2,0.1-4.4,0.4-6.6,0.8c-4.3,0.6-8.7,1.1-11.9-2.8
		c-3.4-4.3-4.3-9.2-2.7-14.4c1.4-4.6,4.3-6.8,9.2-7c5.4-0.2,10.7,0.6,16.1,0.9c12.8,0.7,25.5,1.5,38.3,2.2
		c22.6,1.1,45.2,1.9,67.8,2.1c1.6,0,3.3,0.2,4.9,0.4c3.7,0.4,7.3,0.4,11-0.8c6.1-1.9,12.4-2.3,18.7-2.6c24.4-1.3,48.8-1.1,73.3,0
		c6.6,0.3,13.3,0.9,19.7,2.6c1.9,0.5,3.8,1.1,5.4,2.2c2.9,1.9,3,4.4,0.5,6.7c-2.5,2.1-5.5,3.3-8.6,4.3c-9.2,3.1-18.7,4.8-28.3,6.1
		c-6.8,0.9-13.6,1.5-20.4,1.9c-0.3,0-0.8-0.1-1,0.4C670.7,394,662.5,394,654.2,394z"/>
	<circle class="st3" cx="393" cy="320.4" r="5.7"/>
	<g>
		<path class="st3" d="M334.3,381.3h118.2c0,0,0,0,0,0c0.6,0,1.1-0.4,1-1c-0.1-28.7-20.2-52.6-47.1-58.7c-1.5-0.3-3.2,0.5-3.6,2
			c-1.3,4.1-5.2,7.1-9.8,7.1c-4.6,0-8.4-3-9.8-7.1c-0.5-1.5-2.1-2.3-3.6-2c-26.7,6-46.6,29.6-47.1,58
			C332.5,380.5,333.3,381.3,334.3,381.3C334.3,381.3,334.3,381.3,334.3,381.3z"/>
	</g>
	<path class="st3" d="M450.5,395.4h-115c-1.4,0-2.6-1.2-2.6-2.6v-5.4c0-1.4,1.2-2.6,2.6-2.6h115c1.4,0,2.6,1.2,2.6,2.6v5.4
		C453.1,394.2,452,395.4,450.5,395.4z"/>
</g>
<g>
	<path d="M14.5,455.3v-0.6c0-1.7,0.2-3.6,0.5-5.5c0.3-1.9,0.8-3.9,1.4-5.8s1.4-3.8,2.3-5.6c0.9-1.8,1.9-3.5,3-5
		c1.2-1.6,2.6-3.1,4.2-4.4c1.6-1.3,3.2-2.4,5-3.3c1.8-0.9,3.7-1.6,5.7-2.1c2-0.5,4.1-0.7,6.3-0.7c1.8,0,3.7,0.2,5.6,0.5
		c1.9,0.3,3.7,0.9,5.3,1.5c1.3,0.6,2.5,1.4,3.6,2.2c1.1,0.9,2.2,1.7,3.4,2.6c0.1,0.1,0.2,0.2,0.4,0.3c0.1,0,0.3,0,0.4,0
		c0.3,0,0.5-0.2,0.7-0.6c0.3-0.6,0.6-1.3,0.9-2.2s0.6-1.6,0.9-2.2c0.1-0.3,0.3-0.4,0.4-0.5c0.1,0,0.3-0.1,0.5-0.1
		c0.2,0,0.4,0.1,0.5,0.2c0.1,0.1,0.2,0.3,0.2,0.3c0.2,1,0.4,2.1,0.4,3.1c0,1,0.1,2.1,0.1,3.2v2.6c0,0.4,0,0.8,0,1.2
		c0,0.4,0,0.8,0,1.2c0.1,1.1,0.3,2.1,0.4,2.9c0.2,0.8,0.3,1.6,0.3,2.4c0,0.4-0.1,0.9-0.2,1.4c-0.1,0.5-0.4,0.7-0.8,0.7
		c-0.2,0-0.4-0.2-0.7-0.7c-0.3-0.4-0.6-0.9-1-1.5c-0.3-0.5-0.6-1.1-1-1.6c-0.3-0.5-0.5-0.9-0.6-1.1c-0.8-1.2-1.6-2.3-2.4-3.4
		c-0.8-1.1-1.5-2.1-2.3-3c-0.8-0.9-1.6-1.8-2.5-2.6c-0.9-0.8-1.8-1.5-2.9-2.1c-0.9-0.6-1.8-1-2.6-1.3c-0.8-0.3-1.6-0.5-2.4-0.7
		c-0.8-0.1-1.6-0.2-2.3-0.3c-0.8,0-1.6,0-2.4,0c-1.2,0-2.4,0.2-3.4,0.5c-1.1,0.3-2,0.8-3,1.4c-0.9,0.6-1.8,1.3-2.6,2
		c-0.8,0.8-1.5,1.6-2.3,2.4c-2.1,2.5-3.7,5.9-4.8,10.1c-1.1,4.2-1.6,9.2-1.6,15c0,2.9,0.3,5.5,0.8,7.9c0.5,2.4,1.2,4.4,1.9,6.3
		c0.8,1.8,1.6,3.4,2.6,4.7c0.9,1.3,1.8,2.4,2.6,3.2c0.9,0.9,1.7,1.8,2.6,2.5c0.8,0.7,1.7,1.3,2.6,1.7s1.9,0.8,2.9,1
		c1,0.2,2.2,0.3,3.5,0.3c2,0,3.9-0.4,5.8-1.3c1.9-0.9,3.7-2,5.6-3.4c0.4-0.3,0.8-0.7,1.2-1.1c0.4-0.4,0.8-0.8,1.2-1.2
		c0.4-0.4,0.8-0.8,1.1-1.2c0.3-0.4,0.6-0.8,0.9-1.1c0.9-1.5,1.8-2.9,2.5-4.3c0.7-1.4,1.4-2.8,2-4.3c0.3-0.4,0.8-0.7,1.6-0.7
		c0.3,0,0.5,0.1,0.7,0.4c0.1,0.2,0.2,0.5,0.2,0.8c-0.5,1.6-0.9,3.1-1.2,4.4s-0.7,2.7-1.2,4.2c-0.3,1.1-0.5,2.1-0.6,3.1
		c-0.1,1-0.2,1.9-0.4,2.7c-0.1,0.8-0.3,1.4-0.4,1.9c-0.1,0.5-0.4,0.7-0.7,0.7c-0.2,0-0.4-0.1-0.6-0.3c-0.1-0.2-0.3-0.5-0.4-0.8
		c-0.1-0.3-0.2-0.6-0.3-0.8c-0.1-0.2-0.4-0.3-0.7-0.3c-0.3,0-0.6,0.1-0.9,0.2c-0.3,0.1-0.6,0.3-1,0.6c-0.4,0.3-0.9,0.5-1.6,0.9
		c-0.6,0.3-1.5,0.7-2.5,1.2c-1.9,0.8-3.9,1.4-6.1,1.8c-2.2,0.5-4.3,0.7-6.4,0.7c-3.1,0-6-0.4-8.5-1.2c-2.6-0.8-5-2.2-7.3-4.2
		c-1.8-1.6-3.5-3.4-4.9-5.4c-1.5-2-2.7-4.2-3.7-6.5c-1-2.3-1.8-4.6-2.4-7.1C14.8,460.1,14.5,457.7,14.5,455.3z"/>
	<path d="M74.7,465.8c0-3.1,0.5-6,1.6-8.5c1.1-2.5,2.5-4.6,4.4-6.4c1.9-1.7,4.1-3.1,6.7-4c2.6-0.9,5.4-1.4,8.5-1.4
		c0.7,0,1.4,0.1,2.1,0.2c0.7,0.1,1.5,0.3,2.2,0.6c0.8,0.3,1.5,0.5,2.2,0.9c0.7,0.3,1.4,0.7,2,1c3.5,2,6.2,4.5,7.9,7.6
		c1.7,3.1,2.6,6.7,2.6,10.7c0,2.7-0.5,5.3-1.4,7.8c-0.9,2.5-2.3,4.7-4.2,6.7c-1.9,2-4.1,3.4-6.5,4.3c-2.4,0.9-5,1.3-7.6,1.3
		c-2,0-3.9-0.2-5.8-0.5c-1.9-0.4-3.8-1.2-5.6-2.5c-3.1-2.3-5.4-4.8-6.9-7.7C75.5,472.9,74.7,469.5,74.7,465.8z M82.3,466
		c0,1.2,0.1,2.5,0.3,3.8c0.2,1.4,0.5,2.7,1,4.1c0.4,1.4,1,2.7,1.6,4c0.7,1.3,1.5,2.4,2.4,3.4c0.9,1,2,1.8,3.2,2.4
		c1.2,0.6,2.6,0.9,4,0.9c0.9,0,1.8-0.1,2.5-0.3s1.4-0.5,1.9-0.8c0.6-0.4,1.1-0.8,1.6-1.3c0.5-0.5,1-1,1.4-1.6
		c0.8-1.1,1.5-2.2,2.1-3.5c0.6-1.3,1.1-2.6,1.5-3.9c0.4-1.3,0.7-2.7,0.8-4c0.2-1.3,0.2-2.6,0.2-3.8c0-1.1-0.1-2.4-0.4-3.8
		c-0.2-1.4-0.6-2.8-1.1-4.2c-0.5-1.4-1.2-2.8-2-4.1c-0.8-1.3-1.8-2.5-2.9-3.6c-0.9-0.8-1.8-1.4-2.8-1.8c-1-0.4-1.8-0.6-2.4-0.6
		c-1.4,0-2.6,0.1-3.6,0.4c-1,0.3-2,0.7-2.8,1.3c-0.8,0.6-1.5,1.3-2.2,2.1c-0.7,0.9-1.3,1.9-2,3c-1.2,2-1.9,3.9-2.1,5.8
		C82.5,462,82.3,464,82.3,466z"/>
	<path d="M127.1,483v-24.3c0-0.9,0-1.8,0-2.8c0-1-0.1-1.9-0.2-2.8c-0.1-0.9-0.3-1.6-0.5-2.2c-0.2-0.6-0.5-1-0.9-1.2
		c-0.7-0.3-1.6-0.5-2.6-0.5c-0.7,0-1.3,0-1.9,0.1c-0.6,0.1-1.1,0.1-1.6,0.1c-0.1,0-0.3-0.1-0.4-0.2c-0.1-0.1-0.2-0.2-0.2-0.4
		c0-0.3,0.1-0.5,0.3-0.6c0.9-0.5,1.9-0.9,2.8-1.1c0.9-0.2,1.9-0.5,2.9-0.8c0.9-0.3,1.8-0.5,2.7-0.8c0.9-0.3,1.8-0.7,2.5-1.2
		c0.5-0.3,1-0.5,1.5-0.8c0.4-0.3,1-0.4,1.7-0.4c0.2,0,0.3,0.1,0.5,0.3c0.2,0.2,0.2,0.4,0.2,0.5v2.4c0,0.2,0,0.5,0,0.8
		c0,0.3,0,0.7,0,1c0,0.3,0,0.6,0.1,0.9c0,0.3,0.1,0.5,0.1,0.6c0,0.1,0.1,0.2,0.1,0.3l0,0c0.2,0,0.3-0.1,0.5-0.3
		c0.1-0.2,0.3-0.4,0.5-0.8c0.2-0.3,0.4-0.7,0.7-1c0.3-0.4,0.6-0.8,1-1.2c0.6-0.6,1.2-1.1,1.9-1.6c0.7-0.5,1.4-0.9,2.2-1.3
		c0.8-0.4,1.5-0.6,2.3-0.8c0.8-0.2,1.6-0.3,2.3-0.3c1.1,0,2.3,0.1,3.5,0.3c1.2,0.2,2.3,0.5,3.2,1c1,0.5,1.8,1.2,2.4,2.1
		s0.9,2,0.9,3.4c0,0.7-0.2,1.4-0.5,2c-0.3,0.6-0.7,1.2-1.2,1.6c-0.5,0.4-1.1,0.8-1.8,1c-0.7,0.3-1.4,0.4-2.1,0.4
		c-0.5,0-1-0.1-1.5-0.2c-0.5-0.1-0.9-0.3-1-0.5c-0.9-0.8-1.6-2-1.9-3.4c-0.1-0.8-0.2-1.5-0.3-2c0-0.5-0.2-1-0.4-1.3
		c-0.2-0.3-0.5-0.5-1-0.7c-0.4-0.1-1.1-0.2-2.1-0.2c-0.8,0-1.6,0.2-2.4,0.6c-0.8,0.4-1.6,0.9-2.3,1.5c-0.7,0.6-1.3,1.3-1.8,2.1
		c-0.5,0.8-0.8,1.5-0.9,2.2c-0.1,0.7-0.2,1.4-0.2,2.1c0,0.8,0,1.5,0,2.3v26.7c0.2,0.4,0.5,0.6,1,0.7c0.5,0.1,1,0.2,1.6,0.2
		c0.2,0,0.4,0,0.7,0c0.3,0,0.6,0,1,0c0.3,0,0.6,0,0.9,0c0.3,0,0.4,0,0.5,0c0.7,0,1.2,0.1,1.7,0.2c0.4,0.2,0.6,0.5,0.6,1
		c0,0.4-0.2,0.7-0.5,1c-0.3,0.3-0.7,0.5-1,0.5c-1.6-0.3-3.3-0.5-5-0.6c-1.7-0.1-3.4-0.2-5.1-0.2c-1.8,0-3.4,0.1-5,0.2
		c-1.5,0.1-3.1,0.2-4.8,0.2c-0.3,0-0.7-0.1-1.1-0.4c-0.4-0.2-0.6-0.5-0.6-0.9c0-0.2,0.1-0.4,0.2-0.6c0.1-0.2,0.3-0.3,0.6-0.4
		c0.2-0.1,0.4-0.2,0.7-0.2c0.2-0.1,0.4-0.1,0.6-0.1c0.3,0,0.6,0,1,0c0.3,0,0.6,0.1,1,0.1c0.3,0.1,0.5,0.1,0.8,0.1c0.3,0,0.6,0,0.8,0
		c0.2,0,0.4,0,0.6-0.1c0.2-0.1,0.4-0.2,0.7-0.4c0.2-0.2,0.4-0.3,0.6-0.5C127,483.4,127.1,483.2,127.1,483z"/>
	<path d="M156.9,450c0-0.4,0.3-0.7,0.8-0.9c2.5-0.6,5.1-1.4,7.6-2.4c2.5-1,4.9-2.1,7.2-3.4c0.1-0.1,0.3-0.1,0.4-0.2
		c0.1,0,0.3,0,0.4,0c0.2,0,0.3,0.1,0.3,0.2v5.2c0,0.4,0.1,0.5,0.2,0.5c1.6-2,3.5-3.3,5.7-4.2c2.2-0.8,4.6-1.2,7.1-1.2
		c2,0,3.8,0.3,5.4,0.9c1.6,0.6,3.1,1.4,4.5,2.5c1.4,1.1,2.6,2.3,3.7,3.8c1.1,1.5,2,3.1,2.9,4.8c0.6,1.3,1,2.7,1.2,4.2
		c0.2,1.5,0.3,2.9,0.3,4.4c0,3.1-0.5,5.9-1.6,8.4c-1.1,2.5-2.5,4.6-4.4,6.4s-4.1,3.1-6.6,4c-2.5,0.9-5.3,1.4-8.3,1.4
		c-0.5,0-1-0.1-1.6-0.2c-0.6-0.1-1.2-0.2-1.8-0.4s-1.3-0.3-1.9-0.6c-0.7-0.2-1.3-0.4-1.8-0.6c-0.4-0.1-0.8-0.2-1-0.2
		c-0.4,0-0.6,0.2-0.6,0.6v20.7c0,0.5,0.3,0.7,0.8,0.7c0.7,0,1.5-0.1,2.3-0.2c0.8-0.1,1.5-0.2,2.2-0.2c0.3,0,0.6,0.1,0.9,0.3
		c0.3,0.2,0.5,0.5,0.5,0.7c0,0.4-0.2,0.7-0.6,0.9c-0.4,0.2-0.8,0.3-1.1,0.3h-9.4c-0.3,0-0.9,0-1.7,0c-0.9,0-1.8,0.1-2.7,0.1
		c-1,0-1.9,0.1-2.7,0.1c-0.8,0-1.4,0-1.6,0c-0.1,0-0.3,0-0.6,0c-0.3,0-0.5-0.1-0.7-0.2c-0.2-0.1-0.4-0.2-0.6-0.3
		c-0.2-0.1-0.2-0.3-0.2-0.4c0-0.7,0.4-1,1.1-1h4.4c0.6,0,1.1-0.1,1.4-0.2c0.4-0.1,0.6-0.5,0.6-1.2v-47.3c0-0.3,0-0.6,0-0.9
		c0-0.3-0.1-0.5-0.1-0.8c-0.1-0.9-0.3-1.6-0.5-2.2c-0.2-0.6-0.5-1.2-0.9-1.6c-0.4-0.4-0.9-0.8-1.5-1c-0.6-0.2-1.4-0.3-2.3-0.3
		c-0.7,0-1.3,0.1-2,0.4s-1.3,0.4-2,0.4C157.1,450.2,156.9,450.1,156.9,450z M196.4,466c0-1.5-0.1-3-0.4-4.6
		c-0.3-1.6-0.6-3.1-1.2-4.5c-0.5-1.5-1.2-2.9-2-4.2c-0.8-1.3-1.8-2.4-2.9-3.4c-1.1-1-2.4-1.7-3.8-2.3c-1.4-0.6-3-0.8-4.8-0.8
		c-1.1,0-2.1,0.2-3,0.5c-0.9,0.4-1.7,0.8-2.3,1.5c-0.6,0.6-1.1,1.4-1.5,2.2s-0.5,1.8-0.5,2.9c0,0.2,0,0.4,0,0.6c0,0.2,0,0.6,0.1,1.2
		c0,0.5,0.1,1.3,0.2,2.2c0.1,1,0.1,2.3,0.2,3.9c0.1,1.6,0.2,3.7,0.3,6.2c0.1,2.5,0.2,5.5,0.3,9c0,0.4,0.2,0.7,0.5,1.2
		c0.3,0.4,0.7,0.7,1,0.9c0.8,0.7,1.5,1.2,2.2,1.8c0.7,0.5,1.4,1,2.1,1.3c0.7,0.4,1.4,0.6,2.2,0.8c0.8,0.2,1.6,0.3,2.5,0.3
		c1.4,0,2.7-0.3,3.8-1c1.1-0.6,2.1-1.5,2.9-2.4c0.8-1,1.5-2.1,2.1-3.3c0.6-1.2,1-2.4,1.4-3.6c0.2-0.7,0.4-1.3,0.5-1.8
		c0.1-0.5,0.2-1.1,0.2-1.6c0-0.5,0-1,0-1.5S196.4,466.5,196.4,466z"/>
	<path d="M210.8,465.8c0-3.1,0.5-6,1.6-8.5c1.1-2.5,2.5-4.6,4.4-6.4c1.9-1.7,4.1-3.1,6.7-4c2.6-0.9,5.4-1.4,8.5-1.4
		c0.7,0,1.4,0.1,2.1,0.2c0.7,0.1,1.5,0.3,2.2,0.6c0.8,0.3,1.5,0.5,2.2,0.9c0.7,0.3,1.4,0.7,2,1c3.5,2,6.2,4.5,7.9,7.6
		c1.7,3.1,2.6,6.7,2.6,10.7c0,2.7-0.5,5.3-1.4,7.8c-0.9,2.5-2.3,4.7-4.2,6.7c-1.9,2-4.1,3.4-6.5,4.3c-2.4,0.9-5,1.3-7.6,1.3
		c-2,0-3.9-0.2-5.8-0.5c-1.9-0.4-3.8-1.2-5.6-2.5c-3.1-2.3-5.4-4.8-6.9-7.7C211.5,472.9,210.8,469.5,210.8,465.8z M218.4,466
		c0,1.2,0.1,2.5,0.3,3.8c0.2,1.4,0.5,2.7,1,4.1c0.4,1.4,1,2.7,1.6,4c0.7,1.3,1.5,2.4,2.4,3.4c0.9,1,2,1.8,3.2,2.4
		c1.2,0.6,2.6,0.9,4,0.9c0.9,0,1.8-0.1,2.5-0.3s1.4-0.5,1.9-0.8c0.6-0.4,1.1-0.8,1.6-1.3c0.5-0.5,1-1,1.4-1.6
		c0.8-1.1,1.5-2.2,2.1-3.5c0.6-1.3,1.1-2.6,1.5-3.9c0.4-1.3,0.7-2.7,0.8-4c0.2-1.3,0.2-2.6,0.2-3.8c0-1.1-0.1-2.4-0.4-3.8
		c-0.2-1.4-0.6-2.8-1.1-4.2c-0.5-1.4-1.2-2.8-2-4.1c-0.8-1.3-1.8-2.5-2.9-3.6c-0.9-0.8-1.8-1.4-2.8-1.8c-1-0.4-1.8-0.6-2.4-0.6
		c-1.4,0-2.6,0.1-3.6,0.4c-1,0.3-2,0.7-2.8,1.3c-0.8,0.6-1.5,1.3-2.2,2.1c-0.7,0.9-1.3,1.9-2,3c-1.2,2-1.9,3.9-2.1,5.8
		C218.5,462,218.4,464,218.4,466z"/>
	<path d="M263.1,483v-24.3c0-0.9,0-1.8,0-2.8c0-1-0.1-1.9-0.2-2.8c-0.1-0.9-0.3-1.6-0.5-2.2c-0.2-0.6-0.5-1-0.9-1.2
		c-0.7-0.3-1.6-0.5-2.6-0.5c-0.7,0-1.3,0-1.9,0.1c-0.6,0.1-1.1,0.1-1.6,0.1c-0.1,0-0.3-0.1-0.4-0.2c-0.1-0.1-0.2-0.2-0.2-0.4
		c0-0.3,0.1-0.5,0.3-0.6c0.9-0.5,1.9-0.9,2.8-1.1c0.9-0.2,1.9-0.5,2.9-0.8c0.9-0.3,1.8-0.5,2.7-0.8c0.9-0.3,1.8-0.7,2.5-1.2
		c0.5-0.3,1-0.5,1.5-0.8c0.4-0.3,1-0.4,1.7-0.4c0.2,0,0.3,0.1,0.5,0.3c0.2,0.2,0.2,0.4,0.2,0.5v2.4c0,0.2,0,0.5,0,0.8
		c0,0.3,0,0.7,0,1c0,0.3,0,0.6,0.1,0.9c0,0.3,0.1,0.5,0.1,0.6c0,0.1,0.1,0.2,0.1,0.3l0,0c0.2,0,0.3-0.1,0.5-0.3
		c0.1-0.2,0.3-0.4,0.5-0.8c0.2-0.3,0.4-0.7,0.7-1c0.3-0.4,0.6-0.8,1-1.2c0.6-0.6,1.2-1.1,1.9-1.6c0.7-0.5,1.4-0.9,2.2-1.3
		c0.8-0.4,1.5-0.6,2.3-0.8c0.8-0.2,1.6-0.3,2.3-0.3c1.1,0,2.3,0.1,3.5,0.3c1.2,0.2,2.3,0.5,3.2,1c1,0.5,1.8,1.2,2.4,2.1
		s0.9,2,0.9,3.4c0,0.7-0.2,1.4-0.5,2c-0.3,0.6-0.7,1.2-1.2,1.6c-0.5,0.4-1.1,0.8-1.8,1c-0.7,0.3-1.4,0.4-2.1,0.4
		c-0.5,0-1-0.1-1.5-0.2c-0.5-0.1-0.9-0.3-1-0.5c-0.9-0.8-1.6-2-1.9-3.4c-0.1-0.8-0.2-1.5-0.3-2c0-0.5-0.2-1-0.4-1.3
		c-0.2-0.3-0.5-0.5-1-0.7c-0.4-0.1-1.1-0.2-2.1-0.2c-0.8,0-1.6,0.2-2.4,0.6c-0.8,0.4-1.6,0.9-2.3,1.5c-0.7,0.6-1.3,1.3-1.8,2.1
		c-0.5,0.8-0.8,1.5-0.9,2.2c-0.1,0.7-0.2,1.4-0.2,2.1c0,0.8,0,1.5,0,2.3v26.7c0.2,0.4,0.5,0.6,1,0.7c0.5,0.1,1,0.2,1.6,0.2
		c0.2,0,0.4,0,0.7,0c0.3,0,0.6,0,1,0c0.3,0,0.6,0,0.9,0c0.3,0,0.4,0,0.5,0c0.7,0,1.2,0.1,1.7,0.2c0.4,0.2,0.6,0.5,0.6,1
		c0,0.4-0.2,0.7-0.5,1c-0.3,0.3-0.7,0.5-1,0.5c-1.6-0.3-3.3-0.5-5-0.6c-1.7-0.1-3.4-0.2-5.1-0.2c-1.8,0-3.4,0.1-5,0.2
		c-1.5,0.1-3.1,0.2-4.8,0.2c-0.3,0-0.7-0.1-1.1-0.4c-0.4-0.2-0.6-0.5-0.6-0.9c0-0.2,0.1-0.4,0.2-0.6c0.1-0.2,0.3-0.3,0.6-0.4
		c0.2-0.1,0.4-0.2,0.7-0.2c0.2-0.1,0.4-0.1,0.6-0.1c0.3,0,0.6,0,1,0c0.3,0,0.6,0.1,1,0.1c0.3,0.1,0.5,0.1,0.8,0.1c0.3,0,0.6,0,0.8,0
		c0.2,0,0.4,0,0.6-0.1c0.2-0.1,0.4-0.2,0.7-0.4c0.2-0.2,0.4-0.3,0.6-0.5C263,483.4,263.1,483.2,263.1,483z"/>
	<path d="M316.1,480.1l-0.2,0.2c0,0-0.3,0.2-0.7,0.6c-0.5,0.4-1,0.9-1.5,1.4c-0.6,0.5-1.1,1-1.6,1.4c-0.5,0.4-0.8,0.7-0.9,0.7
		c-0.9,0.5-2,1-3.2,1.5c-1.2,0.5-2.6,0.7-4.1,0.7c-1.1,0-2.1-0.1-3.2-0.4c-1.1-0.3-2-0.8-2.8-1.5c-0.8-0.7-1.5-1.7-2-2.9
		c-0.5-1.2-0.8-2.8-0.8-4.6c0-0.7,0.2-1.5,0.5-2.6c0.3-1.1,0.9-2,1.7-2.9c0.8-1,1.7-1.8,2.7-2.5c1-0.7,2.1-1.3,3.3-1.8
		c1.2-0.5,2.5-1,4-1.4c1.5-0.4,3.1-0.8,4.8-1.3c0.4-0.1,0.9-0.2,1.3-0.3c0.5-0.1,0.9-0.2,1.4-0.4c0.4-0.1,0.8-0.2,1.1-0.3
		c0.3-0.1,0.5-0.2,0.6-0.3c0.1-0.1,0.3-0.2,0.4-0.3c0.1-0.1,0.2-0.3,0.2-0.6c0.1-0.7,0.2-1.4,0.3-2.2c0.1-0.8,0.2-1.5,0.3-2.3
		c0.1-0.8,0.1-1.5,0.2-2.2c0-0.7,0-1.3,0-1.9c0-1.2-0.2-2.2-0.7-3.2c-0.4-1-1-1.9-1.8-2.6c-0.8-0.7-1.6-1.3-2.6-1.7
		c-1-0.4-2.1-0.6-3.2-0.6c-0.9,0-1.8,0.2-2.8,0.6c-1,0.4-1.8,1-2.6,1.7c-0.8,0.7-1.4,1.5-1.9,2.4c-0.5,0.9-0.8,1.8-0.8,2.8
		c0,0.4,0.1,0.8,0.4,1.1c0.2,0.3,0.5,0.5,0.8,0.8c0.3,0.2,0.5,0.5,0.8,0.8c0.2,0.3,0.4,0.7,0.4,1.2c0,1.2-0.4,2.2-1.2,2.8
		c-0.8,0.7-1.7,1-2.8,1c-0.7,0-1.3-0.1-1.8-0.4c-0.5-0.3-1-0.7-1.4-1.1c-0.4-0.5-0.7-1-0.9-1.6c-0.2-0.6-0.3-1.2-0.3-1.8
		c0-0.6,0.2-1.2,0.5-1.9c0.3-0.7,0.7-1.3,1.2-2c0.5-0.7,1-1.3,1.5-1.8c0.5-0.6,1-1,1.3-1.4c0.7-0.6,1.3-1.2,1.9-1.6
		c0.6-0.5,1.3-0.9,1.9-1.4c0.5-0.3,1-0.6,1.6-0.8c0.5-0.2,1.1-0.4,1.6-0.5c0.3-0.1,0.7-0.3,1.2-0.4c0.5-0.2,1.1-0.3,1.7-0.5
		c0.6-0.1,1.3-0.3,2-0.4c0.7-0.1,1.4-0.2,2-0.2c1.4,0,2.8,0.2,4.1,0.6c1.3,0.4,2.5,1,3.6,1.8c1.1,0.8,1.9,1.9,2.6,3.2
		c0.7,1.3,1,2.9,1,4.7c0,2-0.1,4.1-0.3,6.2c-0.2,2.1-0.4,4.1-0.7,6c-0.3,1.9-0.5,3.7-0.7,5.3c-0.2,1.6-0.3,2.9-0.3,3.9
		c0,0.5,0,1.1,0.1,1.9c0.1,0.8,0.3,1.5,0.5,2.2c0.3,0.7,0.6,1.3,1,1.8c0.4,0.5,1,0.8,1.7,0.8c0.8,0,1.6-0.2,2.4-0.6
		c0.8-0.4,1.5-0.9,2.1-1.5c0.7-0.6,1.2-1.2,1.8-2c0.5-0.7,0.9-1.4,1.3-2.1c0.1-0.1,0.1-0.2,0.2-0.4c0.1-0.1,0.2-0.2,0.3-0.2
		c0.1,0,0.2,0.1,0.2,0.3v0.4c0,1.3-0.2,2.6-0.7,3.9c-0.5,1.3-1.2,2.5-2.1,3.6c-0.9,1.1-2.1,2-3.4,2.6c-1.4,0.7-2.9,1-4.7,1
		c-0.3,0-0.7,0-1.1-0.1c-0.4,0-0.8-0.1-1.2-0.3c-0.8-0.4-1.4-0.8-1.9-1.3c-0.5-0.5-0.9-0.9-1.3-1.4c-0.4-0.5-0.7-1-1-1.6
		C316.8,481.4,316.5,480.8,316.1,480.1z M302,478.5c0,0.7,0.1,1.4,0.4,1.9c0.3,0.5,0.7,1,1.2,1.3c0.5,0.3,1,0.6,1.7,0.8
		c0.6,0.2,1.2,0.2,1.9,0.2c0.8,0,1.5-0.1,2.2-0.2c0.7-0.2,1.4-0.4,2.1-0.6c0.7-0.3,1.3-0.6,1.8-0.9c0.5-0.3,1-0.6,1.5-0.9
		c0.7-0.7,1.1-1.3,1.1-2c0-2.2,0.1-4.3,0.4-6.2c0.3-1.9,0.4-3.8,0.4-5.7c0-0.2,0-0.4-0.1-0.7c0-0.2-0.2-0.4-0.4-0.4
		c-0.3,0-0.5,0-0.8,0.1c-0.3,0.1-0.5,0.1-0.7,0.2c-1.3,0.5-2.6,1-3.8,1.6s-2.5,1.1-3.7,1.7c-0.8,0.4-1.6,1-2.2,1.8
		c-0.7,0.7-1.2,1.6-1.6,2.4s-0.8,1.8-1,2.8C302.1,476.7,302,477.6,302,478.5z"/>
	<path d="M341.7,474.1c0-4.2,0.1-8.3,0.3-12.4c0.2-4.1,0.3-8.2,0.4-12.5c-1.2,0-2.3,0.1-3.3,0.3c-1.1,0.2-2.1,0.3-3.1,0.3
		c-0.3,0-0.7,0-1-0.1c-0.3-0.1-0.5-0.3-0.5-0.6c0-0.1,0-0.2,0.1-0.3c0.1-0.1,0.2-0.2,0.3-0.3c1.5-1.4,3-2.7,4.4-4
		c1.4-1.3,2.8-2.7,4.1-4.2c0.4-0.4,0.8-0.9,1.2-1.5c0.4-0.5,0.9-1.1,1.3-1.6c0.5-0.5,0.9-1.1,1.4-1.7c0.5-0.6,1-1.1,1.4-1.6
		c0.1-0.1,0.3-0.2,0.5-0.2c0.3,0,0.4,0.2,0.5,0.5l-0.5,9.8c0,0.6,0.1,0.8,0.4,0.8l11.5-0.8c0.3,0,0.5,0.1,0.6,0.2
		c0.1,0.1,0.3,0.3,0.3,0.6c0.1,0.2,0.1,0.5,0.1,0.7c0,0.2,0,0.4,0,0.6c0,0.8-0.1,1.4-0.3,1.8c-0.2,0.4-0.8,0.6-1.7,0.6h-10.7
		c-0.2,0-0.4,0.1-0.5,0.4c-0.1,0.1-0.1,0.3-0.1,0.4v24.5c0,1,0.2,2.1,0.7,3.3c0.5,1.2,1.3,2.3,2.3,3.3c0.5,0.5,1.1,0.9,1.9,1.2
		c0.8,0.3,1.5,0.5,2.2,0.5c1.6,0,2.9-0.2,3.8-0.6c0.9-0.4,1.7-0.9,2.3-1.5c0.6-0.6,1.1-1.3,1.5-2c0.4-0.7,0.8-1.4,1.3-2.1
		c0.1-0.3,0.3-0.4,0.4-0.4c0.1,0,0.2,0.1,0.3,0.3c0,0.2,0.1,0.3,0.1,0.5c0,0.7-0.2,1.5-0.6,2.4c-0.4,0.9-1,1.9-1.7,2.8
		c-0.7,0.9-1.5,1.8-2.3,2.5c-0.9,0.8-1.7,1.3-2.5,1.6c-1.5,0.6-3.1,0.9-4.7,0.9c-1.9,0-3.6-0.4-5.1-1.2c-1.5-0.8-2.8-1.8-3.8-3
		c-1-1.2-1.8-2.5-2.4-4C342,476.9,341.7,475.5,341.7,474.1z"/>
	<path d="M369.7,485.7c0-0.1,0-0.4,0.1-0.7c0-0.3,0.2-0.5,0.6-0.5h5.2c0.3,0,0.5-0.1,0.8-0.3c0.3-0.2,0.4-0.4,0.4-0.7v-26.3
		c0-1.4,0-2.6-0.1-3.6c-0.1-1-0.4-1.8-0.8-2.4c-0.2-0.3-0.4-0.5-0.6-0.6c-0.2-0.1-0.3-0.2-0.5-0.2c-0.1-0.1-0.3-0.1-0.5-0.1
		c-0.2,0-0.3,0-0.6,0h-0.9c-0.6,0-1.3,0-2.1,0c-0.8,0-1.5,0.1-2.1,0.1c-0.1,0-0.3,0-0.4-0.1c-0.1,0-0.2-0.1-0.2-0.2
		c0-0.3,0.1-0.5,0.2-0.6c0.1-0.1,0.3-0.1,0.5-0.3c1.2-0.4,2.4-0.7,3.8-1c1.4-0.3,2.7-0.6,3.9-0.9c0.1,0,0.3-0.1,0.6-0.2
		c0.3-0.1,0.6-0.2,1-0.3c0.3-0.1,0.7-0.2,1-0.4c0.3-0.1,0.6-0.2,0.7-0.3c0.4-0.1,0.8-0.3,1.2-0.5c0.4-0.2,0.8-0.4,1.2-0.6
		c0.4-0.2,0.8-0.4,1.2-0.5c0.4-0.1,0.8-0.2,1.2-0.2c0.1,0,0.3,0.1,0.4,0.2c0.1,0.1,0.2,0.4,0.2,0.6V474c0,1.1,0,1.9-0.1,2.6
		c0,0.7-0.1,1.3-0.2,1.9c-0.1,0.6-0.1,1.2-0.2,1.7c0,0.6-0.1,1.3-0.1,2.1c0,0.9,0.1,1.4,0.3,1.7c0.2,0.3,0.8,0.4,1.7,0.4
		c0.3,0,0.8,0,1.5-0.1c0.7-0.1,1.3-0.1,1.7-0.1c0.2,0,0.5,0,0.8,0.1c0.3,0,0.5,0.1,0.8,0.2c0.3,0.1,0.5,0.3,0.6,0.5
		c0.2,0.2,0.2,0.5,0.2,0.8c0,0.2,0,0.4-0.1,0.5c-0.1,0.1-0.2,0.2-0.5,0.2c-2.2,0-4.1,0-5.8-0.1c-1.7,0-3.4-0.1-4.9-0.1
		c-2.6,0-4.8,0.1-6.4,0.4c-1.6,0.2-2.8,0.4-3.5,0.4C370.1,487.2,369.7,486.7,369.7,485.7z M375.7,427.4c0-0.8,0.1-1.5,0.4-2.1
		c0.3-0.6,0.7-1.1,1.2-1.4c0.5-0.4,1.1-0.6,1.7-0.8c0.7-0.2,1.3-0.2,2-0.2c0.7,0,1.3,0.1,1.9,0.4c0.6,0.2,1.1,0.6,1.6,1
		c0.4,0.4,0.8,0.9,1,1.5c0.3,0.6,0.4,1.2,0.4,1.8c0,0.8-0.1,1.5-0.4,2.1c-0.3,0.6-0.6,1-1.1,1.4c-0.5,0.4-1,0.6-1.7,0.8
		c-0.6,0.2-1.3,0.2-2.1,0.2c-1.5,0-2.8-0.4-3.6-1.1S375.7,429,375.7,427.4z"/>
	<path d="M412.1,486.3L399,446.8c-0.1-0.3-0.4-0.5-1.1-0.6c-0.6-0.1-1.2-0.2-1.7-0.2h-1.5c-0.2,0-0.5,0-0.8-0.1
		c-0.3,0-0.5-0.1-0.7-0.2c-0.2-0.1-0.4-0.2-0.6-0.4c-0.1-0.2-0.2-0.4-0.2-0.6c0-0.7,0.3-1,0.9-1h1.8c0.3,0,0.6,0,1,0
		c0.4,0,0.9,0.1,1.3,0.1c0.5,0,0.9,0.1,1.4,0.1s0.8,0,1.2,0c0.3,0,0.7,0,1.4,0c0.7,0,1.4-0.1,2.2-0.1c0.8,0,1.7-0.1,2.6-0.2
		c0.9-0.1,1.8-0.1,2.6-0.2c0.8,0,1.5-0.1,2-0.1s0.9,0,1,0c0.9,0,1.3,0.4,1.3,1.2c0,0.2-0.2,0.4-0.7,0.6c-0.5,0.2-1,0.3-1.6,0.4
		c-0.6,0.1-1.3,0.2-2,0.3c-0.7,0.1-1.2,0.2-1.6,0.3c-0.1,0.1-0.2,0.2-0.2,0.5c0,0.1,0,0.1,0,0.2c0,0.1,0.1,0.2,0.1,0.4l9.2,27.9
		c0.1,0.1,0.1,0.2,0.1,0.3c0,0.1,0.1,0.1,0.1,0.2c0,0.1,0.1,0.1,0.1,0.1c0.1,0,0.2-0.1,0.3-0.2c0.1-0.2,0.3-0.4,0.4-0.6
		c0.1-0.2,0.3-0.5,0.4-0.8c0.1-0.3,0.2-0.5,0.3-0.8c1.1-3.2,2.2-6.4,3.3-9.6c1.1-3.3,2.1-6.4,3.3-9.4c0.5-1.1,0.9-2.2,1.3-3.2
		c0.4-1,0.6-2.1,0.6-3.3c0-0.4,0-0.8-0.1-1.2c-0.1-0.4-0.2-0.7-0.4-0.8c-0.1-0.1-0.2-0.2-0.5-0.2c-0.3-0.1-0.6-0.1-0.9-0.2
		c-0.3,0-0.6-0.1-1-0.1c-0.3,0-0.6-0.1-0.7-0.1c-0.1,0-0.4,0-0.8,0s-0.7-0.1-1.1-0.2c-0.4-0.1-0.7-0.2-1-0.4s-0.4-0.4-0.4-0.7
		c0-0.4,0.1-0.6,0.2-0.7c0.2-0.1,0.4-0.1,0.7-0.1h0.7c0.4,0,1,0,1.8,0.1c0.8,0.1,1.6,0.1,2.5,0.2s1.8,0.1,2.8,0.2
		c0.9,0.1,1.8,0.1,2.6,0.1h2.7c0.7,0,1.5,0,2.3-0.1c0.9-0.1,1.6-0.1,2.1-0.1c0.5,0,0.9,0.1,1.2,0.2c0.3,0.1,0.4,0.5,0.4,1
		c0,0.4-0.3,0.7-0.9,0.9c-0.6,0.2-1.3,0.4-2,0.6s-1.5,0.3-2.3,0.5c-0.8,0.1-1.3,0.3-1.6,0.5c-0.7,0.4-1.3,1.1-2,1.9
		c-0.6,0.8-1.2,1.7-1.7,2.7c-0.5,0.9-1,1.9-1.4,2.8c-0.4,0.9-0.7,1.7-1,2.3c-0.6,1.5-1.2,3-1.9,4.6c-0.7,1.6-1.3,3.3-2,4.9
		c-0.7,1.7-1.4,3.3-2.1,5s-1.4,3.3-2.1,4.8c-0.1,0.2-0.3,0.7-0.6,1.5c-0.3,0.8-0.7,1.6-1,2.5s-0.7,1.8-1,2.6
		c-0.3,0.8-0.5,1.4-0.6,1.8c-0.1,0.4-0.3,0.9-0.4,1.3c-0.1,0.5-0.3,0.9-0.5,1.3c-0.2,0.4-0.3,0.7-0.5,1c-0.2,0.3-0.3,0.4-0.5,0.4
		c-0.1,0-0.3-0.1-0.4-0.3c-0.1-0.2-0.2-0.4-0.4-0.7c-0.1-0.3-0.2-0.5-0.3-0.8C412.3,486.5,412.2,486.4,412.1,486.3z"/>
	<path d="M438.5,465.8c0-3.1,0.5-6,1.6-8.5c1.1-2.5,2.5-4.6,4.4-6.4c1.9-1.7,4.1-3.1,6.7-4c2.6-0.9,5.4-1.4,8.5-1.4
		c0.7,0,1.4,0.1,2.1,0.2c0.7,0.1,1.5,0.3,2.2,0.6c0.8,0.3,1.5,0.5,2.2,0.9c0.7,0.3,1.4,0.7,2,1c3.5,2,6.2,4.5,7.9,7.6
		c1.7,3.1,2.6,6.7,2.6,10.7c0,2.7-0.5,5.3-1.4,7.8c-0.9,2.5-2.3,4.7-4.2,6.7c-1.9,2-4.1,3.4-6.5,4.3s-5,1.3-7.6,1.3
		c-2,0-3.9-0.2-5.8-0.5s-3.8-1.2-5.6-2.5c-3.1-2.3-5.4-4.8-6.9-7.7C439.3,472.9,438.5,469.5,438.5,465.8z M446.1,466
		c0,1.2,0.1,2.5,0.3,3.8c0.2,1.4,0.5,2.7,1,4.1c0.4,1.4,1,2.7,1.6,4c0.7,1.3,1.5,2.4,2.4,3.4c0.9,1,2,1.8,3.2,2.4
		c1.2,0.6,2.6,0.9,4,0.9c0.9,0,1.8-0.1,2.5-0.3s1.4-0.5,1.9-0.8c0.6-0.4,1.1-0.8,1.6-1.3c0.5-0.5,1-1,1.4-1.6
		c0.8-1.1,1.5-2.2,2.1-3.5c0.6-1.3,1.1-2.6,1.5-3.9c0.4-1.3,0.7-2.7,0.8-4s0.2-2.6,0.2-3.8c0-1.1-0.1-2.4-0.4-3.8
		c-0.2-1.4-0.6-2.8-1.1-4.2c-0.5-1.4-1.2-2.8-2-4.1c-0.8-1.3-1.8-2.5-2.9-3.6c-0.9-0.8-1.8-1.4-2.8-1.8c-1-0.4-1.8-0.6-2.4-0.6
		c-1.4,0-2.6,0.1-3.6,0.4c-1,0.3-2,0.7-2.8,1.3c-0.8,0.6-1.5,1.3-2.2,2.1c-0.7,0.9-1.3,1.9-2,3c-1.2,2-1.9,3.9-2.1,5.8
		C446.3,462,446.1,464,446.1,466z"/>
	<path d="M513.7,482.8v-31.1c0-0.9,0-2.2,0.1-3.8c0.1-1.6,0.1-3.4,0.2-5.2c0.1-1.9,0.2-3.8,0.2-5.7c0.1-1.9,0.1-3.7,0.1-5.2
		c0-2.1-0.1-3.6-0.3-4.5c-0.1-0.6-0.3-1-0.7-1.4c-0.4-0.3-0.9-0.6-1.5-0.8c-0.6-0.2-1.2-0.3-2-0.4s-1.4-0.1-2.1-0.2
		c-0.7-0.1-1.3-0.1-1.9-0.2c-0.6-0.1-1-0.2-1.4-0.4c-0.4-0.2-0.6-0.5-0.6-0.8c0-0.2,0-0.4,0.1-0.5c0-0.1,0.1-0.2,0.2-0.2
		c0.4-0.1,0.7-0.2,1-0.2c0.3,0,0.6-0.1,0.9-0.1h1.7c1.3,0,2.5,0,3.4,0.1c1,0,1.9,0.1,2.7,0.2c0.8,0.1,1.6,0.1,2.4,0.2
		c0.8,0,1.7,0.1,2.7,0.1c1.1,0,2.1-0.1,3-0.2c0.9-0.1,1.8-0.3,2.7-0.4c0.8-0.1,1.7-0.3,2.4-0.4c0.8-0.1,1.6-0.2,2.4-0.2h1.6
		c0.3,0,0.7,0,1.1,0.1c0.4,0.1,0.6,0.3,0.6,0.7c0,0.5-0.3,0.9-1,1.1c-0.5,0.1-1.1,0.3-1.8,0.4c-0.7,0.1-1.4,0.3-2.2,0.6
		c-0.8,0.2-1.4,0.4-1.9,0.6c-0.5,0.2-0.9,0.4-1.1,0.5c-0.3,0.2-0.6,0.5-0.9,0.8c-0.3,0.3-0.4,0.8-0.4,1.4v53.6
		c0,0.7,0.2,1.2,0.5,1.5s0.8,0.6,1.4,0.8c0.5,0.2,1.1,0.3,1.8,0.3c0.6,0,1.2,0,1.8,0c0.7,0,1.6,0,2.8-0.1s2.4-0.1,3.7-0.3
		c1.3-0.1,2.6-0.3,3.8-0.5c1.2-0.2,2.2-0.4,3-0.7c1-0.4,2-0.7,2.9-1.1c0.9-0.4,1.6-0.8,2.2-1.4c0.1-0.1,0.2-0.2,0.4-0.4
		c0.2-0.2,0.4-0.4,0.7-0.7s0.5-0.6,0.7-0.9c0.2-0.3,0.4-0.7,0.6-1c0.2-0.2,0.3-0.4,0.5-0.6c0.1-0.2,0.3-0.3,0.4-0.4
		c0.1-0.1,0.3-0.4,0.4-0.8s0.4-0.8,0.6-1.2c0.2-0.4,0.5-0.9,0.7-1.4c0.2-0.5,0.5-0.9,0.7-1.3c0.2-0.3,0.4-0.5,0.6-0.7
		s0.5-0.3,0.8-0.3s0.5,0.2,0.6,0.6c0,0.4,0.1,0.7,0.1,1.1c0,0.7-0.1,1.4-0.2,2.2s-0.3,1.4-0.6,2.2s-0.4,1.4-0.7,2.1
		c-0.2,0.7-0.4,1.4-0.5,2.1c-0.1,0.7-0.2,1.4-0.3,2.1c0,0.7-0.1,1.4-0.2,2c-0.1,0.6-0.3,1.1-0.6,1.5s-0.7,0.6-1.4,0.6h-30.4
		c-1.8,0-3.4,0-4.6,0.1c-1.2,0.1-2.3,0.2-3.4,0.3c-1,0.1-2,0.2-3,0.3c-1,0.1-2.2,0.1-3.5,0.1c-0.5,0-0.9,0-1.3-0.1s-0.6-0.3-0.8-0.7
		c0-0.1-0.1-0.2-0.1-0.3c0-0.1,0-0.3,0-0.6c0-0.4,0.2-0.7,0.5-0.8s0.6-0.3,0.8-0.3c0.3-0.1,0.8-0.1,1.5-0.1c0.7,0,1.2-0.1,1.8-0.1
		c0.3,0,0.6-0.1,1-0.1c0.4-0.1,0.9-0.1,1.4-0.3c0.5-0.1,1-0.3,1.5-0.4S513.3,483.1,513.7,482.8z"/>
	<path d="M598.8,458.1h-30.7c-0.3,0.1-0.5,0.2-0.6,0.4c-0.1,0.1-0.1,0.4-0.2,0.8c-0.1,0.3-0.1,0.8-0.2,1.7c0,0.9-0.1,1.9-0.1,3
		s0.1,2.2,0.4,3.2c0.3,1,0.6,2.1,0.9,3.1c1.2,3.7,3.2,6.5,5.8,8.4c2.7,1.9,6.1,2.9,10.5,2.9c0.7,0,1.4-0.1,2.1-0.4
		c0.8-0.2,1.5-0.5,2.3-0.9c0.8-0.4,1.5-0.8,2.2-1.3c0.7-0.5,1.3-1,1.9-1.6c0.4-0.4,0.7-0.8,1-1.2s0.6-1,1-1.7
		c0.1-0.1,0.3-0.2,0.5-0.3c0.2-0.1,0.4-0.1,0.5-0.1c0.5,0,0.9,0.2,1.1,0.5c0.2,0.3,0.3,0.8,0.3,1.3c0,0.1-0.1,0.3-0.2,0.6
		s-0.2,0.5-0.4,0.8c-0.1,0.3-0.3,0.5-0.4,0.8c-0.2,0.3-0.3,0.4-0.4,0.6c-1.1,1.7-2.5,3.2-4.3,4.5c-1.7,1.3-3.8,2.3-6.2,3.1
		c-0.5,0.1-1.4,0.3-2.7,0.4c-1.3,0.1-2.7,0.2-4.2,0.2c-1.3,0-2.7-0.2-4.1-0.5s-2.8-0.9-4.1-1.5c-1.3-0.7-2.6-1.4-3.7-2.3
		c-1.1-0.9-2.1-1.8-2.8-2.8c-1.6-2.2-2.8-4.4-3.5-6.7c-0.8-2.3-1.1-4.8-1.1-7.6c0-1,0.1-2,0.2-2.9c0.1-0.9,0.3-1.8,0.5-2.6
		c0.3-0.9,0.6-1.7,1-2.6c0.4-0.8,0.9-1.7,1.4-2.6c1-1.6,2.1-3.1,3.3-4.5c1.2-1.4,2.6-2.5,4.1-3.5s3.1-1.7,4.9-2.3
		c1.7-0.5,3.6-0.8,5.6-0.8c1.7,0,3.4,0.2,5.3,0.5c1.8,0.3,3.6,1.1,5.3,2.2c0.5,0.4,1.3,1,2.2,1.8c0.9,0.8,1.9,1.7,2.8,2.7
		c0.9,1,1.7,2,2.4,3.1c0.7,1.1,1,2.1,1,3.2c0,0.3-0.1,0.5-0.2,0.7C599.2,458,599,458.1,598.8,458.1z M569.2,455.7H589
		c0.5,0,0.8-0.1,0.9-0.2c0.1-0.1,0.2-0.3,0.2-0.4c0-0.7-0.2-1.4-0.5-2.1c-0.3-0.7-0.8-1.4-1.2-2.1c-0.5-0.7-1-1.3-1.5-1.8
		c-0.5-0.5-0.9-0.9-1.3-1.2c-0.9-0.8-1.9-1.3-2.8-1.6c-0.9-0.2-2-0.4-3.2-0.4c-0.5,0-1,0-1.4,0c-0.4,0-0.9,0.1-1.3,0.1
		c-0.4,0.1-0.8,0.1-1.2,0.3c-0.4,0.1-0.9,0.3-1.4,0.5c-0.6,0.3-1.2,0.7-1.8,1.3c-0.7,0.6-1.3,1.2-1.9,2c-0.6,0.8-1.1,1.6-1.5,2.5
		c-0.4,0.9-0.6,1.8-0.6,2.6C568.4,455.5,568.7,455.7,569.2,455.7z"/>
	<path d="M622.8,442.5c0.6,0,1.3,0.1,2.2,0.2c0.9,0.1,1.8,0.3,2.7,0.6c0.9,0.2,1.8,0.5,2.6,0.8s1.5,0.7,2,1.1
		c0.4,0.3,0.8,0.7,1.2,1.1c0.4,0.4,0.8,0.9,1.2,1.3c0.4,0.4,0.7,0.8,1,1.1c0.3,0.3,0.6,0.4,0.8,0.4c0.4,0,0.6-0.1,0.9-0.2
		c0.2-0.2,0.4-0.4,0.6-0.6s0.3-0.5,0.5-0.8c0.2-0.3,0.4-0.5,0.6-0.7c0.4-0.4,0.8-0.8,1.4-1.1s1.1-0.7,1.6-1s1.1-0.5,1.7-0.7
		c0.6-0.2,1.1-0.2,1.6-0.2c0.6,0,1.2,0.1,1.8,0.2c0.6,0.1,1.2,0.3,1.8,0.6c0.7,0.4,1.2,0.9,1.5,1.4c0.3,0.5,0.4,1.2,0.4,2
		c0,0.5,0,1.1-0.1,1.6c0,0.5-0.1,1-0.3,1.5c-0.2,0.6-0.6,1.1-1.1,1.6c-0.5,0.5-1,0.7-1.6,0.7c-0.4,0-0.8-0.1-1.3-0.3
		s-0.9-0.4-1.2-0.7c-0.4-0.3-0.7-0.7-0.9-1.1c-0.2-0.4-0.4-0.9-0.4-1.3c0-0.2,0-0.5,0.1-0.6c0.1-0.2,0.1-0.5,0.1-0.8
		c0-0.3-0.2-0.5-0.5-0.8c-0.3-0.2-0.7-0.3-1.2-0.3c-0.6,0-1.2,0.1-1.8,0.2c-0.6,0.1-1.1,0.3-1.6,0.6c-0.5,0.3-0.9,0.7-1.1,1.1
		c-0.3,0.5-0.4,1-0.4,1.7c0,0.9,0.1,1.8,0.3,2.6c0.2,0.8,0.3,1.6,0.3,2.5c0,0.6,0,1.2,0,1.7c0,0.6-0.1,1.1-0.3,1.6
		c-0.6,2.7-1.6,4.9-2.8,6.4c-1.3,1.5-2.8,2.7-4.6,3.5c-1.8,0.8-3.9,1.3-6.2,1.4c-2.3,0.2-4.7,0.3-7.3,0.3c-0.7,0.1-1.4,0.3-2.2,0.5
		c-0.8,0.2-1.6,0.5-2.3,0.9c-0.7,0.4-1.3,0.9-1.7,1.4c-0.5,0.6-0.7,1.3-0.7,2.2c0,0.4,0.1,0.7,0.4,1.1c0.3,0.4,0.5,0.7,0.9,1.1
		c0.3,0.3,0.7,0.7,1.1,0.9c0.4,0.3,0.7,0.5,1,0.6c1.7,0,3.2,0,4.5-0.1s2.6-0.1,3.8-0.2c1.2-0.1,2.3-0.2,3.4-0.2
		c1.1-0.1,2.3-0.1,3.6-0.1c1.7,0,3.5,0.3,5.2,0.8s3.3,1.3,4.8,2.3c1.4,1,2.6,2.3,3.4,3.8c0.9,1.5,1.3,3.2,1.3,5.2
		c0,2.8-0.5,5.1-1.6,7c-1.1,1.9-2.5,3.5-4.4,4.6s-3.9,2-6.2,2.5c-2.3,0.5-4.7,0.8-7.1,0.8c-0.6,0-1.4,0-2.4-0.1c-1-0.1-2-0.1-3-0.3
		c-1-0.1-2-0.3-2.9-0.4c-0.9-0.2-1.7-0.3-2.2-0.5c-0.9-0.3-1.8-0.7-2.8-1.3c-1-0.6-1.9-1.3-2.6-2c-1-0.9-1.7-2-2.2-3.1
		c-0.4-1.1-0.7-2.3-0.7-3.4c0-0.4,0.1-0.9,0.2-1.5c0.1-0.6,0.3-1.1,0.6-1.7c0.3-0.6,0.7-1.1,1.1-1.6c0.5-0.5,1.1-1,1.7-1.4
		c0.8-0.5,1.4-0.8,1.9-1c0.5-0.2,0.9-0.5,1.3-1c-0.2-0.1-0.4-0.2-0.8-0.3c-0.3-0.1-0.7-0.3-1.1-0.5c-0.4-0.2-0.8-0.4-1.3-0.7
		c-0.4-0.3-0.9-0.6-1.2-1c-0.7-0.7-1.2-1.6-1.6-2.6c-0.4-1.1-0.6-2.1-0.6-3.2c0-0.5,0.1-1.1,0.2-1.6c0.1-0.6,0.3-1.1,0.6-1.6
		c0.2-0.5,0.5-1,0.8-1.4c0.3-0.4,0.7-0.8,1.1-1.1c0.6-0.5,1.3-1,2.1-1.3c0.8-0.3,1.7-0.7,2.8-1.1c0.1,0,0.2-0.1,0.3-0.4
		c-0.3-0.2-0.6-0.4-0.8-0.6c-0.2-0.2-0.4-0.3-0.5-0.5c-0.7-0.7-1.3-1.5-2-2.4c-0.6-0.9-1.2-1.8-1.6-2.7c-0.5-0.9-0.9-1.9-1.1-2.9
		c-0.3-1-0.4-2-0.4-3c0-5.2,2.1-9.4,6.2-12.5c0.5-0.3,0.9-0.6,1.3-0.8c0.4-0.2,0.9-0.5,1.6-0.8c0.9-0.5,2-0.8,3.1-1
		C620.6,442.6,621.7,442.5,622.8,442.5z M625.6,504.3c1.7,0,3.3-0.2,4.7-0.6c1.5-0.4,2.7-1,3.8-1.8c1.1-0.8,1.9-1.9,2.5-3.3
		c0.6-1.3,0.9-3,0.9-4.9c0-0.7-0.1-1.4-0.4-2c-0.3-0.6-0.6-1.2-1-1.7c-0.4-0.5-0.9-1-1.4-1.4c-0.5-0.4-1-0.8-1.5-1.1
		c-0.4-0.2-0.9-0.4-1.4-0.6c-0.5-0.1-1.1-0.3-1.6-0.3c-0.5-0.1-1.1-0.1-1.7-0.1c-0.6,0-1.1,0-1.6,0c-0.5,0-1.2,0-2.2,0
		c-1,0-2,0.1-3.2,0.2c-1.2,0.1-2.4,0.3-3.6,0.5c-1.2,0.2-2.3,0.5-3.4,0.9c-1,0.4-1.8,0.9-2.5,1.5c-0.6,0.6-1,1.4-1,2.2
		c0,1,0.2,2,0.6,3.2s1,2.2,1.7,3.3s1.5,2,2.4,2.9c0.9,0.9,1.8,1.5,2.7,1.9c1.2,0.5,2.3,0.9,3.3,1.1
		C623.1,504.2,624.3,504.3,625.6,504.3z M614.3,455.6c0,0.8,0.1,1.6,0.2,2.6c0.1,1,0.3,1.9,0.6,3c0.3,1,0.6,2,1.1,2.9
		c0.4,0.9,1,1.8,1.6,2.5c0.6,0.7,1.3,1.3,2.1,1.8s1.7,0.7,2.7,0.7c1.1,0,2.1-0.1,2.9-0.2c0.8-0.2,1.5-0.4,2-0.8
		c0.6-0.4,1-0.9,1.4-1.6c0.4-0.7,0.7-1.5,1-2.5c0.4-1,0.6-2,0.7-2.9c0.1-0.9,0.2-2,0.2-3.1c0-1.5-0.2-3-0.5-4.6
		c-0.3-1.6-0.8-3.1-1.6-4.4s-1.7-2.4-2.9-3.3c-1.2-0.9-2.7-1.3-4.5-1.3c-1.3,0-2.4,0.4-3.3,1.2c-0.9,0.8-1.7,1.8-2.2,2.9
		s-1,2.4-1.2,3.7C614.4,453.4,614.3,454.6,614.3,455.6z"/>
	<path d="M674.3,480.1l-0.2,0.2c0,0-0.3,0.2-0.7,0.6s-1,0.9-1.5,1.4s-1.1,1-1.6,1.4c-0.5,0.4-0.8,0.7-0.9,0.7c-0.9,0.5-2,1-3.2,1.5
		c-1.2,0.5-2.6,0.7-4.1,0.7c-1.1,0-2.1-0.1-3.2-0.4c-1.1-0.3-2-0.8-2.8-1.5c-0.8-0.7-1.5-1.7-2-2.9c-0.5-1.2-0.8-2.8-0.8-4.6
		c0-0.7,0.2-1.5,0.5-2.6c0.3-1.1,0.9-2,1.7-2.9c0.8-1,1.7-1.8,2.7-2.5c1-0.7,2.1-1.3,3.3-1.8c1.2-0.5,2.5-1,4-1.4
		c1.5-0.4,3.1-0.8,4.8-1.3c0.4-0.1,0.9-0.2,1.3-0.3c0.5-0.1,0.9-0.2,1.4-0.4s0.8-0.2,1.1-0.3c0.3-0.1,0.5-0.2,0.6-0.3
		c0.1-0.1,0.3-0.2,0.4-0.3c0.1-0.1,0.2-0.3,0.2-0.6c0.1-0.7,0.2-1.4,0.3-2.2c0.1-0.8,0.2-1.5,0.3-2.3c0.1-0.8,0.1-1.5,0.2-2.2
		c0-0.7,0-1.3,0-1.9c0-1.2-0.2-2.2-0.7-3.2c-0.4-1-1-1.9-1.8-2.6c-0.8-0.7-1.6-1.3-2.6-1.7c-1-0.4-2.1-0.6-3.2-0.6
		c-0.9,0-1.8,0.2-2.8,0.6c-1,0.4-1.8,1-2.6,1.7c-0.8,0.7-1.4,1.5-1.9,2.4s-0.8,1.8-0.8,2.8c0,0.4,0.1,0.8,0.4,1.1
		c0.2,0.3,0.5,0.5,0.8,0.8c0.3,0.2,0.5,0.5,0.8,0.8c0.2,0.3,0.4,0.7,0.4,1.2c0,1.2-0.4,2.2-1.2,2.8c-0.8,0.7-1.7,1-2.8,1
		c-0.7,0-1.3-0.1-1.8-0.4s-1-0.7-1.4-1.1c-0.4-0.5-0.7-1-0.9-1.6c-0.2-0.6-0.3-1.2-0.3-1.8c0-0.6,0.2-1.2,0.5-1.9
		c0.3-0.7,0.7-1.3,1.2-2c0.5-0.7,1-1.3,1.5-1.8c0.5-0.6,1-1,1.3-1.4c0.7-0.6,1.3-1.2,1.9-1.6c0.6-0.5,1.3-0.9,1.9-1.4
		c0.5-0.3,1-0.6,1.6-0.8c0.5-0.2,1.1-0.4,1.6-0.5c0.3-0.1,0.7-0.3,1.2-0.4c0.5-0.2,1.1-0.3,1.7-0.5c0.6-0.1,1.3-0.3,2-0.4
		s1.4-0.2,2-0.2c1.4,0,2.8,0.2,4.1,0.6c1.3,0.4,2.5,1,3.6,1.8c1.1,0.8,1.9,1.9,2.6,3.2c0.7,1.3,1,2.9,1,4.7c0,2-0.1,4.1-0.3,6.2
		c-0.2,2.1-0.4,4.1-0.7,6s-0.5,3.7-0.7,5.3c-0.2,1.6-0.3,2.9-0.3,3.9c0,0.5,0,1.1,0.1,1.9c0.1,0.8,0.3,1.5,0.5,2.2s0.6,1.3,1,1.8
		c0.4,0.5,1,0.8,1.7,0.8c0.8,0,1.6-0.2,2.4-0.6c0.8-0.4,1.5-0.9,2.1-1.5c0.7-0.6,1.2-1.2,1.8-2s0.9-1.4,1.3-2.1
		c0.1-0.1,0.1-0.2,0.2-0.4c0.1-0.1,0.2-0.2,0.3-0.2c0.1,0,0.2,0.1,0.2,0.3v0.4c0,1.3-0.2,2.6-0.7,3.9c-0.5,1.3-1.2,2.5-2.1,3.6
		c-0.9,1.1-2.1,2-3.4,2.6c-1.4,0.7-2.9,1-4.7,1c-0.3,0-0.7,0-1.1-0.1c-0.4,0-0.8-0.1-1.2-0.3c-0.8-0.4-1.4-0.8-1.9-1.3
		c-0.5-0.5-0.9-0.9-1.3-1.4c-0.4-0.5-0.7-1-1-1.6C675,481.4,674.6,480.8,674.3,480.1z M660.2,478.5c0,0.7,0.1,1.4,0.4,1.9
		c0.3,0.5,0.7,1,1.2,1.3c0.5,0.3,1,0.6,1.7,0.8c0.6,0.2,1.2,0.2,1.9,0.2c0.8,0,1.5-0.1,2.2-0.2c0.7-0.2,1.4-0.4,2.1-0.6
		c0.7-0.3,1.3-0.6,1.8-0.9c0.5-0.3,1-0.6,1.5-0.9c0.7-0.7,1.1-1.3,1.1-2c0-2.2,0.1-4.3,0.4-6.2s0.4-3.8,0.4-5.7c0-0.2,0-0.4-0.1-0.7
		c0-0.2-0.2-0.4-0.4-0.4c-0.3,0-0.5,0-0.8,0.1c-0.3,0.1-0.5,0.1-0.7,0.2c-1.3,0.5-2.6,1-3.8,1.6s-2.5,1.1-3.7,1.7
		c-0.8,0.4-1.6,1-2.2,1.8c-0.7,0.7-1.2,1.6-1.6,2.4c-0.4,0.9-0.8,1.8-1,2.8C660.3,476.7,660.2,477.6,660.2,478.5z"/>
	<path d="M695.7,480.1c0-0.8,0.2-1.6,0.6-2.4s0.6-1.5,0.8-2.2c0-0.1,0-0.4,0.1-0.7c0.1-0.4,0.2-0.8,0.3-1.2c0.1-0.4,0.2-0.8,0.3-1.2
		c0.1-0.4,0.1-0.6,0.2-0.8c0.1-0.4,0.3-0.6,0.6-0.6c0.5,0,0.7,0.3,0.8,0.8c0.1,0.4,0.1,0.8,0.1,1.2c0,0.4,0,0.8,0.1,1.3
		c0.3,1.4,0.6,2.7,1.1,3.9c0.5,1.2,1.1,2.3,1.9,3.3c0.8,0.9,1.7,1.7,2.8,2.2c1.1,0.5,2.4,0.8,3.9,0.8c1.1,0,2.1-0.2,3.2-0.5
		c1-0.3,1.9-0.8,2.7-1.4c0.8-0.6,1.4-1.4,1.9-2.3c0.5-0.9,0.7-2,0.7-3.1c0-1.8-0.3-3.3-1-4.4c-0.6-1.2-1.5-2.1-2.5-2.9
		c-1-0.8-2.2-1.4-3.5-1.9c-1.3-0.5-2.7-1-4-1.4c-1.4-0.5-2.7-1-4-1.5s-2.5-1.3-3.5-2.2c-1-0.9-1.9-2-2.5-3.4c-0.6-1.4-1-3.1-1-5.2
		c0-1.3,0.2-2.4,0.7-3.3c0.4-0.9,0.8-1.7,1.2-2.2c0.4-0.7,1-1.4,1.7-2.1c0.7-0.7,1.5-1.3,2.4-1.9c0.9-0.5,1.9-1,3-1.4
		c1.1-0.4,2.3-0.5,3.6-0.5c1.2,0,2.4,0.2,3.8,0.7s2.5,1.1,3.5,1.9c0.3,0.3,0.7,0.6,1,0.9c0.3,0.3,0.7,0.5,1,0.5c0.4,0,0.8-0.1,1-0.4
		c0.3-0.3,0.5-0.7,0.8-1.1c0.1-0.1,0.1-0.1,0.2-0.1c0.1,0,0.1,0,0.2,0c0.1,0,0.2,0.1,0.2,0.2c0,0.2,0.1,0.3,0.1,0.5
		c0,0.2,0.1,0.4,0.1,0.6c0,0.2,0,0.3,0,0.4c0,0.1,0,0.4-0.1,0.9c-0.1,0.5-0.2,1.1-0.3,1.8c-0.1,0.7-0.3,1.4-0.4,2.2
		c-0.2,0.8-0.3,1.5-0.5,2.2c-0.2,0.7-0.4,1.2-0.6,1.7c-0.2,0.4-0.4,0.7-0.6,0.7c-0.1,0-0.1,0-0.2,0c-0.1-0.1-0.2-0.1-0.2-0.2
		c-0.2-0.4-0.4-0.8-0.5-1.1c-0.1-0.3-0.2-0.6-0.2-0.8c0-0.3-0.1-0.5-0.1-0.8c0-0.3-0.1-0.6-0.2-1c-0.1-0.2-0.1-0.5-0.2-0.7
		c-0.1-0.2-0.1-0.4-0.2-0.6c-0.4-1-0.8-1.8-1.2-2.4c-0.4-0.6-1-1.3-1.7-1.9c-0.5-0.5-1-0.9-1.4-1.2c-0.4-0.3-0.8-0.5-1.3-0.6
		c-0.4-0.1-1-0.2-1.6-0.2c-0.6,0-1.3,0-2.2,0c-0.8,0-1.6,0.2-2.3,0.6s-1.3,0.9-1.8,1.5s-0.9,1.3-1.2,2.2c-0.3,0.8-0.4,1.7-0.4,2.6
		c0,1.5,0.3,2.7,1,3.6c0.6,0.9,1.5,1.7,2.5,2.4s2.2,1.2,3.6,1.6c1.3,0.4,2.7,0.9,4.1,1.4c1.4,0.5,2.7,1,4.1,1.7
		c1.3,0.6,2.5,1.5,3.6,2.5c1.1,1,1.9,2.3,2.5,3.8c0.6,1.5,1,3.4,1,5.7c0,1.5-0.4,3-1.2,4.5c-0.8,1.5-1.7,2.9-2.8,4.2
		c-0.5,0.6-1.2,1.1-2,1.6c-0.8,0.5-1.8,0.9-2.8,1.3c-1,0.4-2.1,0.6-3.2,0.8c-1.1,0.2-2.2,0.3-3.3,0.3s-2.3-0.2-3.7-0.7
		c-1.4-0.5-2.7-1.1-4-1.8s-2.3-1.5-3.2-2.2C696.1,481.4,695.7,480.7,695.7,480.1z"/>
	<path d="M724.3,450c0-0.4,0.3-0.7,0.8-0.9c2.5-0.6,5.1-1.4,7.6-2.4c2.5-1,4.9-2.1,7.2-3.4c0.1-0.1,0.3-0.1,0.4-0.2
		c0.1,0,0.3,0,0.4,0c0.2,0,0.3,0.1,0.3,0.2v5.2c0,0.4,0.1,0.5,0.2,0.5c1.6-2,3.5-3.3,5.7-4.2c2.2-0.8,4.6-1.2,7.1-1.2
		c2,0,3.8,0.3,5.4,0.9c1.6,0.6,3.1,1.4,4.5,2.5c1.4,1.1,2.6,2.3,3.7,3.8c1.1,1.5,2,3.1,2.9,4.8c0.6,1.3,1,2.7,1.2,4.2
		c0.2,1.5,0.3,2.9,0.3,4.4c0,3.1-0.5,5.9-1.6,8.4c-1.1,2.5-2.5,4.6-4.4,6.4s-4.1,3.1-6.6,4c-2.5,0.9-5.3,1.4-8.3,1.4
		c-0.5,0-1-0.1-1.6-0.2c-0.6-0.1-1.2-0.2-1.8-0.4s-1.3-0.3-1.9-0.6c-0.7-0.2-1.3-0.4-1.8-0.6c-0.4-0.1-0.8-0.2-1-0.2
		c-0.4,0-0.6,0.2-0.6,0.6v20.7c0,0.5,0.3,0.7,0.8,0.7c0.7,0,1.5-0.1,2.3-0.2s1.5-0.2,2.2-0.2c0.3,0,0.6,0.1,0.9,0.3
		c0.3,0.2,0.5,0.5,0.5,0.7c0,0.4-0.2,0.7-0.6,0.9s-0.8,0.3-1.1,0.3h-9.4c-0.3,0-0.9,0-1.7,0c-0.9,0-1.8,0.1-2.7,0.1
		c-1,0-1.9,0.1-2.7,0.1c-0.8,0-1.4,0-1.6,0c-0.1,0-0.3,0-0.6,0c-0.3,0-0.5-0.1-0.7-0.2c-0.2-0.1-0.4-0.2-0.6-0.3
		c-0.2-0.1-0.2-0.3-0.2-0.4c0-0.7,0.4-1,1.1-1h4.4c0.6,0,1.1-0.1,1.4-0.2c0.4-0.1,0.6-0.5,0.6-1.2v-47.3c0-0.3,0-0.6,0-0.9
		c0-0.3-0.1-0.5-0.1-0.8c-0.1-0.9-0.3-1.6-0.5-2.2c-0.2-0.6-0.5-1.2-0.9-1.6c-0.4-0.4-0.9-0.8-1.5-1c-0.6-0.2-1.4-0.3-2.3-0.3
		c-0.7,0-1.3,0.1-2,0.4c-0.6,0.3-1.3,0.4-2,0.4C724.5,450.2,724.3,450.1,724.3,450z M763.9,466c0-1.5-0.1-3-0.4-4.6
		c-0.3-1.6-0.6-3.1-1.2-4.5c-0.5-1.5-1.2-2.9-2-4.2c-0.8-1.3-1.8-2.4-2.9-3.4c-1.1-1-2.4-1.7-3.8-2.3c-1.4-0.6-3-0.8-4.8-0.8
		c-1.1,0-2.1,0.2-3,0.5c-0.9,0.4-1.7,0.8-2.3,1.5c-0.6,0.6-1.1,1.4-1.5,2.2s-0.5,1.8-0.5,2.9c0,0.2,0,0.4,0,0.6c0,0.2,0,0.6,0.1,1.2
		c0,0.5,0.1,1.3,0.2,2.2c0.1,1,0.1,2.3,0.2,3.9c0.1,1.6,0.2,3.7,0.3,6.2c0.1,2.5,0.2,5.5,0.3,9c0,0.4,0.2,0.7,0.5,1.2
		c0.3,0.4,0.7,0.7,1,0.9c0.8,0.7,1.5,1.2,2.2,1.8c0.7,0.5,1.4,1,2.1,1.3s1.4,0.6,2.2,0.8c0.8,0.2,1.6,0.3,2.5,0.3
		c1.4,0,2.7-0.3,3.8-1c1.1-0.6,2.1-1.5,2.9-2.4c0.8-1,1.5-2.1,2.1-3.3c0.6-1.2,1-2.4,1.4-3.6c0.2-0.7,0.4-1.3,0.5-1.8
		c0.1-0.5,0.2-1.1,0.2-1.6c0-0.5,0-1,0-1.5S763.8,466.5,763.9,466z"/>
	<path d="M777.9,485.7c0-0.1,0-0.4,0.1-0.7c0-0.3,0.2-0.5,0.6-0.5h5.2c0.3,0,0.5-0.1,0.8-0.3s0.4-0.4,0.4-0.7v-26.3
		c0-1.4,0-2.6-0.1-3.6c-0.1-1-0.4-1.8-0.8-2.4c-0.2-0.3-0.4-0.5-0.6-0.6s-0.3-0.2-0.5-0.2c-0.1-0.1-0.3-0.1-0.5-0.1
		c-0.2,0-0.3,0-0.6,0H781c-0.6,0-1.3,0-2.1,0c-0.8,0-1.5,0.1-2.1,0.1c-0.1,0-0.3,0-0.4-0.1c-0.1,0-0.2-0.1-0.2-0.2
		c0-0.3,0.1-0.5,0.2-0.6c0.1-0.1,0.3-0.1,0.5-0.3c1.2-0.4,2.4-0.7,3.8-1s2.7-0.6,3.9-0.9c0.1,0,0.3-0.1,0.6-0.2
		c0.3-0.1,0.6-0.2,1-0.3c0.3-0.1,0.7-0.2,1-0.4c0.3-0.1,0.6-0.2,0.7-0.3c0.4-0.1,0.8-0.3,1.2-0.5c0.4-0.2,0.8-0.4,1.2-0.6
		c0.4-0.2,0.8-0.4,1.2-0.5c0.4-0.1,0.8-0.2,1.2-0.2c0.1,0,0.3,0.1,0.4,0.2c0.1,0.1,0.2,0.4,0.2,0.6V474c0,1.1,0,1.9-0.1,2.6
		c0,0.7-0.1,1.3-0.2,1.9c-0.1,0.6-0.1,1.2-0.2,1.7c0,0.6-0.1,1.3-0.1,2.1c0,0.9,0.1,1.4,0.3,1.7c0.2,0.3,0.8,0.4,1.7,0.4
		c0.3,0,0.8,0,1.5-0.1c0.7-0.1,1.3-0.1,1.7-0.1c0.2,0,0.5,0,0.8,0.1c0.3,0,0.5,0.1,0.8,0.2s0.5,0.3,0.6,0.5c0.2,0.2,0.2,0.5,0.2,0.8
		c0,0.2,0,0.4-0.1,0.5c-0.1,0.1-0.2,0.2-0.5,0.2c-2.2,0-4.1,0-5.8-0.1c-1.7,0-3.4-0.1-4.9-0.1c-2.6,0-4.8,0.1-6.4,0.4
		c-1.6,0.2-2.8,0.4-3.5,0.4C778.4,487.2,777.9,486.7,777.9,485.7z M784,427.4c0-0.8,0.1-1.5,0.4-2.1c0.3-0.6,0.7-1.1,1.2-1.4
		c0.5-0.4,1.1-0.6,1.7-0.8c0.7-0.2,1.3-0.2,2-0.2c0.7,0,1.3,0.1,1.9,0.4c0.6,0.2,1.1,0.6,1.6,1c0.4,0.4,0.8,0.9,1,1.5
		c0.3,0.6,0.4,1.2,0.4,1.8c0,0.8-0.1,1.5-0.4,2.1c-0.3,0.6-0.6,1-1.1,1.4s-1,0.6-1.7,0.8s-1.3,0.2-2.1,0.2c-1.5,0-2.8-0.4-3.6-1.1
		S784,429,784,427.4z"/>
</g>
<g>
	<path d="M615.6,535.8c1.5,0.9,2.7,2.2,3.5,3.9c0.9,1.7,1.3,3.7,1.3,5.9c0,2.3-0.4,4.2-1.3,5.9c-0.9,1.7-2,3-3.5,3.8
		c-1.5,0.9-3.2,1.3-5.1,1.3c-2.1,0-3.9-0.5-5.3-1.6c-1.5-1.1-2.5-2.5-3-4.2v5.5h-3.6v-29.2h3.6v13.1c0.6-1.7,1.6-3.1,3-4.2
		c1.5-1.1,3.2-1.6,5.3-1.6C612.4,534.4,614.1,534.9,615.6,535.8z M605.7,538.6c-1.1,0.6-2,1.6-2.6,2.8c-0.6,1.2-0.9,2.6-0.9,4.2
		c0,1.6,0.3,3,0.9,4.2c0.6,1.2,1.5,2.1,2.6,2.8c1.1,0.7,2.4,1,3.8,1c2.2,0,4-0.7,5.3-2.1c1.3-1.4,2-3.3,2-5.8c0-2.5-0.7-4.4-2-5.8
		c-1.3-1.4-3.1-2.1-5.3-2.1C608.1,537.6,606.8,537.9,605.7,538.6z"/>
	<path d="M626.6,534.7l7,17l6.5-17h4l-12.9,31.9h-4.1l4.5-10.6l-9.1-21.3H626.6z"/>
	<path d="M670.7,528.5v20.7c0,2.3-0.7,4.1-2,5.4c-1.3,1.3-3.1,2-5.5,2c-2.5,0-4.5-0.7-5.9-2.2c-1.4-1.5-2.1-3.6-2.1-6.3h3.6
		c0,1.6,0.4,2.9,1.1,3.8c0.7,0.9,1.8,1.4,3.3,1.4c1.4,0,2.4-0.4,3-1.2c0.6-0.8,0.9-1.8,0.9-3v-20.7H670.7z"/>
	<path d="M676.3,526.8c0.4-0.4,1-0.6,1.8-0.6c0.7,0,1.3,0.2,1.8,0.6c0.4,0.4,0.7,0.9,0.7,1.6c0,0.7-0.2,1.2-0.7,1.6
		c-0.4,0.4-1,0.6-1.8,0.6c-0.7,0-1.3-0.2-1.8-0.6s-0.7-0.9-0.7-1.6C675.6,527.7,675.8,527.2,676.3,526.8z M679.8,534.7v21.7h-3.6
		v-21.7H679.8z"/>
	<path d="M718.3,536.8c1.5,1.6,2.3,4,2.3,7v12.6H717v-12.3c0-2.1-0.5-3.8-1.6-4.9c-1-1.1-2.5-1.7-4.3-1.7c-1.9,0-3.4,0.6-4.6,1.9
		c-1.1,1.2-1.7,3.1-1.7,5.5v11.5h-3.6v-12.3c0-2.1-0.5-3.8-1.6-4.9c-1.1-1.1-2.5-1.7-4.3-1.7c-1.9,0-3.5,0.6-4.6,1.9
		c-1.1,1.2-1.7,3.1-1.7,5.5v11.5h-3.6v-21.7h3.6v4.9c0.5-1.7,1.5-3,2.8-3.9c1.4-0.9,2.9-1.4,4.7-1.4c1.8,0,3.4,0.5,4.8,1.4
		c1.4,0.9,2.3,2.3,2.9,4.1c0.6-1.8,1.6-3.1,3-4.1c1.4-1,3-1.4,4.8-1.4C714.7,534.3,716.8,535.2,718.3,536.8z"/>
	<path d="M745.9,546.3h-17.3c0.1,2.5,0.8,4.3,2.1,5.6c1.3,1.2,3,1.9,4.9,1.9c1.7,0,3.2-0.4,4.4-1.3c1.2-0.9,1.9-2.1,2.1-3.5h3.8
		c-0.3,1.5-0.8,2.8-1.8,4c-0.9,1.2-2.1,2.1-3.5,2.8c-1.4,0.7-3.1,1-4.9,1c-2.1,0-3.9-0.4-5.5-1.3c-1.6-0.9-2.9-2.2-3.8-3.8
		c-0.9-1.7-1.4-3.6-1.4-5.9c0-2.3,0.5-4.2,1.4-5.9c0.9-1.7,2.2-3,3.8-3.9c1.6-0.9,3.4-1.3,5.5-1.3c2.1,0,3.9,0.4,5.5,1.3
		c1.6,0.9,2.8,2.1,3.6,3.6c0.8,1.5,1.2,3.2,1.2,5C746.1,545.1,746,545.7,745.9,546.3z M741.7,540.5c-0.6-1.1-1.4-1.9-2.5-2.4
		c-1.1-0.5-2.2-0.8-3.4-0.8c-2,0-3.6,0.6-5,1.8c-1.3,1.2-2.1,3-2.2,5.4h13.8C742.5,543,742.3,541.6,741.7,540.5z"/>
	<path d="M768.3,536.8c1.6,1.6,2.3,4,2.3,7v12.6H767v-12.3c0-2.2-0.6-3.8-1.7-5c-1.1-1.2-2.6-1.7-4.5-1.7c-2,0-3.5,0.6-4.7,1.9
		c-1.2,1.3-1.8,3.1-1.8,5.6v11.5h-3.6v-21.7h3.6v5.1c0.6-1.8,1.5-3.1,2.9-4.1c1.4-0.9,3-1.4,4.9-1.4
		C764.7,534.3,766.7,535.2,768.3,536.8z"/>
	<path d="M790.4,536c1.5,1.1,2.5,2.5,3.1,4.2v-5.5h3.6v21.7h-3.6v-5.5c-0.6,1.8-1.6,3.2-3.1,4.2c-1.5,1.1-3.2,1.6-5.3,1.6
		c-1.9,0-3.6-0.4-5.1-1.3c-1.5-0.9-2.7-2.2-3.5-3.8c-0.9-1.7-1.3-3.6-1.3-5.9c0-2.3,0.4-4.2,1.3-5.9c0.9-1.7,2-3,3.5-3.9
		c1.5-0.9,3.2-1.3,5.1-1.3C787.1,534.4,788.9,535,790.4,536z M780.7,539.7c-1.3,1.4-2,3.3-2,5.8c0,2.5,0.7,4.4,2,5.8
		c1.3,1.4,3.1,2.1,5.3,2.1c1.4,0,2.7-0.3,3.8-1c1.1-0.7,2-1.6,2.6-2.8c0.6-1.2,0.9-2.6,0.9-4.2c0-1.6-0.3-3-0.9-4.2
		c-0.6-1.2-1.5-2.1-2.6-2.8s-2.4-1-3.8-1C783.8,537.6,782.1,538.3,780.7,539.7z"/>
</g>
</svg>
