<?xml version="1.0" encoding="utf-8"?>
<!-- Generator: Adobe Illustrator 23.0.0, SVG Export Plug-In . SVG Version: 6.00 Build 0)  -->
<svg version="1.1" id="Layer_1" xmlns="http://www.w3.org/2000/svg" xmlns:xlink="http://www.w3.org/1999/xlink" x="0px" y="0px"
	 viewBox="0 0 321 336" style="enable-background:new 0 0 321 336;" xml:space="preserve">
<style type="text/css">
	.st0{fill:none;}
	.st1{font-family:'Raleway-Black';}
	.st2{font-size:400px;}
</style>
<g>
	<path d="M239,261.4l8.1-121c3.1-46.7,23.2-90.6,56.3-123.6l0,0c1.7-1.7,4.6-0.5,4.6,1.9v242.9c0,1.5-1.2,2.7-2.7,2.7h-63.7
		C240.2,264.3,238.9,263,239,261.4z"/>
</g>
<path d="M297.1,320h-9.2c-6,0-10.9-4.9-10.9-10.9v-31.2c0-6,4.9-10.9,10.9-10.9h9.2c6,0,10.9,4.9,10.9,10.9v31.2
	C308,315.1,303.1,320,297.1,320z"/>
<rect x="12.7" y="14.1" class="st0" width="422.6" height="309.9"/>
<text transform="matrix(1 0 0 1 12.6958 306.1289)" class="st1 st2">J</text>
</svg>
