<?xml version="1.0" encoding="utf-8"?>
<!-- Generator: Adobe Illustrator 24.0.1, SVG Export Plug-In . SVG Version: 6.00 Build 0)  -->
<svg version="1.1" id="Layer_1" xmlns="http://www.w3.org/2000/svg" xmlns:xlink="http://www.w3.org/1999/xlink" x="0px" y="0px"
	 viewBox="0 0 512 512" style="enable-background:new 0 0 512 512;" xml:space="preserve">
<style type="text/css">
	.st0{display:none;}
	.st1{display:inline;}
	.st2{fill:none;stroke:#231F20;stroke-width:16;stroke-miterlimit:10;}
	.st3{fill:#231F20;}
	.st4{fill:none;stroke:#231F20;stroke-width:10;stroke-miterlimit:10;}
</style>
<g id="Capa_1" class="st0">
	<g class="st1">
		<g>
			<path d="M489.7,122.7H22.3c-6.5,0-11.8,5.2-11.8,11.6v26.9c0,6.4,5.3,11.6,11.8,11.6h25.4v18.9V360c-5.3,1.2-9.3,5.9-9.3,11.6
				v19.2c0,6.5,5.4,11.9,12,11.9h46.3c6.6,0,12-5.3,12-11.9v-19.2c0-5.6-4-10.3-9.3-11.6V203.4h313.3v98.8c0,3.9,3.2,7.1,7.2,7.1
				s7.2-3.2,7.2-7.1v-98.8H450v156.4h-23v-30.6c0-3.9-3.2-7.1-7.2-7.1s-7.2,3.2-7.2,7.1v30.9c-5.3,1.2-9.3,5.9-9.3,11.6v19.2
				c0,6.5,5.4,11.9,12,11.9h46.3c6.6,0,12-5.3,12-11.9v-19.2c0-5.6-4-10.3-9.3-11.6V191.8v-18.9h25.4c6.5,0,11.8-5.2,11.8-11.6
				v-26.9C501.5,127.9,496.2,122.7,489.7,122.7z M94.3,388.5H52.8V374h41.5V388.5z M62.1,359.8V203.4H85v156.4H62.1z M459.2,388.5
				h-41.5V374h41.5V388.5z M487.1,158.7H129.4c-4,0-7.2,3.2-7.2,7.1c0,3.9,3.2,7.1,7.2,7.1h320.5v16.3H62.1v-16.3h39.4
				c4,0,7.2-3.2,7.2-7.1c0-3.9-3.2-7.1-7.2-7.1H24.9V137h462.2V158.7z"/>
		</g>
	</g>
</g>
<g id="Layer_2_1_">
	<path class="st2" d="M18,318.1c0,3.2,1.5,6.3,4.2,8.1c6.5,4.6,15.4,9.1,25.8,8.8c16.6-0.4,20.6-12.6,37.5-14
		c19.2-1.6,22.2,13.6,43.3,14c20.7,0.4,23.2-14.1,44.3-14c20.6,0.1,23,14,44.3,14c18.6,0,20.3-10.7,40.3-11
		c19.1-0.3,20.8,9.5,40.3,10c22.1,0.6,24-11.9,45.4-12c24.3-0.2,28.8,15.8,50.2,13c18.7-2.5,19.4-15.3,35.5-15.1
		c19.5,0.2,26.9,19.1,44,17.1c7.9-1,14.1-6,18.5-10.9c1.7-1.9,2.6-4.2,2.6-6.7V139c0-5.5-4.5-10-10-10H28c-5.5,0-10,4.5-10,10V318.1
		z"/>
	<path class="st3" d="M84,300h-2c-4.1,0-7.5-3.4-7.5-7.5V202c0-4.1,3.4-7.5,7.5-7.5h2c4.1,0,7.5,3.4,7.5,7.5v90.5
		C91.5,296.6,88.1,300,84,300z"/>
	<path class="st3" d="M174.8,300h-2c-4.1,0-7.5-3.4-7.5-7.5V202c0-4.1,3.4-7.5,7.5-7.5h2c4.1,0,7.5,3.4,7.5,7.5v90.5
		C182.3,296.6,178.9,300,174.8,300z"/>
	<path class="st3" d="M257.7,300h-2c-4.1,0-7.5-3.4-7.5-7.5V202c0-4.1,3.4-7.5,7.5-7.5h2c4.1,0,7.5,3.4,7.5,7.5v90.5
		C265.2,296.6,261.9,300,257.7,300z"/>
	<path class="st3" d="M344.3,300h-2c-4.1,0-7.5-3.4-7.5-7.5V202c0-4.1,3.4-7.5,7.5-7.5h2c4.1,0,7.5,3.4,7.5,7.5v90.5
		C351.8,296.6,348.5,300,344.3,300z"/>
	<path class="st3" d="M428.4,300h-2c-4.1,0-7.5-3.4-7.5-7.5V202c0-4.1,3.4-7.5,7.5-7.5h2c4.1,0,7.5,3.4,7.5,7.5v90.5
		C435.9,296.6,432.5,300,428.4,300z"/>
</g>
<rect x="34.3" y="335" class="st4" width="20.4" height="23.9"/>
<path class="st4" d="M20.9,369.1L20.9,369.1c0-5.6,4.6-10.2,10.2-10.2h25.2c5.6,0,10.2,4.6,10.2,10.2v0c0,5.6-4.6,10.2-10.2,10.2
	H31.2C25.5,379.4,20.9,374.8,20.9,369.1z"/>
<rect x="458.9" y="336.7" class="st4" width="20.4" height="23.9"/>
<path class="st4" d="M445.5,370.9L445.5,370.9c0-5.6,4.6-10.2,10.2-10.2H481c5.6,0,10.2,4.6,10.2,10.2v0c0,5.6-4.6,10.2-10.2,10.2
	h-25.2C450.1,381.1,445.5,376.5,445.5,370.9z"/>
</svg>
