<svg height="512pt" viewBox="0 -27 512.00038 512" width="512pt" xmlns="http://www.w3.org/2000/svg"><path d="m203.582031 403.503906h-148.699219c-5.519531 0-10-4.476562-10-10v-51.789062c0-5.519532 4.480469-10 10-10h148.699219c5.519531 0 10 4.480468 10 10v51.789062c0 5.523438-4.476562 10-10 10zm-138.699219-20h128.699219v-31.789062h-128.699219zm0 0"/><path d="m512 46.582031c-.046875-2.652343-1.140625-5.175781-3.046875-7.019531l-37.992187-36.75c-3.96875-3.839844-10.300782-3.734375-14.140626.234375l-198.355468 205.058594v-106.960938c0-30.378906-24.714844-55.09375-55.09375-55.09375h-148.277344c-30.378906 0-55.09375 24.714844-55.09375 55.09375v347.09375c0 5.523438 4.476562 10 10 10h311.535156c5.519532 0 10-4.476562 10-10 0-5.519531-4.480468-10-10-10h-63.070312v-181.691406c0-14.203125 11.21875-25.835937 25.257812-26.503906.105469 0 .214844-.003907.320313-.011719.316406-.011719.636719-.015625.957031-.015625 14.632812 0 26.535156 11.902344 26.535156 26.53125v100.691406c0 5.523438 4.476563 10 10 10 5.519532 0 10-4.476562 10-10v-100.691406c0-5.6875-1.027344-11.140625-2.90625-16.1875l180.558594-186.65625c1.84375-1.90625 2.855469-4.46875 2.8125-7.121094zm-99.878906 78.703125-15.472656 15.996094 13.371093-61.085938 22.683594-23.445312-13.378906 61.085938zm-77.132813 79.738282 13.378907-61.09375 35.191406-36.378907-13.375 61.085938zm-314.988281-103.878907c0-19.351562 15.742188-35.09375 35.09375-35.09375h148.277344c19.351562 0 35.09375 15.742188 35.09375 35.09375v175.835938h-20v-180.929688c0-5.523437-4.476563-10-10-10h-158.464844c-5.523438 0-10 4.476563-10 10v180.929688h-20zm178.464844 175.835938h-138.464844v-170.929688h138.464844zm-178.464844 20h218.464844v141.257812h-218.464844zm275.609375-85.746094 3.613281-16.496094 22.679688-23.445312-10.3125 47.085937c-4.757813-3.324218-10.160156-5.78125-15.980469-7.144531zm150.179687-120.757813 13.375-61.085937 5.078126-5.25 23.617187 22.84375zm0 0"/><path d="m285 293.238281c-5.523438 0-10-4.476562-10-10v-16.664062c0-5.523438 4.476562-10 10-10s10 4.476562 10 10v16.664062c0 5.523438-4.476562 10-10 10zm0 0"/><path d="m321.539062 413.910156c-.660156 0-1.308593-.070312-1.960937-.199218-.640625-.132813-1.269531-.320313-1.867187-.570313-.601563-.25-1.191407-.558594-1.730469-.921875-.539063-.359375-1.058594-.777344-1.519531-1.238281-.460938-.460938-.882813-.972657-1.242188-1.519531-.359375-.542969-.667969-1.132813-.917969-1.730469-.25-.601563-.441406-1.230469-.570312-1.871094-.128907-.640625-.199219-1.300781-.199219-1.949219 0-.648437.070312-1.308594.199219-1.960937.128906-.640625.320312-1.269531.570312-1.867188.25-.601562.558594-1.179687.917969-1.730469.359375-.539062.78125-1.050781 1.242188-1.511718.460937-.46875.980468-.878906 1.519531-1.25.539062-.359375 1.128906-.667969 1.730469-.917969.597656-.25 1.230468-.441406 1.867187-.570313 3.25-.648437 6.703125.410157 9.03125 2.738282.460937.460937.871094.972656 1.238281 1.511718.363282.550782.671875 1.128907.921875 1.730469.25.597657.441407 1.226563.570313 1.867188.128906.648437.199218 1.3125.199218 1.960937 0 .652344-.070312 1.308594-.199218 1.949219s-.320313 1.269531-.570313 1.871094c-.25.601562-.558593 1.1875-.921875 1.730469-.367187.546874-.777344 1.058593-1.238281 1.519531-.460937.460937-.980469.878906-1.519531 1.238281-.550782.359375-1.128906.671875-1.730469.921875s-1.230469.441406-1.871094.570313c-.648437.128906-1.296875.199218-1.949219.199218zm0 0"/></svg>