<svg height="512pt" viewBox="0 0 512 512" width="512pt" xmlns="http://www.w3.org/2000/svg"><path d="m34.960938 104.332031h5.203124v250.910157h15v-250.910157h58.589844v250.910157h15v-209.835938h19.761719v25.261719c0 6.890625 5.605469 12.5 12.5 12.5h28.621094c6.894531 0 12.5-5.609375 12.5-12.5v-25.261719h25.621093v25.261719c0 6.890625 5.605469 12.5 12.5 12.5h30.621094c6.894532 0 12.5-5.609375 12.5-12.5v-25.261719h25.625v25.261719c0 6.890625 5.605469 12.5 12.5 12.5h28.621094c6.890625 0 12.5-5.609375 12.5-12.5v-25.261719h20.621094v209.835938h15v-250.910157h58.589844v250.910157h15v-250.910157h5.203124c5.613282 0 10.742188-3.074219 13.386719-8.023437 2.644531-4.953125 2.347657-10.925782-.773437-15.589844l-49.5-73.980469c-2.820313-4.21875-7.535156-6.738281-12.613282-6.738281-5.074218 0-9.792968 2.519531-12.613281 6.738281l-49.496093 73.980469c-3.121094 4.664062-3.417969 10.636719-.773438 15.589844 2.644531 4.949218 7.773438 8.023437 13.382812 8.023437h5.203126v26.074219h-23.117188c-6.894531 0-12.503906 5.609375-12.503906 12.5v25.257812h-23.621094v-25.257812c0-6.894531-5.605469-12.5-12.5-12.5h-30.617188c-6.894531 0-12.503906 5.605469-12.503906 12.5v25.257812h-25.621094v-25.257812c0-6.894531-5.609374-12.503906-12.5-12.503906h-30.617187c-6.894531 0-12.503906 5.609375-12.503906 12.503906v25.257812h-23.621094v-25.257812c0-6.894531-5.609375-12.503906-12.503906-12.503906h-22.257813v-26.074219h5.203125c5.613281 0 10.742188-3.074219 13.386719-8.023437 2.644531-4.953126 2.347656-10.925782-.773438-15.589844l-49.496093-73.976563c-2.824219-4.21875-7.539063-6.738281-12.613281-6.738281-5.078126 0-9.792969 2.519531-12.613282 6.738281l-49.5 73.980469c-3.121094 4.664062-3.414062 10.636719-.773437 15.589844 2.644531 4.949218 7.773437 8.023437 13.386719 8.023437zm342.992187-15.003906c-.042969-.027344-.101563-.140625-.058594-.269531l11.886719-17.765625h34.785156v-15h-24.75l27.578125-41.214844c.035157-.054687.050781-.078125.144531-.078125s.109376.023438.148438.078125l49.539062 74.058594c.003907.050781-.058593.164062-.097656.1875 0 0-.027344.007812-.089844.007812zm-343.136719-.269531 11.886719-17.765625h35.046875v-15h-25.011719l27.574219-41.214844c.039062-.054687.054688-.078125.148438-.078125s.109374.023438.144531.078125l49.542969 74.058594c0 .050781-.058594.164062-.097657.1875 0 0-.027343.007812-.089843.007812l-99.085938-.003906c-.042969-.027344-.105469-.140625-.058594-.269531zm0 0"/><path d="m335.75 347.09375c-12.820312 0-23.640625 8.738281-26.808594 20.574219h-105.882812c-3.167969-11.835938-13.988282-20.574219-26.808594-20.574219-15.300781 0-27.75 12.445312-27.75 27.75v109.40625c0 15.300781 12.449219 27.75 27.75 27.75 13.300781 0 24.445312-9.40625 27.132812-21.917969h105.234376c2.6875 12.511719 13.832031 21.917969 27.132812 21.917969 15.300781 0 27.75-12.449219 27.75-27.75v-109.40625c0-15.304688-12.449219-27.75-27.75-27.75zm-159.5 149.90625c-7.03125 0-12.75-5.71875-12.75-12.75v-109.40625c0-7.03125 5.71875-12.75 12.75-12.75s12.75 5.71875 12.75 12.75v109.40625c0 7.03125-5.71875 12.75-12.75 12.75zm27.75-114.332031h104v92.414062h-14.75v-64.914062h-15v64.914062h-14.75v-64.914062h-15v64.914062h-14.75v-64.914062h-15v64.914062h-14.75zm144.5 101.582031c0 7.03125-5.71875 12.75-12.75 12.75s-12.75-5.71875-12.75-12.75v-109.40625c0-7.03125 5.71875-12.75 12.75-12.75s12.75 5.71875 12.75 12.75zm0 0"/><path d="m0 398.703125c0 9.371094 4.183594 17.78125 10.78125 23.464844-6.597656 5.679687-10.78125 14.09375-10.78125 23.460937 0 17.074219 13.890625 30.960938 30.960938 30.960938h105.039062v-15h-105.039062c-8.800782 0-15.960938-7.160156-15.960938-15.960938 0-8.800781 7.160156-15.964844 15.960938-15.964844h105.039062v-15h-105.039062c-8.800782 0-15.960938-7.160156-15.960938-15.960937s7.160156-15.960937 15.960938-15.960937h105.039062v-15h-105.039062c-17.070313 0-30.960938 13.890624-30.960938 30.960937zm0 0"/><path d="m501.21875 422.167969c6.597656-5.683594 10.78125-14.09375 10.78125-23.464844 0-17.070313-13.890625-30.960937-30.960938-30.960937h-105.039062v15h105.039062c8.800782 0 15.960938 7.160156 15.960938 15.960937s-7.160156 15.960937-15.960938 15.960937h-105.039062v15h105.039062c8.800782 0 15.960938 7.164063 15.960938 15.964844 0 8.800782-7.160156 15.960938-15.960938 15.960938h-105.039062v15h105.039062c17.070313 0 30.960938-13.890625 30.960938-30.960938 0-9.367187-4.183594-17.78125-10.78125-23.460937zm0 0"/><path d="m348 335.175781v-80.667969l-46.175781-46.175781h-91.648438l-46.175781 46.175781v80.667969h15v-74.453125l37.386719-37.390625h79.226562l37.386719 37.390625v74.453125zm0 0"/><path d="m323 340.242188v-75.378907l-31.53125-31.53125h-70.9375l-31.53125 31.53125v75.378907h15v-69.164063l22.742188-22.746094h58.515624l22.742188 22.746094v69.164063zm0 0"/><path d="m476.792969 406.203125h-48.503907v-15h48.503907zm-58.503907 0h-15v-15h15zm-25 0h-15v-15h15zm0 0"/><path d="m476.792969 453.128906h-48.503907v-15h48.503907zm-58.503907 0h-15v-15h15zm-25 0h-15v-15h15zm0 0"/><path d="m446.835938 281.667969h-15v-112h15zm0-122h-15v-15h15zm0-25h-15v-15h15zm0 0"/><path d="m373.242188 311.554688h-15v-63h15zm0-73.003907h-15v-15h15zm0-25h-15v-15h15zm0 0"/><path d="m102.667969 282h-15v-112h15zm0-122h-15v-15h15zm0-25h-15v-15h15zm0 0"/></svg>