<svg id="Capa_1" enable-background="new 0 0 512 512" height="512" viewBox="0 0 512 512" width="512" xmlns="http://www.w3.org/2000/svg"><g><path d="m512 150h-59.133c-5.061-14.458-17.084-25.232-31.867-28.756v-91.244h31.133v-30h-392.266v30h31.133v91.244c-14.783 3.524-26.807 14.298-31.867 28.756h-59.133v30h53.596l-34.36 214.374c-.661 4.125-3.013 7.702-6.459 10.037-3.926 2.659-8.217 2.589-12.777 2.589v105h512v-105c-3.237 0-6.508.219-9.605-.918-5.027-1.845-8.786-6.432-9.632-11.708l-34.359-214.374h53.596zm-86.764 12.626 36.826 229.76c-11.948.017-23.888 3.391-34.288 10.104-2.234-2.275-3.764-5.26-4.185-8.623l-29.411-234.468c-.409-3.263-1.174-6.404-2.235-9.399h18.482c7.41 0 13.639 5.31 14.811 12.626zm-262.764-12.626h18.483c-1.208 3.46-2.021 7.121-2.367 10.94l-21.055 232.413c-.238 2.623-1.092 5.257-2.337 7.665-4.594 2.683-8.923 5.986-12.858 9.921l-.279.279c-8.937 8.938-21.721 11.74-33.065 8.414 4.856-6.211 8.143-13.739 9.184-22.032l29.41-234.467c.94-7.487 7.338-13.133 14.884-13.133zm228.528-30h-30v-30h30zm-60 0h-30v-30h30zm-60 0h-30v-30h30zm-60 0h-30v-30h30zm-2.534 43.647c.705-7.78 7.127-13.647 14.939-13.647h17.595v267.476c-3.13-1.561-6.067-3.635-8.672-6.24l-.314-.314c-12.217-12.217-28.221-18.385-44.27-18.523zm62.534-13.647h17.595c7.812 0 14.234 5.867 14.939 13.647l20.723 228.747c-16.101.105-32.171 6.28-44.436 18.545l-.279.279c-2.57 2.57-5.461 4.625-8.542 6.181zm85.856 251.125c-1.276-2.436-2.149-5.11-2.39-7.772l-21.054-232.413c-.346-3.819-1.159-7.48-2.367-10.94h18.483c7.546 0 13.944 5.646 14.884 13.133l29.411 234.468c1.038 8.276 4.313 15.791 9.153 21.994-11.377 3.383-24.212.595-33.166-8.36l-.314-.314c-3.873-3.872-8.126-7.137-12.64-9.796zm-235.856-371.125h270v30h-270zm0 60h30v30h-30zm-34.236 72.626c1.172-7.316 7.401-12.626 14.811-12.626h18.482c-1.061 2.995-1.826 6.136-2.235 9.399l-29.41 234.467c-.425 3.391-1.978 6.397-4.243 8.679-10.375-6.722-22.295-10.113-34.232-10.155zm394.903 319.374h-451.334v-53.46c13.036-9.29 31.299-8.091 42.986 3.595l.296.297c24.719 24.719 64.938 24.719 89.657 0l.296-.296c13.022-13.022 34.209-13.021 47.231 0l.296.297c11.976 11.972 27.897 18.567 44.831 18.567s32.854-6.595 44.829-18.569l.296-.296c13.022-13.022 34.209-13.021 47.231 0l.296.297c24.719 24.719 64.938 24.719 89.657 0l.296-.296c11.732-11.733 30.095-12.894 43.134-3.49v53.354z"/></g></svg>