<svg height="512pt" viewBox="-13 0 512 512" width="512pt" xmlns="http://www.w3.org/2000/svg"><path d="m99.914062 239.84375c4.144532 0 7.5-3.359375 7.5-7.5v-14.710938c0-4.140624-3.355468-7.496093-7.5-7.496093-4.140624 0-7.496093 3.355469-7.496093 7.496093v14.710938c0 4.140625 3.355469 7.5 7.496093 7.5zm0 0"/><path d="m99.914062 298.492188c4.144532 0 7.5-3.355469 7.5-7.5v-14.710938c0-4.140625-3.355468-7.496094-7.5-7.496094-4.140624 0-7.496093 3.355469-7.496093 7.496094v14.710938c0 4.144531 3.355469 7.5 7.496093 7.5zm0 0"/><path d="m352.503906 187.640625c0-4.140625-3.359375-7.496094-7.5-7.496094s-7.496094 3.355469-7.496094 7.496094v14.710937c0 4.140626 3.355469 7.5 7.496094 7.5s7.5-3.359374 7.5-7.5zm0 0"/><path d="m345.003906 238.792969c-4.140625 0-7.496094 3.355469-7.496094 7.496093v14.714844c0 4.140625 3.355469 7.496094 7.496094 7.496094s7.5-3.355469 7.5-7.496094v-14.714844c0-4.136718-3.359375-7.496093-7.5-7.496093zm0 0"/><path d="m469.421875 466.402344c-4.535156-1.894532-7.730469-2.792969-9.828125-3.335938-3.839844-16.578125-17.90625-29.382812-35.285156-31.996094-1.542969-.230468-2.71875-.378906-3.582032-.476562-.714843-.757812-1.730468-1.773438-3.242187-3.105469-7.679687-6.808593-19.03125-12.1875-32.53125-15.738281v-39.277344c12.109375-1.429687 21.539063-11.753906 21.539063-24.246094 0-13.464843-10.953126-24.417968-24.417969-24.417968h-120.828125v-66.535156h7.15625c13.304687 0 24.132812-10.828126 24.132812-24.132813 0-13.296875-10.828125-24.109375-24.132812-24.109375h-7.15625v-38.734375c28.167968-9.53125 41.332031-29.402344 41.332031-48.242187 0-14.859376-8.664063-25.648438-20.601563-25.648438h-52.019531v-27.625c0-29.660156 24.125-53.789062 53.777344-53.789062s53.773437 24.128906 53.773437 53.789062v75.035156c0 4.140625 3.355469 7.496094 7.5 7.496094 4.140626 0 7.496094-3.355469 7.496094-7.496094v-75.035156c0-37.925781-30.851562-68.78125-68.769531-68.78125-26.707031 0-49.886719 15.3125-61.273437 37.613281-11.386719-22.300781-34.566407-37.613281-61.273438-37.613281-37.917969 0-68.769531 30.855469-68.769531 68.78125v105.054688c0 4.140624 3.355469 7.496093 7.496093 7.496093 4.144532 0 7.5-3.355469 7.5-7.496093v-105.054688c0-29.660156 24.121094-53.789062 53.773438-53.789062s53.777344 24.128906 53.777344 53.789062v27.625h-52.019532c-13.066406 0-22.195312 10.210938-22.195312 24.828125 0 13.097656 7.414062 26.824219 19.832031 36.710937 5.257813 4.183594 12.765625 8.773438 23.09375 12.289063v38.796875h-7.183593c-13.289063 0-24.105469 10.816406-24.105469 24.109375 0 13.308594 10.816406 24.136719 24.105469 24.136719h7.183593v66.53125h-119.269531c-13.464844 0-24.417969 10.953125-24.417969 24.417968 0 12.492188 9.429688 22.816407 21.539063 24.246094v56.960938c-12.109375 1.429687-21.539063 11.769531-21.539063 24.273437 0 3.339844.675781 6.523438 1.894531 9.425781h-17.46875c-13.460937 0-24.414062 10.957032-24.414062 24.421876 0 13.476562 10.953125 24.445312 24.414062 24.445312h441.519532c9.734375 0 17.605468-6.648438 19.589844-16.542969 1.992187-9.917969-2.199219-23.238281-16.101563-29.054687zm-313.679687-345.171875c0-2.304688.519531-9.828125 7.203124-9.828125h119.03125c3.144532 0 5.609376 4.679687 5.609376 10.652344 0 4.179687-1.285157 14.941406-13.179688 24.609374-6.246094 5.074219-14.355469 8.847657-23.992188 11.261719-10.480468 2.628907-21.417968 3.398438-32.195312 3.070313-9.082031-.277344-17.496094-1.464844-25.058594-3.546875-.132812-.035157-.265625-.054688-.398437-.082031-10.628907-2.972657-17.96875-7.273438-22.835938-11.152344-8.882812-7.070313-14.183593-16.410156-14.183593-24.984375zm42.925781 52.828125c4.460937.796875 9.285156 1.390625 14.503906 1.714844 4.875.3125 9.769531.359374 14.652344.191406 6.464843-.21875 12.628906-.824219 18.425781-1.832032v34.898438h-47.582031zm-31.285157 59.078125c0-5.023438 4.085938-9.113281 9.109376-9.113281h91.90625c5.039062 0 9.140624 4.089843 9.140624 9.113281 0 5.042969-4.101562 9.144531-9.140624 9.144531h-91.90625c-5.023438 0-9.109376-4.101562-9.109376-9.144531zm31.285157 24.136719h47.582031v66.535156h-47.582031zm-143.683594 90.953124c0-5.195312 4.226563-9.425781 9.421875-9.425781h317.667969c5.195312 0 9.421875 4.230469 9.421875 9.425781 0 5.199219-4.226563 9.425782-9.421875 9.425782h-143.660157c-4.140624 0-7.496093 3.355468-7.496093 7.496094 0 4.140624 3.355469 7.5 7.496093 7.5h131.542969v36.046874c-8.875-1.320312-18.328125-1.933593-28.042969-1.75-31.609374-.601562-60.558593 7.257813-75.535156 20.535157-.757812.671875-1.390625 1.261719-1.921875 1.777343h-187.933593v-56.613281h127.261718c4.140625 0 7.496094-3.355469 7.496094-7.496093 0-4.140626-3.355469-7.496094-7.496094-7.496094h-139.378906c-5.195312 0-9.421875-4.226563-9.421875-9.425782zm-39.992187 139.324219c0-5.195312 4.230468-9.425781 9.421874-9.425781h103.8125c4.140626 0 7.5-3.355469 7.5-7.496094s-3.359374-7.496094-7.5-7.496094h-63.820312c-5.195312 0-9.421875-4.230468-9.421875-9.429687 0-5.210937 4.226563-9.453125 9.421875-9.453125h169.976562c-4.898437 5.230469-8.453124 11.667969-10.113281 18.816406-.078125.019532-.167969.042969-.25.066406h-61.160156c-4.140625 0-7.496094 3.355469-7.496094 7.496094s3.355469 7.496094 7.496094 7.496094h38.222656c-3.089843 5.625-3.824219 11.972656-2.746093 17.332031.105468.527344.234374 1.039063.375 1.546875h-174.296876c-5.191406.003906-9.421874-4.238281-9.421874-9.453125zm455.832031 4.957031c-.414063 2.050782-1.59375 4.5-4.890625 4.5h-248.007813c-3.296875 0-4.480469-2.449218-4.890625-4.5-.824218-4.117187 1.070313-9.710937 7.1875-12.269531 4.152344-1.734375 6.695313-2.378906 8.550782-2.847656 5.496093-1.386719 8.546874-3.378906 9.984374-10.394531 2.226563-10.71875 11.695313-19.394532 23.019532-21.097656 1.628906-.246094 2.765625-.375 3.597656-.472657 3.171875-.363281 5.042969-.828125 7.402344-3.199219.246094-.226562.480468-.46875.691406-.730468.539062-.59375 1.289062-1.40625 2.851562-2.789063 11.476563-10.175781 36.257813-16.796875 62.363282-16.796875 1.023437 0 2.054687.007813 3.082031.03125h.300781c27.226563-.554687 53.546875 6.191406 65.480469 16.769532 1.632813 1.449218 2.375 2.269531 2.914063 2.867187 2.652343 2.941406 4.570312 3.453125 8.019531 3.847656.824219.09375 1.964843.226563 3.601562.472657 11.324219 1.703124 20.792969 10.378906 23.019531 21.074218 1.4375 7.039063 4.492188 9.03125 9.984376 10.417969 1.855468.46875 4.398437 1.113281 8.550781 2.847656 6.117187 2.558594 8.011719 8.152344 7.1875 12.269531zm0 0"/></svg>