<?xml version="1.0" encoding="iso-8859-1"?>
<!-- Generator: Adobe Illustrator 19.0.0, SVG Export Plug-In . SVG Version: 6.00 Build 0)  -->
<svg version="1.1" id="Layer_1" xmlns="http://www.w3.org/2000/svg" xmlns:xlink="http://www.w3.org/1999/xlink" x="0px" y="0px"
	 viewBox="0 0 512.002 512.002" style="enable-background:new 0 0 512.002 512.002;" xml:space="preserve">
<g>
	<g>
		<path d="M191.687,354.646v133.748c0,8.651-2.797,16.643-7.525,23.14c1.508,0.302,3.066,0.465,4.664,0.465
			c13.037,0,23.606-10.568,23.606-23.606V362.929C204.81,361.744,198.284,361.441,191.687,354.646z"/>
	</g>
</g>
<g>
	<g>
		<path d="M190.317,153.087l32.592,16.452l0.018-13.432c0.022-16.73-12.641-30.31-28.284-30.33l-37.161-0.762
			c-16.18-0.332-29.107,12.687-29.15,28.851c-0.007,2.536,0,334.529,0,334.529c0,13.037,10.944,23.606,23.981,23.606
			c13.037,0,23.606-10.568,23.606-23.606c0-8.343,0-164.241,0-177.607l15.764,0.249l14.529-41.696
			c-13.495-6.602-16.905-8.271-30.401-14.873c-4.367-2.137-7.421-5.96-8.753-10.265l-9.571-31.344
			c-15.429-9.167-21.055-28.746-13.008-44.688C152.97,151.351,173.493,144.596,190.317,153.087z"/>
	</g>
</g>
<g>
	<g>
		<path d="M375.68,430.002l-48.276-39.838v-9.353l-21.391-3.327v52.027l41.686,34.4c9.367,7.727,23.218,6.398,30.945-2.963
			C386.371,451.583,385.045,437.729,375.68,430.002z"/>
	</g>
</g>
<g>
	<g>
		<path d="M246.302,368.197v121.637h-0.001c0,12.139,9.841,21.982,21.982,21.982c12.14,0,21.982-9.842,21.982-21.982V375.035
			L246.302,368.197z"/>
	</g>
</g>
<g>
	<g>
		<path d="M314.565,49.303c-20.713-3.223-40.124,10.958-43.347,31.679c-3.222,20.717,10.961,40.124,31.679,43.347
			c20.709,3.222,40.124-10.955,43.347-31.679C349.466,71.933,335.282,52.524,314.565,49.303z"/>
	</g>
</g>
<g>
	<g>
		<path d="M343.309,167.922c-0.305-11.415-8.018-20.792-18.479-22.418c-3.305-0.513-33.614-5.228-37.817-5.881
			c-10.607-1.644-20.74,5.214-24.416,15.749l-5.679,16.301l27.807-9.532l-50.296,32.168l-51.738-26.116
			c-8.481-4.281-18.828-0.877-23.109,7.605c-4.281,8.481-0.876,18.828,7.605,23.109l60.496,30.536c0.03,0.014,0.06,0.024,0.09,0.039
			c5.487,2.725,11.828,2.298,16.799-0.827c0.043-0.027,0.088-0.049,0.131-0.077l58.558-37.452l-28.582,29.891l18.697,9.147
			c18.231,8.919,25.779,30.928,16.861,49.159c-8.919,18.231-30.928,25.779-49.158,16.861l-40.619-19.871l-19.703,56.552
			c-2.109,6.055,1.402,12.527,7.249,13.437c28.233,4.391,101.077,15.72,129.329,20.114c5.822,0.905,11.159-4.188,10.988-10.601
			C348.139,348.868,343.544,176.718,343.309,167.922z"/>
	</g>
</g>
<g>
	<g>
		<path d="M285.401,246.471l-23.886-11.685l-7.693,8.045c-7.356,7.693-18.664,9.334-27.701,4.783
			c-7.746-3.919,0.759,0.375-52.163-26.337l8.401,13.159c1.755,2.748,4.29,5.098,7.392,6.636c0.038,0.019,0.072,0.042,0.11,0.061
			l79.196,38.745c9.228,4.515,20.363,0.691,24.876-8.532C298.446,262.122,294.625,250.985,285.401,246.471z"/>
	</g>
</g>
<g>
	<g>
		<path d="M266.197,44.068c-2.308-7.501-10.256-11.715-17.762-9.404c-3.134,0.964-6.29,1.805-9.455,2.578l-8.914-33.291
			c-0.742-2.773-3.548-4.459-6.346-3.812L207.158,3.97c-4.625,1.07-9.432,1.07-14.057,0l-16.562-3.831
			c-2.797-0.648-5.603,1.039-6.346,3.812l-8.913,33.291c-3.166-0.774-6.321-1.614-9.454-2.578
			c-7.502-2.311-15.456,1.903-17.762,9.404c-2.31,7.502,1.901,15.454,9.403,17.762c4.989,1.535,10.016,2.856,15.07,3.977
			c-1.219,23.927,17.819,43.776,41.538,43.808c23.784,0.031,42.87-19.861,41.647-43.808c5.055-1.121,10.083-2.443,15.072-3.977
			C264.294,59.522,268.506,51.57,266.197,44.068z"/>
	</g>
</g>
<g>
</g>
<g>
</g>
<g>
</g>
<g>
</g>
<g>
</g>
<g>
</g>
<g>
</g>
<g>
</g>
<g>
</g>
<g>
</g>
<g>
</g>
<g>
</g>
<g>
</g>
<g>
</g>
<g>
</g>
</svg>
