<?xml version="1.0" encoding="iso-8859-1"?>
<!-- Generator: Adobe Illustrator 18.0.0, SVG Export Plug-In . SVG Version: 6.00 Build 0)  -->
<!DOCTYPE svg PUBLIC "-//W3C//DTD SVG 1.1//EN" "http://www.w3.org/Graphics/SVG/1.1/DTD/svg11.dtd">
<svg version="1.1" id="Capa_1" xmlns="http://www.w3.org/2000/svg" xmlns:xlink="http://www.w3.org/1999/xlink" x="0px" y="0px"
	 viewBox="0 0 460 460" style="enable-background:new 0 0 460 460;" xml:space="preserve">
<g id="XMLID_93_">
	<path id="XMLID_102_" d="M261.518,50.063l4.108-10.777c6.774-1.063,12.809-5.61,15.426-12.476
		c3.888-10.2-1.229-21.621-11.429-25.508c-10.2-3.888-21.62,1.229-25.508,11.429c-2.617,6.866-1.14,14.277,3.208,19.58
		L237.25,58.737C244.976,54.95,253.106,52.042,261.518,50.063z"/>
	<path id="XMLID_917_" d="M288.36,66.546c-35.306,0-66.187,18.927-83.063,47.185c-1.959-3.764-4.757-7.076-8.232-9.649
		c-5.907-4.371-13.505-6.367-21.055-5.21l-49.718,7.619c-15.313,2.347-25.867,16.604-23.64,31.934l21.986,151.378l-7.357,53.132
		L77.05,428.592c-5.174,11.016-0.438,24.139,10.577,29.313c11.011,5.172,24.137,0.442,29.313-10.577l41.654-88.687
		c0.944-2.008,1.578-4.148,1.882-6.346l8.458-61.084l20.87-3.198l37.253,47.579l-5.608,101.148
		c-0.673,12.152,8.631,22.548,20.782,23.222c0.416,0.023,0.829,0.035,1.239,0.035c11.612,0,21.331-9.081,21.983-20.816
		l6.067-109.426c0.296-5.336-1.358-10.597-4.652-14.805l-45.599-58.843l-50.793-6.227c-17.351-2.083-28.087-15.572-30.128-24.043
		l-18.114-75.194l35.77,70.941c2.892,5.734,8.455,9.526,14.637,10.265c40.749,4.893,18.43,2.213,75.04,9.01
		c10.653,1.278,19.831-6.475,21.038-16.527c1.252-10.451-6.267-19.804-16.527-21.038l-64.97-7.801h0l-32.393-64.242l41.438,47.037
		c20.056,2.408,19.759,2.372,39.481,4.741l31.264-35.783c-0.081-9.51,3.275-18.904,9.693-26.25
		c14.291-16.356,39.163-18.039,55.526-3.743c16.377,14.31,18.055,39.145,3.743,55.525c-6.382,7.305-15.199,11.947-24.721,13.141
		l-25.018,28.634c0.797,3.831,1.007,7.849,0.515,11.944c-1.649,13.735-10.783,25.253-23.397,30.148
		c7.978,2.131,16.359,3.273,25.008,3.273c53.398,0,96.686-43.288,96.686-96.686S341.758,66.546,288.36,66.546z"/>
	<circle id="XMLID_919_" cx="149.914" cy="45.377" r="41.754"/>
	<path id="XMLID_924_" d="M276.351,196.093l26.076-29.845c6.789,1.365,14.002-0.871,18.794-6.357
		c7.182-8.22,6.341-20.706-1.88-27.888c-8.211-7.174-20.699-6.35-27.888,1.88c-4.835,5.534-6.017,12.997-3.776,19.478
		l-28.641,32.781C265.776,187.845,271.705,191.36,276.351,196.093z"/>
</g>
<g>
</g>
<g>
</g>
<g>
</g>
<g>
</g>
<g>
</g>
<g>
</g>
<g>
</g>
<g>
</g>
<g>
</g>
<g>
</g>
<g>
</g>
<g>
</g>
<g>
</g>
<g>
</g>
<g>
</g>
</svg>
