<?xml version="1.0" encoding="utf-8"?>
<!-- Generator: Adobe Illustrator 23.0.0, SVG Export Plug-In . SVG Version: 6.00 Build 0)  -->
<svg version="1.1" id="Layer_1" xmlns="http://www.w3.org/2000/svg" xmlns:xlink="http://www.w3.org/1999/xlink" x="0px" y="0px"
	 viewBox="0 0 2500 486" style="enable-background:new 0 0 2500 486;" xml:space="preserve">
<style type="text/css">
	.st0{fill:#FFFFFF;}
</style>
<g>
	<path class="st0" d="M158.4,477.5H64.2V242.6H0v-76.5h64.2v-54.4C64.2,47.3,92.6,1.1,186.5,1.1c19.9,0,51.1,4,51.1,4v71h-32.8
		c-33.4,0-46.4,10.2-46.4,38.2v51.9h77.9l-6.9,76.5h-71L158.4,477.5z M374.5,160.1c-1.4,0-2.8,0-4.2,0.1
		c-87.3,0-127.3,65.7-127.3,159c0,117.5,51.8,164.5,128,164.5c43.6,0,72.2-18.3,89.6-52.6v46.4h89.6V166.2h-89.6v47.9
		C446.4,183.3,417,160.4,374.5,160.1z M397.3,233.6c36.7,0,58.7,25.6,58.7,69.1l0.1,44.5c0,29.3-18.2,63.7-58.8,63.7
		c-62.4,0-60.8-67.4-60.8-89.9C336.6,245.5,369.8,233.6,397.3,233.6L397.3,233.6z M586.4,321.9c0-37.8-1.8-161.6,159.5-161.6
		c64.7,0,91.8,20.6,91.8,20.6l-21.7,67.4c0,0-27-14.9-62.2-14.9c-45.1,0-73.8,26.1-73.8,72.1l0,32.9c0,44.2,27.7,73.6,73.8,73.6
		c32,0,61.6-15,61.6-15l21.7,66c0,0-24.7,20.7-90.8,20.7C592.8,483.7,586.4,372.7,586.4,321.9L586.4,321.9z M1363,160.2
		c87.4,0,127.9,65.7,127.9,159c0,117.5-51.8,164.5-128,164.5c-43.6,0-75.8-18.3-93.2-52.6v46.4l-88.5,0V10.5l93.9-8.2v207.5
		C1288.8,173.6,1333.3,160.2,1363,160.2L1363,160.2z M1336.6,233.6c-36.7,0-61.4,25.6-61.4,69.1l-0.1,44.5
		c-0.1,29.3,17.1,63.7,61.5,63.7c62.4,0,60.8-67.4,60.8-89.9C1397.4,245.5,1364.1,233.6,1336.6,233.6L1336.6,233.6z M1000.6,160.4
		c-99.1,0-151.4,54-151.4,150v17.8c0,124.6,73.5,156.7,161,156.7c85.1,0,123.6-23.8,123.6-23.8l-17.6-63.4c0,0-45.3,19.3-94.8,19.3
		c-51.3,0-73.4-13.1-79-62.4h198.9v-50.9C1141.4,199.6,1082.7,160.4,1000.6,160.4L1000.6,160.4z M1003,223.9
		c34.3,0,56.5,21,55.3,69.8H942.7C944.7,242.4,968.6,223.9,1003,223.9L1003,223.9z M1678.2,160c-101.7,0-155.3,57.3-155.3,160.1
		c0,141,92.3,163.7,155.5,163.7c92.4,0,153.9-49.8,153.9-162.4C1832.3,204.1,1763.2,160,1678.2,160L1678.2,160z M1676.9,233.9
		c44.7,0,62.5,33.5,62.5,71.6v32.8c0,46.2-24.8,72.9-62.6,72.9c-35.4,0-60.2-25-60.2-72.9v-32.8
		C1616.5,254.4,1646.1,233.9,1676.9,233.9z M2019.5,160c-101.7,0-155.3,57.3-155.3,160.1c0,141,92.3,163.7,155.5,163.7
		c92.4,0,153.9-49.8,153.9-162.4C2173.6,204.1,2104.4,160,2019.5,160L2019.5,160z M2018.2,233.9c44.7,0,62.5,33.5,62.5,71.6v32.8
		c0,46.2-24.8,72.9-62.6,72.9c-35.4,0-60.2-25-60.2-72.9v-32.8C1957.8,254.4,1987.4,233.9,2018.2,233.9z M2209.1,477.5V10.5
		l94.2-8.2v313l93.5-149.1h99.5l-97.5,154.5L2500,477.5h-99.8l-96.9-152.3v152.3L2209.1,477.5z"/>
</g>
</svg>
