<?xml version="1.0" encoding="utf-8"?>
<!-- Generator: Adobe Illustrator 23.0.0, SVG Export Plug-In . SVG Version: 6.00 Build 0)  -->
<svg version="1.1" id="Layer_1" xmlns="http://www.w3.org/2000/svg" xmlns:xlink="http://www.w3.org/1999/xlink" x="0px" y="0px"
	 viewBox="0 0 2496 2500" style="enable-background:new 0 0 2496 2500;" xml:space="preserve">
<style type="text/css">
	.st0{fill:none;}
	.st1{fill:#FFFFFF;}
</style>
<path class="st0" d="M0.2,0.8h2495.5v2495.5H0.2V0.8z"/>
<path class="st1" d="M1284.5,1817.1l-338-6.2c-109.4-2.2-219.2,2.1-326.5-20.2c-163.2-33.3-174.8-196.8-186.9-334
	c-16.7-192.8-10.2-389.1,21.2-580.3c17.8-107.3,87.7-171.3,195.8-178.3c364.9-25.3,732.2-22.3,1096.3-10.5
	c38.5,1.1,77.2,7,115.1,13.7c187.2,32.8,191.7,218.1,203.9,374.1c12.1,157.6,7,316-16.1,472.5c-18.6,129.6-54.1,238.2-203.9,248.7
	c-187.7,13.7-371.1,24.8-559.3,21.2C1286.1,1817.1,1285.1,1817.1,1284.5,1817.1z M1085.8,1489.1c141.4-81.2,280.2-161.1,420.8-241.7
	c-141.7-81.2-280.2-161.1-420.8-241.7V1489.1z"/>
</svg>
