<svg height="512pt" viewBox="0 -93 512 512" width="512pt" xmlns="http://www.w3.org/2000/svg"><path d="m511.992188 69.132812c0-39.714843-98.597657-62.855468-208.46875-68.019531-15.695313-.734375-31.621094-1.113281-47.515626-1.113281-15.898437 0-31.824218.367188-47.53125 1.113281-109.871093 5.171875-208.476562 28.3125-208.476562 68.019531v1.441407c0 141.152343 114.84375 255.996093 256.003906 255.996093 141.152344 0 255.996094-114.84375 255.996094-255.996093v-1.441407c-.007812.007813-.007812.007813-.007812 0zm-19.339844.007813c-.011719 20.308594-92.195313 49.792969-236.65625 49.792969-144.460938 0-236.636719-29.496094-236.65625-49.792969.011718-20.308594 92.207031-49.792969 236.667968-49.792969 144.460938 0 236.632813 29.488282 236.644532 49.792969zm-236.648438 238.085937c-121.089844 0-221.171875-91.429687-234.972656-208.863281 41.570312 26.292969 138.699219 39.898438 234.972656 39.898438 96.277344 0 193.390625-13.617188 234.964844-39.898438-13.808594 117.441407-113.882812 208.863281-234.964844 208.863281zm0 0"/></svg>