<?xml version="1.0" encoding="UTF-8" standalone="no"?>
<!DOCTYPE svg PUBLIC "-//W3C//DTD SVG 1.1//EN" "http://www.w3.org/Graphics/SVG/1.1/DTD/svg11.dtd">
<svg version="1.1" xmlns="http://www.w3.org/2000/svg" xmlns:xlink="http://www.w3.org/1999/xlink" preserveAspectRatio="xMidYMid meet" viewBox="0 0 640 640" width="640" height="640"><defs><path d="M476.32 9.07C562.34 9.07 632.07 78.8 632.07 164.82C632.07 258.49 632.07 383.77 632.07 477.45C632.07 563.47 562.34 633.2 476.32 633.2C382.87 633.2 258.27 633.2 164.82 633.2C78.8 633.2 9.07 563.47 9.07 477.45C9.07 383.77 9.07 258.49 9.07 164.82C9.07 78.8 78.8 9.07 164.82 9.07C258.27 9.07 382.87 9.07 476.32 9.07Z" id="cvTk8NHp5"></path><path d="M520 320C520 430.39 430.38 520 320 520C209.62 520 120 430.39 120 320C120 209.62 209.62 120 320 120C430.38 120 520 209.62 520 320Z" id="a24emM4O8T"></path></defs><g><g><g><g><use xlink:href="#cvTk8NHp5" opacity="1" fill-opacity="0" stroke="#000000" stroke-width="16" stroke-opacity="1"></use></g></g><g><g><use xlink:href="#a24emM4O8T" opacity="1" fill-opacity="0" stroke="#000000" stroke-width="16" stroke-opacity="1"></use></g></g></g></g></svg>