<?xml version="1.0" encoding="utf-8"?>
<!-- Generator: Adobe Illustrator 23.0.0, SVG Export Plug-In . SVG Version: 6.00 Build 0)  -->
<svg version="1.1" id="work_1" xmlns="http://www.w3.org/2000/svg" xmlns:xlink="http://www.w3.org/1999/xlink" x="0px" y="0px"
	 viewBox="0 0 800 800" style="enable-background:new 0 0 800 800;" xml:space="preserve">
<style type="text/css">
	.st0{fill:#FFFFFF;}
	.st1{fill:#F1F2F2;}
</style>
<g>
	<g>
		<g>
			<path class="st0" d="M449.5,76.4l-8-8c4.3-11,1.8-23.7-6.7-32.2c-11.7-11.7-30.7-11.7-42.4,0c-11.7,11.7-11.7,30.7,0,42.4
				c8.4,8.4,21.1,11,32.2,6.7l8,8c18.9,23.8,31.2,55.2,37.5,96.1c0.2,1.1,1,2,2,2.4c1.1,0.4,2.3,0.1,3.1-0.7l12.7-12.7
				c0.6-0.6,0.9-1.5,0.9-2.4c-1-11.2-2.7-21.6-5.1-31.5l21.2,21.2c1.2,1.2,3.1,1.2,4.2,0l12.7-12.7c1.2-1.2,1.2-3.1,0-4.2
				l-21.2-21.2c9.4,2.3,19.8,4,31.5,5.1c0.9,0.1,1.8-0.2,2.4-0.9l12.7-12.7c0.8-0.8,1.1-2,0.7-3.1c-0.4-1.1-1.3-1.9-2.4-2
				C504.7,107.6,473.2,95.3,449.5,76.4z M419.9,51.1c7.1,7.1,15.4,19.5,15.5,19.6c0,0.1,0.1,0.1,0.2,0.1c0.1,0.1,0.1,0.2,0.2,0.3
				l7.5,7.5l-8.5,8.5l-7.5-7.5c-0.1-0.1-0.2-0.1-0.3-0.2c-0.1,0-0.1-0.1-0.1-0.2c-0.1-0.1-12.5-8.4-19.6-15.5
				c-10.4-10.4-13.2-20.7-10.6-23.3C399.2,37.9,409.6,40.7,419.9,51.1z M470.9,110.9c-0.1,0-0.1-0.1-0.2-0.1
				c-12.6-5.9-22.7-12.8-31.4-19.7l8.5-8.5c23.2,17.8,53,29.7,91.1,36.2l-7.6,7.6C505.9,124.1,486.5,118.2,470.9,110.9z
				 M480.5,133.2c-1.5-4.7-3.1-9.2-4.9-13.7c4.3,1.8,8.9,3.4,13.7,4.9c0.1,0.3,0.3,0.6,0.6,0.9l25.5,25.5l-8.5,8.5l-25.5-25.5
				C481.2,133.5,480.8,133.4,480.5,133.2z M475,182.7c-5.4-31.3-14.4-57-27.3-78.1c5.9,3.9,12.4,7.8,19.8,11.3
				c8,17.4,13,36.8,15.1,59.2L475,182.7z M390.8,49.8c1.9,5.7,6.1,12.2,12.1,18.2c4.6,4.6,11.1,9.6,15.6,12.8
				c-7.8,1.7-16.1-0.6-22-6.4C389.9,67.8,388,58.2,390.8,49.8z M436.9,62.4c-3.2-4.5-8.1-11-12.8-15.6c-6.1-6.1-12.5-10.2-18.2-12.1
				c8.4-2.8,18-0.9,24.6,5.8C436.3,46.3,438.6,54.6,436.9,62.4z"/>
		</g>
		<g>
			<path class="st0" d="M409.8,712.5l8,8c-4.3,11-1.8,23.7,6.7,32.2c11.7,11.7,30.7,11.7,42.4,0c11.7-11.7,11.7-30.7,0-42.4
				c-8.4-8.4-21.1-11-32.2-6.7l-8-8c-18.9-23.8-31.2-55.2-37.5-96.1c-0.2-1.1-1-2-2-2.4c-1.1-0.4-2.3-0.1-3.1,0.7l-12.7,12.7
				c-0.6,0.6-0.9,1.5-0.9,2.4c1,11.2,2.7,21.6,5.1,31.5l-21.2-21.2c-1.2-1.2-3.1-1.2-4.2,0L337.5,636c-1.2,1.2-1.2,3.1,0,4.2
				l21.2,21.2c-9.4-2.3-19.8-4-31.5-5.1c-0.9-0.1-1.8,0.2-2.4,0.9l-12.7,12.7c-0.8,0.8-1.1,2-0.7,3.1c0.4,1.1,1.3,1.9,2.4,2
				C354.6,681.3,386,693.6,409.8,712.5z M439.3,737.8c-7.1-7.1-15.4-19.5-15.5-19.6c0-0.1-0.1-0.1-0.2-0.2c-0.1-0.1-0.1-0.2-0.2-0.3
				l-7.5-7.5l8.5-8.5l7.5,7.5c0.1,0.1,0.2,0.1,0.3,0.2c0.1,0,0.1,0.1,0.1,0.2c0.1,0.1,12.5,8.4,19.6,15.5
				c10.4,10.4,13.2,20.7,10.6,23.3C460.1,751,449.7,748.2,439.3,737.8z M388.4,678c0.1,0,0.1,0.1,0.2,0.1
				c12.6,5.9,22.7,12.8,31.4,19.7l-8.5,8.5c-23.2-17.8-53-29.7-91.1-36.2l7.6-7.6C353.4,664.8,372.8,670.7,388.4,678z M378.7,655.7
				c1.5,4.7,3.1,9.2,4.9,13.7c-4.3-1.8-8.9-3.4-13.7-4.9c-0.1-0.3-0.3-0.6-0.6-0.9l-25.5-25.5l8.5-8.5l25.5,25.5
				C378.1,655.3,378.4,655.5,378.7,655.7z M384.3,606.2c5.4,31.3,14.4,57,27.3,78.1c-5.9-3.9-12.4-7.8-19.8-11.3
				c-8-17.4-13-36.8-15.1-59.2L384.3,606.2z M468.4,739.1c-1.9-5.7-6.1-12.2-12.1-18.2c-4.6-4.6-11.1-9.6-15.6-12.8
				c7.8-1.7,16.1,0.6,22,6.4C469.3,721.1,471.2,730.7,468.4,739.1z M422.3,726.5c3.2,4.5,8.1,11,12.8,15.6
				c6.1,6.1,12.5,10.2,18.2,12.1c-8.4,2.8-18,0.9-24.6-5.8C422.9,742.6,420.7,734.3,422.3,726.5z"/>
		</g>
		<g>
			<path class="st0" d="M698.9,566.9l-8-8c4.3-11,1.8-23.7-6.7-32.2c-11.7-11.7-30.7-11.7-42.4,0c-11.7,11.7-11.7,30.7,0,42.4
				c8.4,8.4,21.1,11,32.2,6.7l8,8c18.9,23.8,31.2,55.2,37.5,96.1c0.2,1.1,1,2,2,2.4c1.1,0.4,2.3,0.1,3.1-0.7l12.7-12.7
				c0.6-0.6,0.9-1.5,0.9-2.4c-1-11.2-2.7-21.6-5.1-31.5l21.2,21.2c1.2,1.2,3.1,1.2,4.2,0l12.7-12.7c1.2-1.2,1.2-3.1,0-4.2L750,618
				c9.4,2.3,19.8,4,31.5,5.1c0.9,0.1,1.8-0.2,2.4-0.9l12.7-12.7c0.8-0.8,1.1-2,0.7-3.1c-0.4-1.1-1.3-1.9-2.4-2
				C754.1,598.1,722.7,585.9,698.9,566.9z M669.4,541.6c7.1,7.1,15.4,19.5,15.5,19.6c0,0.1,0.1,0.1,0.2,0.1c0.1,0.1,0.1,0.2,0.2,0.3
				l7.5,7.5l-8.5,8.5l-7.5-7.5c-0.1-0.1-0.2-0.1-0.3-0.2c-0.1,0-0.1-0.1-0.1-0.2c-0.1-0.1-12.5-8.4-19.6-15.5
				C646.3,544,643.4,533.6,646,531C648.6,528.4,659,531.3,669.4,541.6z M720.3,601.4c-0.1,0-0.1-0.1-0.2-0.1
				c-12.6-5.9-22.7-12.8-31.4-19.7l8.5-8.5c23.2,17.8,53,29.7,91.1,36.2l-7.6,7.6C755.3,614.6,735.9,608.8,720.3,601.4z
				 M729.9,623.7c-1.5-4.7-3.1-9.2-4.9-13.7c4.3,1.8,8.9,3.4,13.7,4.9c0.1,0.3,0.3,0.6,0.6,0.9l25.5,25.5l-8.5,8.5l-25.5-25.5
				C730.6,624.1,730.3,623.9,729.9,623.7z M724.4,673.2c-5.4-31.3-14.4-57-27.3-78.1c5.9,3.9,12.4,7.8,19.8,11.3
				c8,17.4,13,36.8,15.1,59.2L724.4,673.2z M640.3,540.4c1.9,5.7,6.1,12.2,12.1,18.2c4.6,4.6,11.1,9.6,15.6,12.8
				c-7.8,1.7-16.1-0.6-22-6.4C639.4,558.3,637.5,548.7,640.3,540.4z M686.4,553c-3.2-4.5-8.1-11-12.8-15.6
				c-6.1-6.1-12.5-10.2-18.2-12.1c8.4-2.8,18-0.9,24.6,5.8C685.8,536.8,688,545.1,686.4,553z"/>
		</g>
		<g>
			<path class="st0" d="M176.7,387.2c0.3,1.7,1.4,3.1,3.1,3.6c1.6,0.5,3.4,0.1,4.6-1.1l19.1-19.1c0.9-0.9,1.4-2.2,1.3-3.6
				c-1.5-17.5-4.2-33.1-7.6-47.2l31.7,31.7c1.8,1.8,4.6,1.8,6.4,0l19.1-19.1c1.8-1.8,1.8-4.6,0-6.4l-31.8-31.8
				c14.8,3.6,30.5,6.1,47.3,7.6c1.3,0.1,2.6-0.4,3.6-1.3l19.1-19.1c1.2-1.2,1.6-3,1.1-4.6c-0.5-1.6-1.9-2.8-3.6-3
				c-61.3-9.4-108.4-27.8-144.1-56.2l-12-12c6.5-16.5,2.6-35.6-10-48.2c-17.5-17.5-46.1-17.5-63.6,0c-17.5,17.5-17.5,46.1,0,63.6
				c12.7,12.7,31.7,16.5,48.2,10l12,12C148.8,278.7,167.2,325.9,176.7,387.2z M66.6,163.8c3.9-3.9,19.5,0.4,35,15.9
				c10.6,10.6,23.1,29.3,23.2,29.5c0.1,0.1,0.2,0.1,0.2,0.2c0.1,0.2,0.2,0.3,0.3,0.5l11.2,11.2l-12.7,12.7l-11.2-11.2
				c-0.1-0.1-0.3-0.2-0.5-0.3c-0.1-0.1-0.1-0.2-0.2-0.2c-0.2-0.1-18.8-12.6-29.5-23.2C66.9,183.2,62.7,167.7,66.6,163.8z
				 M195.5,365.7l-11.4,11.4c-9.8-57-27.6-101.8-54.3-136.6l12.7-12.7c10.3,13.1,20.6,28.3,29.5,47.2c0,0.1,0.1,0.2,0.1,0.3
				C183.2,298.6,192,327.7,195.5,365.7z M206.6,291.1l38.2,38.2L232,342l-38.2-38.2c-0.4-0.4-0.9-0.7-1.3-0.9
				c-2.3-7.3-4.7-14.1-7.4-20.6c6.6,2.7,13.5,5.2,20.5,7.3C205.9,290.2,206.2,290.6,206.6,291.1z M268.5,292.7
				c-33.6-3.2-62.7-10.6-88.8-22.6c-5.3-11-11-20.8-16.9-29.7c31.6,19.4,70.2,32.9,117.1,40.9L268.5,292.7z M117.5,163.8
				c8.7,8.7,12.1,21.2,9.6,32.9c-4.8-6.7-12.2-16.4-19.2-23.4c-9.1-9.1-18.8-15.3-27.3-18.2C93.1,151,107.5,153.8,117.5,163.8z
				 M66.6,214.7c-10-10-12.8-24.4-8.6-36.9c2.8,8.6,9.1,18.2,18.2,27.3c6.9,6.9,16.7,14.4,23.4,19.2
				C87.8,226.8,75.3,223.4,66.6,214.7z"/>
		</g>
		<g>
			<path class="st0" d="M573.2,399.5v17c-16.3,7.1-27,23.3-27,41.2c0,24.8,20.2,45,45,45s45-20.2,45-45c0-17.9-10.7-34.1-27-41.2
				v-17c5.1-45.3,25.4-91.6,62.1-141.6c1-1.4,1.2-3.2,0.4-4.7c-0.8-1.5-2.3-2.5-4-2.5h-27c-1.3,0-2.6,0.6-3.4,1.6
				c-10.8,12.9-20.1,25.8-28.1,38.8v-44.9c0-2.5-2-4.5-4.5-4.5h-27c-2.5,0-4.5,2-4.5,4.5V291c-7.6-12.4-16.8-25.3-28.1-38.8
				c-0.9-1-2.1-1.6-3.4-1.6h-27c-1.7,0-3.2,1-4,2.5c-0.8,1.5-0.6,3.3,0.4,4.7C547.8,307.8,568.1,354.2,573.2,399.5z M577.7,457.7
				c0-15.1,4.4-37,4.4-37.3c0-0.1,0-0.2,0-0.3c0-0.2,0.1-0.4,0.1-0.6v-15.9h18v15.9c0,0.2,0.1,0.4,0.1,0.6c0,0.1,0,0.2,0,0.3
				c0,0.2,4.4,22.2,4.4,37.3c0,22-8,36-13.5,36C585.7,493.7,577.7,479.6,577.7,457.7z M587.1,340.2c0,0.1,0.1,0.2,0.1,0.3
				c7.1,19.6,10.5,37.7,12.5,54.2h-18c-5.7-43.5-24.8-87.8-58.2-135h16.1C564,289.1,578.3,315.8,587.1,340.2z M600.6,306.3
				c-3.4,6.5-6.5,13.1-9.3,19.7c-2.7-6.4-5.8-13-9.3-19.8c0.2-0.5,0.3-1,0.3-1.6v-54h18v54C600.2,305.2,600.4,305.8,600.6,306.3z
				 M658.9,259.7c-27.5,38.9-45.2,75.7-53.9,111.7c-2.1-10.5-5-21.4-9-32.9c9.9-27,25.2-52.8,46.8-78.8H658.9z M607.3,489.8
				c4-8,6.5-19.3,6.5-32.2c0-9.8-1.7-22-3-30.1c10.1,6.5,16.5,17.8,16.5,30.1C627.2,471.7,619.1,483.9,607.3,489.8z M571.7,427.6
				c-1.3,8.1-3,20.3-3,30.1c0,12.9,2.4,24.1,6.5,32.2c-11.8-5.9-20-18.1-20-32.2C555.2,445.3,561.7,434.1,571.7,427.6z"/>
		</g>
		<g>
			<path class="st0" d="M267.4,551.8c1.7-0.3,3.1-1.4,3.6-3c0.5-1.6,0.1-3.4-1.1-4.6l-19.1-19.1c-0.9-0.9-2.2-1.4-3.6-1.3
				c-17.5,1.5-33.1,4.2-47.2,7.6l31.7-31.7c1.8-1.8,1.8-4.6,0-6.4l-19.1-19.1c-1.8-1.8-4.6-1.8-6.4,0l-31.8,31.8
				c3.6-14.8,6.1-30.5,7.6-47.3c0.1-1.3-0.4-2.6-1.3-3.6L161.7,436c-1.2-1.2-3-1.6-4.6-1.1c-1.6,0.5-2.8,1.9-3,3.6
				c-9.4,61.3-27.8,108.4-56.2,144.1l-12,12c-16.5-6.5-35.6-2.6-48.2,10c-17.5,17.5-17.5,46.1,0,63.6c17.5,17.5,46.1,17.5,63.6,0
				c12.7-12.7,16.5-31.7,10-48.2l12-12C159,579.6,206.1,561.2,267.4,551.8z M44,661.9c-3.9-3.9,0.4-19.5,15.9-35
				c10.6-10.6,29.3-23.1,29.5-23.2c0.1-0.1,0.1-0.2,0.2-0.2c0.2-0.1,0.3-0.2,0.5-0.3l11.2-11.2l12.7,12.7l-11.2,11.2
				c-0.1,0.1-0.2,0.3-0.3,0.5c-0.1,0.1-0.2,0.1-0.2,0.2c-0.1,0.2-12.6,18.8-23.2,29.5C63.5,661.5,47.9,665.8,44,661.9z M246,532.9
				l11.4,11.4c-57,9.8-101.8,27.6-136.6,54.3L108,585.9c13.1-10.3,28.3-20.6,47.2-29.5c0.1,0,0.2-0.1,0.3-0.1
				C178.9,545.3,208,536.5,246,532.9z M171.3,521.9l38.2-38.2l12.7,12.7L184,534.6c-0.4,0.4-0.7,0.9-0.9,1.3
				c-7.3,2.3-14.1,4.7-20.6,7.4c2.7-6.6,5.2-13.5,7.3-20.5C170.4,522.6,170.9,522.3,171.3,521.9z M173,459.9
				c-3.2,33.6-10.6,62.7-22.6,88.8c-11,5.3-20.8,11-29.7,16.9c19.4-31.6,32.9-70.2,40.9-117.1L173,459.9z M44,611
				c8.7-8.7,21.2-12.1,32.9-9.6c-6.7,4.8-16.4,12.2-23.4,19.2c-9.1,9.1-15.3,18.8-18.2,27.3C31.2,635.3,34,620.9,44,611z
				 M94.9,661.9c-10,10-24.4,12.8-36.9,8.6c8.6-2.8,18.2-9.1,27.3-18.2c6.9-6.9,14.4-16.7,19.2-23.4
				C107,640.7,103.6,653.2,94.9,661.9z"/>
		</g>
		<g>
			<path class="st0" d="M666.4,777.1c0.1,0,0.2-0.1,0.3-0.1c23.4-11,52.5-19.8,90.5-23.3l11.4,11.4c-42,7.2-77.3,18.7-106.9,35h20
				c27.5-12.7,59.6-21.8,97-27.5c1.7-0.3,3.1-1.4,3.6-3c0.5-1.6,0.1-3.4-1.1-4.6l-19.1-19.1c-0.9-0.9-2.2-1.4-3.6-1.3
				c-17.5,1.5-33.1,4.2-47.2,7.6l31.7-31.7c1.8-1.8,1.8-4.6,0-6.4l-19.1-19.1c-1.8-1.8-4.6-1.8-6.4,0l-31.8,31.8
				c3.6-14.8,6.1-30.5,7.6-47.3c0.1-1.3-0.4-2.6-1.3-3.6L673,656.7c-1.2-1.2-3-1.6-4.6-1.1c-1.6,0.5-2.8,1.9-3,3.6
				c-9.2,59.5-26.7,105.6-53.7,140.8H628C639.1,792,651.6,784.1,666.4,777.1z M720.7,704.4l12.7,12.7l-38.2,38.2
				c-0.4,0.4-0.7,0.9-0.9,1.3c-7.3,2.3-14.1,4.7-20.6,7.4c2.7-6.6,5.2-13.5,7.3-20.5c0.5-0.2,1-0.5,1.4-0.9L720.7,704.4z
				 M672.8,669.3l11.4,11.4c-3.2,33.6-10.6,62.7-22.6,88.8c-11,5.3-20.8,11-29.7,16.9C651.3,754.8,664.8,716.2,672.8,669.3z"/>
		</g>
		<path class="st0" d="M681.7,0h-20c-10.6,5.8-20.5,12.3-29.7,19.3L619.3,6.6c2.8-2.2,5.7-4.4,8.8-6.6h-16.4
			c-0.8,1.1-1.7,2.2-2.5,3.3l-12,12c-16.5-6.5-35.6-2.6-48.2,10c-17.5,17.5-17.5,46.1,0,63.6c17.5,17.5,46.1,17.5,63.6,0
			c12.7-12.7,16.5-31.7,10-48.2l12-12C648.5,17.6,664.2,8.1,681.7,0z M546.6,68.6c-4.2-12.5-1.3-26.9,8.6-36.9
			c8.7-8.7,21.2-12.1,32.9-9.6c-6.7,4.8-16.4,12.2-23.4,19.2C555.7,50.3,549.4,60,546.6,68.6z M606.2,82.6
			c-10,10-24.4,12.8-36.9,8.6c8.6-2.8,18.2-9.1,27.3-18.2c6.9-6.9,14.4-16.7,19.2-23.4C618.3,61.4,614.9,73.9,606.2,82.6z M614,36.5
			c-0.1,0.1-0.2,0.3-0.3,0.5c-0.1,0.1-0.2,0.1-0.2,0.2c-0.1,0.2-12.6,18.8-23.2,29.5c-15.5,15.5-31.1,19.8-35,15.9
			c-3.9-3.9,0.4-19.5,15.9-35c10.6-10.6,29.3-23.1,29.5-23.2c0.1-0.1,0.1-0.2,0.2-0.2c0.2-0.1,0.3-0.2,0.5-0.3l11.2-11.2l12.7,12.7
			L614,36.5z"/>
	</g>
	<g>
		<g>
			<path class="st1" d="M379.1,124.5c-5.9-3.8-25.8-17.3-31.4-31.7c0,0-0.1-0.1-0.1-0.1c0-0.1-0.1-0.1-0.1-0.2
				c0-0.1-0.1-0.2-0.2-0.2c-0.1-0.1-0.2-0.3-0.3-0.4c-0.1-0.1-0.1-0.1-0.2-0.2c-0.1,0-0.1-0.1-0.2-0.1c-0.2-0.1-0.3-0.2-0.5-0.3
				c-0.1,0-0.1-0.1-0.2-0.1c0,0-0.1,0-0.1,0c-0.3-0.1-0.6-0.2-1-0.2s-0.7,0.1-1,0.2c0,0-0.1,0-0.1,0c-0.1,0-0.2,0.1-0.2,0.1
				c-0.2,0.1-0.3,0.2-0.5,0.3c-0.1,0-0.1,0.1-0.2,0.1c-0.1,0.1-0.1,0.1-0.2,0.2c-0.1,0.1-0.2,0.2-0.3,0.4c-0.1,0.1-0.1,0.2-0.2,0.3
				c0,0.1-0.1,0.1-0.1,0.2c0,0-0.1,0.1-0.1,0.1c-5.7,14.4-25.5,27.9-31.4,31.7c-35,22.4-52.8,39.5-52.8,71
				c0,21.7,7.9,38.8,23.3,50.9c14.6,11.4,39,18.5,63.7,18.5c24.6,0,49-7.1,63.7-18.5c15.5-12,23.3-29.2,23.3-50.9
				C431.9,164,414.1,146.9,379.1,124.5z M335.3,119.1c-1.5,3.7-2.9,6.5-3.6,8c-11.1,21.9-16.8,38.6-16.8,69c0,21,2.5,37.5,7.4,49.3
				c1.8,4.4,4.2,8.1,6.8,11.2c-9.4-2.7-17.9-7.7-23.8-14.3c-9.5-10.8-14.4-26.3-14.4-46.1c0-28.9,10.9-44.1,33.8-65.4
				C326.8,128.8,331,124.6,335.3,119.1z M327.8,243.1c-4.6-11-6.9-26.8-6.9-46.9c0-29.2,5.4-45.2,16.2-66.3
				c1.5-2.9,5.1-10.5,7.8-20.1c2.7,9.5,6.4,17.2,7.8,20.1c10.7,21,16.2,37.1,16.2,66.3c0,20.2-2.3,35.9-6.9,46.9
				c-4.1,9.7-10.6,15.8-17.1,15.8S331.9,252.8,327.8,243.1z M367.5,245.4c4.9-11.7,7.4-28.3,7.4-49.3c0-30.4-5.7-47.1-16.8-69
				c-0.7-1.5-2.1-4.3-3.6-8c4.3,5.4,8.5,9.6,10.6,11.6c22.9,21.3,33.8,36.6,33.8,65.4c0,19.8-4.8,35.3-14.4,46.1
				c-5.9,6.7-14.4,11.6-23.8,14.3C363.3,253.5,365.6,249.8,367.5,245.4z M284.9,241.6c-13.9-10.8-21-26.4-21-46.1
				c0-28.7,16.8-44.7,50-66c3-1.9,7.5-4.9,12.3-8.8c-2.3,2.5-4.3,4.5-5.5,5.6c-23.7,22.1-35.7,38.9-35.7,69.8
				c0,21.3,5.3,38.2,15.9,50.1c2.4,2.7,5.1,5.1,8.2,7.3C299.5,250.6,291.2,246.5,284.9,241.6z M404.9,241.6
				c-6.3,4.9-14.6,8.9-24,11.9c3-2.2,5.8-4.6,8.2-7.3c10.5-11.9,15.9-28.8,15.9-50.1c0-30.9-12-47.8-35.7-69.8
				c-1.2-1.1-3.2-3.1-5.5-5.6c4.8,3.9,9.3,6.9,12.3,8.8c33.2,21.2,50,37.3,50,66C425.9,215.2,418.8,230.8,404.9,241.6z"/>
		</g>
		<g>
			<path class="st1" d="M519.9,705.2c5.9,3.8,25.8,17.3,31.4,31.7c0,0,0.1,0.1,0.1,0.1c0,0.1,0.1,0.1,0.1,0.2c0,0.1,0.1,0.2,0.2,0.2
				c0.1,0.1,0.2,0.3,0.3,0.4c0.1,0.1,0.1,0.1,0.2,0.2c0.1,0,0.1,0.1,0.2,0.1c0.2,0.1,0.3,0.2,0.5,0.3c0.1,0,0.1,0.1,0.2,0.1
				c0,0,0.1,0,0.1,0c0.3,0.1,0.6,0.2,1,0.2s0.7-0.1,1-0.2c0,0,0.1,0,0.1,0c0.1,0,0.2-0.1,0.2-0.1c0.2-0.1,0.3-0.2,0.5-0.3
				c0.1,0,0.1-0.1,0.2-0.1c0.1-0.1,0.1-0.1,0.2-0.2c0.1-0.1,0.2-0.2,0.3-0.4c0.1-0.1,0.1-0.2,0.2-0.3c0-0.1,0.1-0.1,0.1-0.2
				c0,0,0.1-0.1,0.1-0.1c5.7-14.4,25.5-27.9,31.4-31.7c35-22.4,52.8-39.5,52.8-71c0-21.7-7.9-38.8-23.3-50.9
				c-14.6-11.4-39-18.5-63.7-18.5c-24.6,0-49,7.1-63.7,18.5c-15.5,12-23.3,29.2-23.3,50.9C467.2,665.7,484.9,682.8,519.9,705.2z
				 M563.7,710.5c1.5-3.7,2.9-6.5,3.6-8c11.1-21.9,16.8-38.6,16.8-69c0-21-2.5-37.5-7.4-49.3c-1.8-4.4-4.2-8.1-6.8-11.2
				c9.4,2.7,17.9,7.7,23.8,14.3c9.5,10.8,14.4,26.3,14.4,46.1c0,28.9-10.9,44.1-33.8,65.4C572.3,700.9,568,705.1,563.7,710.5z
				 M571.2,586.6c4.6,11,6.9,26.8,6.9,46.9c0,29.2-5.4,45.2-16.2,66.3c-1.5,2.9-5.1,10.5-7.8,20.1c-2.7-9.5-6.4-17.2-7.8-20.1
				c-10.7-21-16.2-37.1-16.2-66.3c0-20.2,2.3-35.9,6.9-46.9c4.1-9.7,10.6-15.8,17.1-15.8C560.6,570.9,567.2,576.9,571.2,586.6z
				 M531.6,584.3c-4.9,11.7-7.4,28.3-7.4,49.3c0,30.4,5.7,47.1,16.8,69c0.7,1.5,2.1,4.3,3.6,8c-4.3-5.4-8.5-9.6-10.6-11.6
				c-22.9-21.3-33.8-36.6-33.8-65.4c0-19.8,4.8-35.3,14.4-46.1c5.9-6.7,14.4-11.6,23.8-14.3C535.7,576.2,533.4,579.9,531.6,584.3z
				 M614.1,588.1c13.9,10.8,21,26.4,21,46.1c0,28.7-16.8,44.7-50,66c-3,1.9-7.5,4.9-12.3,8.8c2.3-2.5,4.3-4.5,5.5-5.6
				c23.7-22.1,35.7-38.9,35.7-69.8c0-21.3-5.3-38.2-15.9-50.1c-2.4-2.7-5.1-5.1-8.2-7.3C599.5,579.1,607.8,583.2,614.1,588.1z
				 M494.2,588.1c6.3-4.9,14.6-8.9,24-11.9c-3,2.2-5.8,4.6-8.2,7.3c-10.5,11.9-15.9,28.8-15.9,50.1c0,30.9,12,47.8,35.7,69.8
				c1.2,1.1,3.2,3.1,5.5,5.6c-4.8-3.9-9.3-6.9-12.3-8.8c-33.2-21.2-50-37.3-50-66C473.2,614.4,480.2,598.9,494.2,588.1z"/>
		</g>
		<g>
			<path class="st1" d="M786.8,141.3c-1.5-6.9-6-30.5,0.2-44.7c0,0,0-0.1,0-0.1c0-0.1,0-0.1,0.1-0.2c0-0.1,0-0.2,0.1-0.3
				c0-0.2,0.1-0.3,0.1-0.5c0-0.1,0-0.2,0-0.2c0-0.1,0-0.1,0-0.2c0-0.2-0.1-0.4-0.1-0.6c0-0.1,0-0.2-0.1-0.2c0,0,0-0.1-0.1-0.1
				c-0.1-0.3-0.3-0.6-0.6-0.8c-0.2-0.2-0.5-0.4-0.8-0.6c0,0-0.1,0-0.1-0.1c-0.1,0-0.2,0-0.3-0.1c-0.2-0.1-0.4-0.1-0.6-0.1
				c-0.1,0-0.1,0-0.2,0c-0.1,0-0.2,0-0.3,0c-0.2,0-0.3,0-0.5,0.1c-0.1,0-0.2,0-0.3,0.1c-0.1,0-0.1,0-0.2,0.1c0,0-0.1,0-0.1,0
				c-14.2,6.2-37.8,1.7-44.7,0.2c-40.6-8.9-65.3-9.4-87.5,12.9c-15.4,15.4-21.9,33-19.5,52.5c2.3,18.4,14.5,40.7,32,58.1
				c17.4,17.4,39.7,29.7,58.1,32c19.5,2.4,37.1-4.1,52.5-19.5C796.2,206.6,795.7,181.9,786.8,141.3z M759.6,106.6
				c-3.7,1.6-6.7,2.6-8.2,3.1c-23.4,7.6-39.2,15.4-60.7,36.9c-14.8,14.8-24.8,28.3-29.6,40.1c-1.8,4.4-2.8,8.7-3.1,12.7
				c-4.8-8.6-7.3-18.1-6.7-27c0.9-14.4,8.4-28.8,22.4-42.8c20.4-20.4,38.9-23.5,70.2-22.3C746.8,107.3,752.7,107.4,759.6,106.6z
				 M666.7,188.9c4.5-11,14-23.8,28.3-38.1c20.6-20.6,35.8-28.1,58.3-35.4c3.1-1,11.1-3.8,19.7-8.6c-4.8,8.7-7.7,16.7-8.6,19.7
				c-7.3,22.5-14.8,37.6-35.4,58.3c-14.2,14.2-27.1,23.8-38.1,28.3c-9.8,4-18.6,3.6-23.2-0.9S662.7,198.6,666.7,188.9z M693.1,218.6
				c11.8-4.8,25.2-14.8,40.1-29.6c21.5-21.5,29.3-37.3,36.9-60.7c0.5-1.6,1.5-4.5,3.1-8.2c-0.8,6.9-0.8,12.8-0.7,15.7
				c1.1,31.3-1.9,49.8-22.3,70.2c-14,14-28.4,21.5-42.8,22.4c-8.9,0.5-18.4-1.9-27-6.7C684.4,221.4,688.7,220.4,693.1,218.6z
				 M637.4,157.5c-2.2-17.5,3.8-33.5,17.8-47.5c20.3-20.3,43.5-19.7,82-11.3c3.4,0.8,8.8,1.8,14.9,2.4c-3.4,0.2-6.2,0.1-7.9,0.1
				c-32.4-1.2-52.8,2.2-74.6,24.1c-15.1,15.1-23.2,30.8-24.2,46.6c-0.2,3.6,0,7.2,0.6,10.9C641.4,174.2,638.4,165.5,637.4,157.5z
				 M722.2,242.4c-7.9-1-16.7-4-25.4-8.6c3.7,0.6,7.3,0.9,10.9,0.6c15.9-1,31.6-9.1,46.6-24.2c21.9-21.9,25.3-42.3,24.1-74.6
				c-0.1-1.7-0.1-4.5,0.1-7.9c0.7,6.1,1.7,11.5,2.4,14.9c8.4,38.5,9,61.7-11.3,82C755.7,238.6,739.7,244.5,722.2,242.4z"/>
		</g>
		<g>
			<path class="st1" d="M481.4,479.4c5.7-8.9,26-38.7,47.6-47.1c0.1,0,0.1-0.1,0.2-0.1c0.1,0,0.2-0.1,0.3-0.1
				c0.1-0.1,0.2-0.2,0.4-0.2c0.2-0.1,0.4-0.3,0.6-0.5c0.1-0.1,0.2-0.2,0.3-0.2c0.1-0.1,0.1-0.2,0.2-0.2c0.2-0.2,0.3-0.5,0.5-0.8
				c0.1-0.1,0.1-0.2,0.2-0.3c0-0.1,0-0.1,0-0.2c0.2-0.5,0.3-0.9,0.3-1.5c0-0.5-0.1-1-0.3-1.5c0-0.1,0-0.1,0-0.2
				c0-0.1-0.1-0.2-0.2-0.4c-0.1-0.3-0.3-0.5-0.4-0.8c-0.1-0.1-0.1-0.2-0.2-0.2c-0.1-0.1-0.2-0.2-0.3-0.3c-0.2-0.2-0.4-0.3-0.6-0.5
				c-0.1-0.1-0.2-0.2-0.4-0.2c-0.1-0.1-0.2-0.1-0.3-0.1c-0.1,0-0.1-0.1-0.2-0.1c-21.6-8.5-41.9-38.2-47.6-47.1
				c-33.6-52.5-59.3-79.2-106.5-79.2c-32.6,0-58.3,11.8-76.3,35c-17.1,22-27.7,58.6-27.7,95.5c0,36.9,10.6,73.5,27.7,95.5
				c18.1,23.2,43.7,35,76.3,35C422.1,558.6,447.8,531.9,481.4,479.4z M489.4,413.7c-5.6-2.3-9.8-4.3-12-5.4
				c-32.8-16.7-57.8-25.2-103.5-25.2c-31.4,0-56.3,3.7-73.9,11.1c-6.6,2.7-12.2,6.2-16.8,10.2c4-14.2,11.5-26.9,21.5-35.7
				c16.2-14.3,39.5-21.6,69.2-21.6c43.3,0,66.2,16.4,98.1,50.7C474.9,401,481.2,407.3,489.4,413.7z M303.5,402.5
				c16.5-6.9,40.2-10.4,70.4-10.4c43.8,0,67.8,8.2,99.4,24.2c4.3,2.2,15.8,7.7,30.1,11.8c-14.3,4.1-25.8,9.6-30.1,11.8
				c-31.6,16.1-55.6,24.2-99.4,24.2c-30.2,0-53.9-3.5-70.4-10.4c-14.6-6.1-23.6-15.9-23.6-25.6C279.9,418.4,288.9,408.6,303.5,402.5
				z M300,462c17.6,7.4,42.4,11.1,73.9,11.1c45.6,0,70.6-8.5,103.5-25.2c2.2-1.1,6.4-3.2,12-5.4c-8.2,6.5-14.4,12.8-17.3,15.9
				c-32,34.4-54.8,50.7-98.1,50.7c-29.7,0-53-7.3-69.2-21.6c-10-8.8-17.4-21.6-21.5-35.7C287.8,455.8,293.5,459.2,300,462z
				 M305.7,338.1c16.3-20.9,39.6-31.5,69.2-31.5c43.1,0,67.1,25.3,98.9,75c2.8,4.4,7.4,11.2,13.2,18.4c-3.8-3.5-6.7-6.5-8.4-8.3
				c-33.1-35.6-58.4-53.6-104.7-53.6c-32,0-57.2,8-75.1,23.8c-4,3.6-7.7,7.7-10.9,12.2C292.3,360.1,298.3,347.6,305.7,338.1z
				 M305.7,518.1c-7.4-9.5-13.4-21.9-17.8-36.1c3.3,4.5,6.9,8.7,10.9,12.2c17.9,15.8,43.2,23.8,75.1,23.8
				c46.4,0,71.6-18.1,104.7-53.6c1.7-1.8,4.6-4.8,8.4-8.3c-5.8,7.2-10.4,13.9-13.2,18.4c-31.8,49.8-55.9,75-98.9,75
				C345.2,549.6,322,539,305.7,518.1z"/>
		</g>
		<g>
			<g>
				<path class="st1" d="M62.5,791.7c-3.3-26.3,5.7-50.3,26.6-71.2c30.4-30.4,65.3-29.6,123-16.9c5.2,1.1,13.2,2.7,22.3,3.7
					c-5.1,0.2-9.3,0.2-11.8,0.1c-48.5-1.7-79.2,3.4-112,36.1c-18.4,18.4-29.9,37.4-34.3,56.6h9.3c4.4-16.9,14.9-33.8,31.4-50.2
					c30.6-30.6,58.3-35.2,105.3-33.5c4.3,0.2,13.2,0.2,23.5-1c-5.5,2.3-10,3.9-12.3,4.6c-35,11.4-58.7,23.1-91,55.3
					c-8.6,8.6-16.1,16.8-22.4,24.8h11.7c5.1-5.9,10.8-12.1,17.1-18.4c31-31,53.7-42.2,87.4-53.2c4.6-1.5,16.6-5.7,29.6-13
					c-7.2,13-11.5,25-13,29.6c-6.8,21-13.8,37.8-25.5,54.9h10.8c10.3-16.2,16.8-32.3,23.3-52.1c0.8-2.4,2.3-6.8,4.6-12.3
					c-1.2,10.3-1.2,19.2-1,23.5c0.6,15.5,0.4,28.9-1.1,41h9c1.5-12.4,1.6-25.9,1.1-41.3c-0.1-2.5-0.1-6.7,0.1-11.8
					c1,9.2,2.5,17.2,3.7,22.3c2.4,11.1,4.4,21.3,5.8,30.8h9.1c-1.5-10.1-3.6-21-6.2-32.7c-2.3-10.3-9-45.7,0.3-67
					c0-0.1,0-0.1,0.1-0.2c0-0.1,0.1-0.2,0.1-0.3c0-0.1,0.1-0.3,0.1-0.4c0-0.3,0.1-0.5,0.1-0.8c0-0.1,0-0.2,0-0.4c0-0.1,0-0.2,0-0.3
					c0-0.3-0.1-0.6-0.2-0.9c0-0.1-0.1-0.3-0.1-0.4c0,0-0.1-0.1-0.1-0.1c-0.2-0.4-0.5-0.9-0.8-1.2c-0.4-0.4-0.8-0.6-1.2-0.8
					c0,0-0.1-0.1-0.1-0.1c-0.1-0.1-0.3-0.1-0.4-0.1c-0.3-0.1-0.6-0.2-0.8-0.2c-0.1,0-0.2,0-0.3,0c-0.1,0-0.3,0-0.4,0
					c-0.3,0-0.5,0-0.8,0.1c-0.1,0-0.3,0-0.4,0.1c-0.1,0-0.2,0.1-0.3,0.1c-0.1,0-0.1,0-0.2,0.1c-21.3,9.3-56.6,2.6-67,0.3
					c-60.9-13.4-97.9-14.1-131.3,19.3c-23,23-32.9,49.5-29.2,78.7c0.3,2.4,0.7,4.8,1.2,7.2H64C63.4,797.2,62.9,794.4,62.5,791.7z"/>
			</g>
			<g>
				<path class="st1" d="M283.7,0c6,40.1,1.9,67.6-22.8,92.2c-21,21-44.9,29.9-71.2,26.6c-11.9-1.5-25-6-38.1-12.9
					c5.5,0.9,11,1.3,16.4,0.9c23.8-1.5,47.4-13.7,70-36.3c22.4-22.4,31.9-43.8,35.1-70.7h-9c-3.1,24.6-11.9,43.8-32.4,64.3
					c-21,21-42.6,32.3-64.2,33.6c-13.3,0.8-27.6-2.9-40.4-10.1c6-0.4,12.5-1.9,19.1-4.6c17.6-7.2,37.9-22.2,60.1-44.4
					c14-14,24.2-26.4,32.1-38.9h-10.8c-7.1,10.3-16,20.8-27.6,32.5c-21.4,21.4-40.6,35.6-57.1,42.4c-14.6,6-28,5.5-34.8-1.4
					c-6.8-6.8-7.4-20.2-1.4-34.8c4.8-11.6,13.3-24.6,25.3-38.7h-11.7c-10.2,12.6-17.5,24.5-22,35.3c-2.7,6.6-4.2,13-4.6,19.1
					c-7.2-12.9-10.9-27.2-10.1-40.4c0.3-4.6,1-9.3,2.2-13.9h-9.3c-1,4.4-1.7,8.9-2,13.4c-0.3,5.4,0,10.9,0.9,16.4
					C70.1,19.6,66.2,9.5,64,0h-9.2c5.4,26.1,22.8,56,46.7,79.9c26.1,26.1,59.5,44.5,87.1,47.9c29.2,3.6,55.7-6.2,78.7-29.2
					c27-27,31.7-56.3,25.5-98.6H283.7z"/>
			</g>
		</g>
		<g>
			<g>
				<path class="st1" d="M8.3,288.5c26.3-3.3,50.3,5.7,71.2,26.6c30.4,30.4,29.6,65.3,16.9,123c-1.1,5.2-2.7,13.2-3.7,22.3
					c-0.2-5.1-0.2-9.3-0.1-11.8c1.7-48.5-3.4-79.2-36.2-112C38.2,318.3,19.3,306.8,0,302.4v9.3c16.9,4.4,33.8,14.9,50.2,31.4
					c30.6,30.6,35.2,58.3,33.5,105.3c-0.2,4.3-0.2,13.2,1,23.5c-2.3-5.5-3.9-10-4.6-12.3c-11.4-35-23.1-58.7-55.3-91
					c-8.6-8.6-16.8-16-24.8-22.4v11.7c5.9,5.1,12.1,10.8,18.4,17.1c31,31,42.2,53.7,53.2,87.4c1.5,4.6,5.7,16.6,13,29.6
					c-13-7.2-25-11.5-29.6-13c-21-6.8-37.8-13.8-54.9-25.5v10.8c16.2,10.3,32.3,16.8,52.1,23.3c2.4,0.8,6.8,2.3,12.3,4.6
					c-10.3-1.2-19.2-1.2-23.5-1c-15.5,0.6-28.9,0.4-41-1.1v9c12.4,1.5,25.9,1.6,41.3,1.1c2.5-0.1,6.7-0.1,11.8,0.1
					c-9.2,1-17.2,2.5-22.3,3.7c-11.1,2.4-21.3,4.4-30.8,5.8v9.1c10.1-1.5,21-3.6,32.7-6.2c10.3-2.3,45.7-9,67,0.3
					c0.1,0,0.1,0,0.2,0.1c0.1,0,0.2,0.1,0.3,0.1c0.1,0,0.3,0.1,0.4,0.1c0.3,0,0.5,0.1,0.8,0.1c0.1,0,0.2,0,0.4,0c0.1,0,0.2,0,0.3,0
					c0.3,0,0.6-0.1,0.9-0.2c0.1,0,0.3-0.1,0.4-0.1c0,0,0.1-0.1,0.1-0.1c0.4-0.2,0.9-0.5,1.2-0.8c0.4-0.4,0.6-0.8,0.8-1.2
					c0,0,0.1-0.1,0.1-0.1c0.1-0.1,0.1-0.3,0.1-0.4c0.1-0.3,0.2-0.6,0.2-0.8c0-0.1,0-0.2,0-0.3c0-0.1,0-0.3,0-0.4
					c0-0.3,0-0.5-0.1-0.8c0-0.1,0-0.3-0.1-0.4c0-0.1-0.1-0.2-0.1-0.3c0-0.1,0-0.1-0.1-0.2c-9.3-21.3-2.6-56.6-0.3-67
					c13.4-60.9,14.1-97.9-19.3-131.3c-23-23-49.5-32.9-78.7-29.2c-2.4,0.3-4.8,0.7-7.2,1.2v9.2C2.8,289.3,5.6,288.8,8.3,288.5z"/>
			</g>
			<g>
				<path class="st1" d="M800,509.7c-40.1,6-67.6,1.9-92.2-22.8c-21-21-29.9-44.9-26.6-71.2c1.5-11.9,6-25,12.9-38.1
					c-0.9,5.5-1.3,11-0.9,16.4c1.5,23.8,13.7,47.4,36.3,70c22.4,22.4,43.8,31.9,70.7,35.1v-9c-24.6-3.1-43.8-11.9-64.3-32.4
					c-21-21-32.3-42.6-33.6-64.2c-0.8-13.3,2.9-27.6,10.1-40.4c0.4,6,1.9,12.5,4.6,19.1c7.2,17.6,22.2,37.9,44.4,60.1
					c14,14,26.4,24.2,38.9,32.1v-10.8c-10.3-7.1-20.8-16-32.5-27.6c-21.4-21.4-35.6-40.6-42.4-57.1c-6-14.6-5.5-28,1.4-34.8
					c6.8-6.8,20.2-7.4,34.8-1.4c11.6,4.8,24.6,13.3,38.7,25.3v-11.7c-12.6-10.2-24.5-17.5-35.3-22c-6.6-2.7-13-4.2-19.1-4.6
					c12.9-7.2,27.2-10.9,40.4-10.1c4.6,0.3,9.3,1,13.9,2.2v-9.3c-4.4-1-8.9-1.7-13.4-2c-5.4-0.3-10.9,0-16.4,0.9
					c10.1-5.3,20.2-9.2,29.7-11.4v-9.2c-26.1,5.4-56,22.8-79.9,46.7c-26.1,26.1-44.5,59.5-47.9,87.1c-3.6,29.2,6.2,55.7,29.2,78.7
					c27,27,56.3,31.7,98.6,25.5V509.7z"/>
			</g>
		</g>
	</g>
</g>
</svg>
