<?xml version="1.0" encoding="utf-8"?>
<!-- Generator: Adobe Illustrator 23.0.0, SVG Export Plug-In . SVG Version: 6.00 Build 0)  -->
<svg version="1.1" id="Pattern" xmlns="http://www.w3.org/2000/svg" xmlns:xlink="http://www.w3.org/1999/xlink" x="0px" y="0px"
	 viewBox="0 0 1200 1200" style="enable-background:new 0 0 1200 1200;" xml:space="preserve">
<style type="text/css">
	.st0{fill:#070608;}
</style>
<g>
	<g>
		<g>
			<path class="st0" d="M116.7,912.3c13.2-7.7,26.7-15.4,39.8-22.9c12.5-7.1,25.4-14.5,38.1-21.9c11.5-6.6,23.7-13.5,38.5-21.5
				l39.5-21.3c25.5-13.8,52.8-28.9,79.7-46.1c13.7-8.8,26.9-17.9,39-27c3.1-2.3,6.3-4.8,9.5-7.3l2.4-1.9l3.8-3.1
				c1.1-0.9,2.3-1.9,3.4-2.8c6.1-5.1,12.1-10.6,18.5-16.8c5.7-5.5,11.3-11.5,17.4-18.3c5.5-6.2,10.9-12.9,16-19.8
				c9.9-13.3,18.9-27.9,26.9-43.4c14.5-28.6,25.1-60.8,31.3-95.5c0.3-1.7,0.6-3.4,0.9-5l0.4-2.7c0.3-1.5,0.5-3.1,0.7-4.6l4.7-33.7
				c2-13.9,4.2-28.8,6.6-43.1c2.7-15.4,5.5-28.9,8.5-41.3c3.5-14.5,7.3-27.3,11.4-39.1c4.5-12.7,9.6-25,15.4-36.6
				c1-2.1,2.2-4.3,3.3-6.5c0.4-0.8,0.9-1.7,1.3-2.5c0.3-0.6,0.6-1.1,0.9-1.7c0.5-0.9,1-1.9,1.5-2.8l5-9l3-5.1
				c1.6-2.7,3.2-5.5,4.9-8.2c7.3-11.8,15-23.3,23-34.1c8-10.8,16.7-21.6,25.9-32c9.4-10.6,19-20.6,28.5-29.8
				c0.8-0.7,1.5-1.4,2.3-2.2c1.7-1.6,3.4-3.3,5.2-4.9l3.8-3.5l3.9-3.5c4.9-4.3,10.3-9,16.5-14.4c3.7-3.2,7.5-6.5,11.3-9.7
				c19-16.4,38.6-33.3,57.8-52.5c12.4-12.5,23.3-24.5,33.2-36.9c9.6-12.1,18.8-24.7,28.7-39.8c8-12.3,15.6-24.8,22.8-37.7H748.5
				c-5.9,8.4-11.5,15.9-16.7,22.4c-8,9.9-16.8,19.6-27,29.8c-16.3,16.4-34.4,32.2-53.6,48.8c-3.6,3.1-7.1,6.2-10.7,9.3
				c-6.6,5.8-12.1,10.6-17.2,15.3l-8.8,8.1c-2.2,2-4.4,4.1-6.4,6.1c-0.8,0.8-1.6,1.5-2.4,2.3c-11.9,11.7-23.1,23.6-33.3,35.5
				c-21.5,25-40.5,51.6-56.7,79c-2.1,3.4-4.1,7-6,10.4l-3.1,5.6l-5.7,10.7c-0.6,1.2-1.2,2.4-1.8,3.6c-0.3,0.6-0.6,1.2-0.9,1.9
				c-0.4,0.9-0.9,1.8-1.3,2.6c-1.4,2.7-2.8,5.5-4.1,8.4c-6.8,14.4-13,30.1-18.4,46.7c-4.7,14.6-8.9,30.1-12.7,47.4
				c-3,14.2-5.7,29.5-8.3,47c-2,14.3-3.9,29.4-5.6,46l-2.3,22.5l-1.1,10.7c-0.1,1.2-0.3,2.3-0.4,3.5l-0.3,2.6
				c-0.2,1.3-0.3,2.5-0.5,3.8c-2.1,14.4-4.7,27.1-8.1,39c-3.3,12-7.8,24.4-13.2,36.7c-10.5,23.2-25,44.9-43.2,64.5
				c-4.9,5.2-9.5,9.9-14.1,14.2c-0.7,0.7-1.4,1.3-2.2,2c-0.5,0.5-1,0.9-1.5,1.4l-3.8,3.4c-2.7,2.4-5.4,4.7-7.9,6.8
				c-10.1,8.5-21.1,17-33.6,26.1c-23.3,16.9-47.9,32.6-73.1,48.5l-1.5,1c-12,7.5-24.4,15.3-36.6,23.1c-7.3,4.7-13.4,8.6-19.2,12.4
				c-6.2,4.1-12.6,8.4-19.1,12.8c-8.6,5.9-17.5,11.9-26,17.7c-15.9,10.8-32.3,21.9-48.4,33.2c-29.3,20.5-52.5,38-73.1,55
				C11.9,933,5.8,938.1,0,943.2v46.1c12.4-9.9,26.1-19.8,41.7-30.4C63,944.6,86.1,930.2,116.7,912.3z"/>
			<path class="st0" d="M1151.2,991.6c-4.9,5.5-9.7,11.4-14.9,18c-5.1,6.6-9.6,12.8-13.7,18.9c-4.4,6.6-8.6,13.3-12.3,19.9
				c-4.1,7.2-7.5,14.1-10.6,20.9c-6.6,14.7-11.4,29.7-14.4,44.5c-1.9,9.1-3.1,18.6-3.5,28.1c-0.1,2.8,1.9,5.2,4.6,5.5
				c0.2,0,0.4,0,0.7,0c2.5,0,4.7-1.8,5.2-4.3c0.3-1.6,0.6-3.1,1-4.7c1.6-7.2,3.5-14.2,5.9-20.9c4.8-13.7,10.9-26.9,18.4-39
				c4-6.6,7.9-12.4,11.9-18c4.1-5.6,8.6-11.3,13.4-16.9c9.1-10.6,19.2-21,30.1-31.1c8.5-7.8,17.4-15.5,27.2-23.2v-46.1
				C1181.5,959.5,1165.4,975.5,1151.2,991.6z"/>
			<path class="st0" d="M1008.6,1139.4c0.9-3.1,1.8-6.2,2.8-9.3l2.9-9.2c2-6.1,4-12.2,6.1-18.3c4.2-12.1,8.7-23.9,13.6-35.6
				c9.8-23.3,20.9-45.6,33.3-66.8c12.5-21.2,26.4-41.2,41.6-60c7.6-9.4,15.6-18.4,23.8-27.1c8.2-8.7,16.8-17,25.7-25.2
				c13.2-12.2,27.1-23.9,41.5-35.3v-96.1c-10.4,5.8-20.7,11.9-30.8,18.4c-23.7,15.1-46.7,32.3-67.7,52.3
				c-10.5,10-20.5,20.6-29.9,31.7c-9.4,11.2-18,22.8-26.1,34.9c-16.1,24.1-29.6,49.7-40.4,76.2c-10.7,26.5-18.7,53.9-24,81.5
				c-5.2,27.6-7.9,55.5-7.7,83.1c0.1,22,1.7,43.9,5.2,65.4h14.7c1.7-7.6,3.4-15.2,5.2-22.7C1001.7,1164.5,1005,1151.9,1008.6,1139.4
				z"/>
			<path class="st0" d="M1093.1,699.1c-12.3,9-24.3,18.7-35.4,29.4c-5.5,5.4-11,10.9-16,16.8c-1.3,1.5-2.6,2.9-3.8,4.4l-3.7,4.5
				l-1.8,2.2c-0.6,0.7-1.2,1.5-1.7,2.2l-3.4,4.5c-9,12-17.3,24.5-24.8,37.4l-2.8,4.8l-2.7,4.9l-2.7,4.9c-0.9,1.6-1.7,3.3-2.5,5
				l-2.5,5c-0.8,1.7-1.6,3.4-2.4,5c-1.5,3.4-3.1,6.7-4.5,10.1c-1.4,3.4-2.9,6.8-4.2,10.2c-1.3,3.5-2.7,6.8-3.9,10.3l-1.8,5.2
				c-0.6,1.7-1.2,3.5-1.7,5.2c-1.1,3.5-2.2,7-3.2,10.5c-4.1,14.1-7.3,28.3-9.3,42.7c-0.3,1.8,0.7,3.6,2.4,4.3
				c2.1,0.9,4.4-0.1,5.3-2.1l0,0c5.5-13.1,11.5-25.8,18.2-38.1c3.3-6.1,6.8-12.2,10.4-18.1c3.6-5.9,7.4-11.7,11.2-17.5
				c1.9-2.9,3.9-5.7,5.9-8.5c1-1.4,2-2.8,3-4.2l3.1-4.1c1-1.4,2-2.8,3.1-4.1l3.2-4l3.2-4l3.3-3.9c8.8-10.4,18-20.4,27.7-29.8
				l3.7-3.5c0.6-0.6,1.2-1.2,1.8-1.7l1.8-1.6l3.6-3.3c1.2-1.1,2.5-2.1,3.7-3.2c5-4.2,10.2-8.2,15.4-12c10.6-7.6,21.8-14.5,33.5-20.9
				c23.3-12.7,48.4-23.3,74.4-33.8l3.8-1.5v-72c-10.1,5.3-20.3,10.7-30.7,16.2C1143.9,666.5,1117.8,681.2,1093.1,699.1z"/>
			<path class="st0" d="M893.1,1108l1-2.9l3-8.8c1.1-3.5,2.4-7.7,3.7-11.8l0.7-2.6c0.9-3,1.8-6.2,2.6-9.3l1.6-6l1.4-5.9
				c7.2-29.9,12-62.1,14.2-95.8c1-14.4,1.5-29.8,1.7-47.3c0.1-13.6-0.1-28.4-0.7-46.5c-0.4-14.1-1.1-29.1-2-45.7l-2.5-45
				c-0.8-14.9-1.8-29.8-2.8-45.1c-1-14.4-2-29.7-3.3-45.3c-2.8-34.6-5.6-63.5-8.9-90.9c-3.7-30.7-8.4-61.3-13.9-90.9l-1-5.4
				c-0.3-1.7-0.6-3.3-0.9-5.1c-0.3-1.7-0.6-3.3-0.8-5.1c-0.3-1.7-0.5-3.3-0.8-5c-1-6.8-1.7-13.6-2.2-20.2c-1-14.1-1-27.5,0.1-39.9
				c1.2-13.3,3.5-26.3,7-38.6c1.8-6.3,3.9-12.5,6.3-18.5l0.9-2.3l1.9-4.5l1-2.3c0.6-1.3,1.3-2.8,2.1-4.4l1.1-2.2l1.2-2.3
				c13-25.1,30-49.7,46.3-72.8c2.2-3.2,4.5-6.4,6.8-9.6c6.3-8.9,12.9-18.2,19.2-27.6c3.8-5.6,8.3-12.3,12.7-19.3l3.1-4.9
				c0.8-1.2,1.5-2.5,2.2-3.7l0.8-1.3c1.7-2.7,3.3-5.5,4.8-8.3l1.1-2c15.2-27,27.3-56.1,36.1-86.4c2.3-8,4.2-15.4,5.8-22.5
				c1.9-8.2,3.5-16.5,4.6-22.8c2.5-15.2,4.3-30.6,5.2-46c0.4-8.5,0.6-17,0.5-25.4h-17c-4.4,36.7-13.7,72.5-27.7,106.7
				c-5.6,13.6-11.8,26.7-18.4,39c-0.5,0.8-0.9,1.7-1.4,2.5c-1.2,2.3-2.5,4.6-3.9,6.9l-2.7,4.6l-2.8,4.7c-1.2,2-2.4,3.9-3.7,5.9
				c-0.7,1.1-1.4,2.1-2,3.2l-1.1,1.6c-1.6,2.4-3.2,4.8-4.8,7.2l-1.4,1.9c-1.6,2.2-3.2,4.6-4.9,6.8l-3.2,4.3l-3.3,4.3
				c-4.7,6.1-9.5,12.1-13.6,17.1c-7.6,9.3-15.6,18.7-23.3,27.9l-5.3,6.4c-19.1,22.8-39.2,47.4-56.1,74.8l-1.6,2.5c0,0,0,0.1-0.1,0.1
				l-1.6,2.7c-1.2,2-2.2,3.8-3.1,5.5l-1.5,2.8l-2.9,5.6l-1.4,2.8c-3.6,7.6-6.9,15.4-9.8,23.4c-5.6,15.6-9.8,32.1-12.4,49
				c-2.5,16.2-3.6,33-3.4,49.8c0.1,8,0.5,16.3,1.1,24.6c0.1,1.9,0.3,4,0.5,6.1c0.2,1.8,0.4,3.8,0.6,6.1c0.2,2.1,0.5,4.2,0.7,6.1
				l0.7,5.7c3.4,26.3,6.2,54.9,8.6,87.4c4.2,60,5.8,120.6,7,177.6l1,44.8l0.1,3.1c0.2,13.5,0.5,27.5,0.5,41
				c0,16.8-0.2,30.6-0.6,43.4c-0.5,15.8-1.4,29.7-2.6,42.5c-1.3,14.4-3.1,28.3-5.3,41.4c-2.4,14.3-5.2,27.5-8.5,40.1l-1.3,4.9
				l-1.4,5c-0.6,2-1.2,4.1-1.8,6.1c-0.4,1.2-0.7,2.4-1.1,3.5c-1,3.3-2.2,6.7-3.1,9.6l-2.5,7.2l-0.9,2.5
				c-4.8,12.9-10.1,25.8-15.9,38.3c-11.8,25.7-25.4,50-40.3,72.4c-2.5,3.7-4.9,7.2-7.2,10.6h103.2c8.5-15.4,16.4-31.1,23.6-47.1
				C881.8,1138.2,887.8,1123.1,893.1,1108z"/>
			<path class="st0" d="M1050.8,1151.8c-0.4-2.8-2.8-4.7-5.6-4.6c-2.8,0.2-4.9,2.4-4.9,5.2v0c-0.1,16-1.1,31.9-3,47.6h17
				c-0.1-7-0.3-13.9-0.7-20.6C1052.9,1170.1,1052,1160.8,1050.8,1151.8z"/>
			<path class="st0" d="M77.6,797.1c21.7-14.2,44.3-27.9,67.2-41.6c22.9-13.7,46.1-27.6,68.9-42.6c22.8-15,45.3-31.2,66.7-48.9
				c5.4-4.4,10.6-9,15.8-13.7c5.2-4.6,10.3-9.5,15.3-14.4c5-4.9,9.9-10,14.7-15.2c4.8-5.2,9.4-10.5,13.9-15.9
				c17.9-21.7,33.6-45.3,46.4-70.4c3.2-6.2,6.2-12.6,9-19c2.8-6.4,5.4-12.9,7.8-19.5c2.4-6.6,4.7-13.2,6.7-19.9c0.5-1.7,1-3.4,1.5-5
				c0.5-1.7,1-3.4,1.4-5.1c0.9-3.4,1.7-6.8,2.5-10.1c3.1-13.4,5.6-26.5,8.1-39.6l7.3-39.1c4.9-26,10-51.8,16.7-77.2
				c3.3-12.7,6.9-25.2,11.3-37.5c2.2-6.1,4.6-12.1,7.4-17.9c2.7-5.8,5.8-11.5,9.3-16.7l0-0.1c1.1-1.7,0.9-3.9-0.7-5.3
				c-1.7-1.5-4.2-1.3-5.7,0.4c-9.2,10.5-16,22.5-22,34.6c-6,12.2-11.2,24.7-16,37.2c-9.5,25.2-17.4,50.8-25,76.4
				c-3.8,12.8-7.5,25.6-11.2,38.3c-3.7,12.7-7.4,25.3-11.5,37.5c-8,23.9-19,46.7-32.3,67.8c-13.3,21.2-28.9,40.8-46.4,58.6
				c-4.3,4.5-8.8,8.8-13.4,13c-4.6,4.2-9.2,8.4-14,12.4c-9.5,8-19.6,15.6-29.9,22.9c-20.6,14.7-42.3,28-64.8,40.7
				c-22.4,12.7-45.6,24.7-69.1,36.6c-23.6,11.9-47.7,23.5-71.9,35.8c-13.8,7-27.7,14.3-41.5,22v96.1c4.9-3.9,9.9-7.8,15-11.6
				C34.9,825.9,55.8,811.3,77.6,797.1z"/>
			<path class="st0" d="M35.9,694.1c13.4-5.6,27-11.5,40.6-18c6.8-3.2,13.6-6.7,20.4-10.3c3.4-1.8,6.8-3.7,10.1-5.6l9.7-5.8l9.7-5.8
				l9.5-6.1l9.5-6.2c3.1-2.1,6.2-4.3,9.3-6.5c49.6-34.6,94.2-76.5,132.1-123.7l7-8.9c2.3-3,4.7-5.9,6.9-9l6.7-9.2
				c2.2-3.1,4.5-6.1,6.6-9.2l6.3-9.4l3.2-4.7l1.6-2.4l1.5-2.4c4-6.4,8.1-12.8,11.9-19.3c3.8-6.5,7.6-13.1,11.3-19.6l10.6-20
				l5.1-10.2l4.8-10.3c3.1-6.9,6.2-13.7,9.1-20.6c23.3-54.9,39.5-109.2,61.4-158.3c10.9-24.5,23.1-47.7,37.6-68.9
				c7.2-10.6,15-20.7,23.3-30.4c2.1-2.4,4.2-4.8,6.3-7.1l6.6-6.9c4.2-4.3,8.7-8.4,13.4-12.5c18.9-16.2,42-30.3,66.3-45.1
				c11.5-7,23.4-14.2,35.2-21.9H514.1c-1.8,1-3.5,2-5.3,3c-6.7,4-13.4,8.2-20,12.8c-6.6,4.6-13,9.6-19.3,14.9l-8.8,7.8
				c-2.9,2.7-5.7,5.4-8.6,8.1C441,57.7,430.6,69.6,421,81.9c-19.1,24.8-34.9,51.4-48.5,78.2c-13.7,26.8-25.3,53.8-36.5,80.1
				c-11.2,26.3-21.9,52.1-33.4,76.6c-5.7,12.3-11.7,24.2-17.9,35.8l-9.8,17.5c-3.3,5.8-6.8,11.5-10.2,17.2c-0.8,1.4-1.7,2.8-2.6,4.3
				l-2.7,4.2l-5.3,8.5l-1.3,2.1l-1.4,2.1l-2.8,4.1l-5.6,8.3c-1.8,2.8-3.8,5.5-5.7,8.2l-5.8,8.1c-1.9,2.7-3.9,5.4-6,8l-6,8
				c-32.5,42.2-69.7,80.7-111.4,114.1c-2.6,2.1-5.2,4.2-7.8,6.3l-8,6l-8,6l-8.2,5.7l-8.2,5.8c-2.7,1.9-5.4,3.6-8.2,5.4
				c-5.5,3.5-11.1,7.1-16.9,10.4c-13.7,8.1-28.1,15.9-42.8,23.7v72l15.9-6.4C22.5,699.6,29.1,696.9,35.9,694.1z"/>
			<path class="st0" d="M307.3,45.4c-19.2,30.7-34.5,63.2-47,96.4c-6.2,16.6-11.7,33.4-16.5,50.4c-1.2,4.2-2.4,8.5-3.5,12.7
				l-3.2,12.3c-2.2,8.1-4.4,16.2-6.7,24.2c-9.3,32.2-19.8,64.1-32,95.3c-6.1,15.6-12.5,31.1-19.4,46.4c-1.7,3.8-3.5,7.6-5.3,11.4
				c-1.8,3.8-3.6,7.5-5.4,11.3c-3.7,7.5-7.5,14.9-11.5,22.1c-8,14.5-16.7,28.6-26.5,41.8c-9.8,13.2-20.6,25.6-32.9,36.5
				c-12.2,10.9-25.7,20.3-40.5,27.2c-7.4,3.5-15.1,6.4-23.1,8.6c-7.9,2.3-16.1,3.8-24.4,4.7l-0.1,0c-2,0.2-3.6,2-3.5,4
				c0,2.2,1.8,4,4.1,3.9c8.7-0.1,17.5-0.9,26.2-2.5c8.7-1.6,17.3-3.9,25.6-6.9c16.7-6,32.4-14.9,46.7-25.5
				c14.3-10.7,27.1-23.1,38.8-36.3c11.7-13.3,22.2-27.4,31.9-42c9.8-14.6,18.5-29.7,26.9-44.9c8.3-15.2,16.3-30.7,23.7-46.4
				c14.9-31.3,28.2-63.4,40.1-96c3-8.1,5.9-16.3,8.7-24.5l4.1-12.2c1.3-3.9,2.7-7.8,4.1-11.7c5.6-15.5,11.8-30.8,18.4-45.7
				c6.7-14.9,14-29.5,22-43.6c4-7.1,8.2-14,12.4-20.8c4.3-6.8,8.7-13.5,13.4-20.1c9.3-13.1,19.2-25.6,29.8-37.3
				c1.3-1.5,2.7-2.9,4-4.4c1.3-1.5,2.7-2.9,4.1-4.3c1.4-1.4,2.7-2.9,4.1-4.2c1.3-1.3,2.7-2.7,4.1-4c5.5-5.2,11.2-10.1,17.1-14.7
				c3-2.3,6.1-4.6,9.2-6.8h-85.9c-0.2,0.3-0.5,0.6-0.7,0.9C327.4,15.1,316.9,30,307.3,45.4z"/>
			<path class="st0" d="M53.5,120.9c1.7,22.2,4.1,44,7,65.7c2.9,21.7,6,43.1,9.1,64.5l1.2,8.1l1.2,7.7c0.7,5,1.2,10,1.7,15.1
				c0.8,10.2,1.2,20.6,1.2,31l0.2-1.7c-0.6,4.8-0.6,8.9-0.7,12.4c-0.1,1.7-0.1,3.3-0.2,4.8c0,0.3,0,0.4,0,0.7l-0.2,1l-0.4,2.7
				c-1.2,7.2-2.6,14.6-3.9,22.2l0.3-1c-5.5,22.8-12.3,45.1-22.6,65.9c-5.1,10.4-11,20.4-17.8,30c-3.4,4.8-7,9.5-10.7,14
				c-3.7,4.6-7.6,9-11.7,13.4l0,0c-0.2,0.2-0.3,0.4-0.5,0.6c-0.8,1.3-0.9,3,0,4.3c1.2,1.9,3.7,2.4,5.5,1.2
				c11.2-7.1,21.4-15.7,30.6-25.2c9.2-9.5,17.5-19.9,25-30.8c15-21.8,27-45.5,36.6-70c4.8-12.3,9.1-24.9,12.6-37.7
				c1.8-6.4,3.4-12.9,4.7-19.5c0.7-3.3,1.3-6.6,1.8-10c0.5-3.5,1.1-6.5,1.6-9.6c4.3-24.8,10.5-49.1,18.2-72.8
				c15.4-47.5,37.4-92.5,64.5-133.7c6.7-10.3,13.9-20.3,21.3-30.1c3.7-4.9,7.5-9.7,11.3-14.5c3.9-4.7,7.8-9.5,11.8-14.1
				c4.5-5.2,9.2-10.3,13.9-15.4h-70.8c-40.9,60.6-69.9,128.5-85.2,198.8l-2.1,9.7l-1.4,7.5c-0.5-11.1-0.9-22.1-1.3-33.1
				c-0.6-21.4-1.1-42.6-0.8-63.6c0.3-21,1.3-41.8,3.3-62.3c2-19.4,4.9-38.5,9.1-57H55.2c-2.3,18-3.5,35.9-3.8,53.7
				C51,76.4,51.8,98.8,53.5,120.9z"/>
			<path class="st0" d="M650,1185.8c6.1-4.5,12.2-9.2,18-14.3c3-2.5,5.8-5.1,8.7-7.7c2.8-2.7,5.7-5.3,8.4-8.2c2.8-2.7,5.4-5.7,8-8.6
				l7.3-8.6c2.5-2.8,4.7-5.8,7.1-8.7c2.3-2.9,4.7-5.8,6.8-8.9l6.6-9l6.3-9.2c2.1-3,4.1-6.2,6.1-9.3c2-3.1,4-6.2,5.9-9.4l5.6-9.6
				c1.8-3.2,3.5-6.5,5.3-9.7c7-13,13.4-26.3,19-39.9c5.6-13.6,10.8-27.3,15.1-41.4c0.5-1.8,1.1-3.5,1.6-5.3l1.5-5.3l1.5-5.3l0.7-2.6
				l0.7-2.7l2.6-10.7c0.8-3.6,1.5-7.2,2.3-10.8c5.7-28.6,9.3-57.5,11.2-86.6c1.9-29,2.1-58.2,0.9-87.3l-1.2-21.8l-1.7-21.8
				c-1.4-14.5-2.9-29.1-5-43.6c-4-29-9.3-57.8-15.9-86.3c-1.7-7.1-3.3-14.3-5.2-21.3l-2.8-10.6c-1-3.5-1.9-7-2.9-10.6
				c-4.2-14.5-8.9-28.4-13.6-42c-9.4-27.1-19.1-52.8-25.9-77.7c-6.8-24.9-10.9-48.8-9.1-71c0.1-2.8,0.5-5.5,0.9-8.3
				c0.2-1.4,0.5-2.7,0.7-4.1c0.2-1.4,0.4-2.7,0.8-4l0.9-4c0.3-1.3,0.7-2.6,1.1-4c0.6-2.7,1.7-5.2,2.5-7.8
				c3.7-10.2,8.9-20.4,15.5-30.4c0.4-0.6,0.8-1.3,1.2-1.9l1.3-1.9l2.6-3.8c0.4-0.6,0.9-1.3,1.3-1.9l1.4-1.9l2.9-3.7
				c3.9-5,8.1-9.9,12.4-14.9c4.4-5,8.9-9.9,13.6-14.9c4.7-5,9.5-10,14.4-15.1c4.9-5.1,9.9-10.3,14.9-15.6c2.5-2.6,5-5.4,7.5-8.1
				c2.5-2.7,4.9-5.5,7.4-8.2c9.8-10.9,19.3-22.3,28.5-33.9c4.6-5.8,9-11.7,13.4-17.7l6.5-9.1c2.2-3,4.2-6.1,6.3-9.2
				c8.3-12.4,16-25.2,23.1-38.4c7.1-13.2,13.4-26.9,18.8-41c2.7-7,5.1-14.2,7.3-21.4c2-7.3,4-14.6,5.4-22c0.9-4.4,1.6-8.8,2.3-13.2
				h-27.1c-0.7,1.7-1.3,3.4-2.1,5.1c-2.6,6.2-5.5,12.3-8.5,18.3c-3.1,6-6.3,11.9-9.8,17.7c-6.9,11.6-14.5,22.8-22.6,33.6
				c-8.1,10.8-16.7,21.3-25.7,31.6c-2.3,2.5-4.5,5.1-6.8,7.6l-6.9,7.5l-7.1,7.4c-2.3,2.5-4.8,4.9-7.2,7.3c-2.4,2.4-4.8,4.9-7.3,7.3
				c-2.5,2.4-4.9,4.8-7.3,7.2c-5,4.7-9.9,9.5-15,14.1c-5.1,4.7-10.1,9.2-15.3,13.9l-15.9,14c-5.4,4.8-10.8,9.6-16.2,14.6
				c-5.4,5-10.9,10.2-16.3,15.6l-4,4.1c-1.4,1.4-2.7,2.7-4,4.2l-4,4.3c-1.3,1.4-2.7,2.9-3.9,4.4c-5.2,5.9-10.4,12.2-15.2,18.8
				c-4.9,6.6-9.5,13.6-13.7,21l-3.1,5.6c-0.5,0.9-1,1.9-1.5,2.8l-1.4,2.9l-2.8,5.9c-0.4,1-1,1.9-1.3,3l-1.2,3.1
				c-1.6,4.1-3.3,8.2-4.5,12.4c-0.7,2.1-1.3,4.2-1.9,6.3l-1.6,6.4c-0.6,2.1-1,4.3-1.4,6.4c-0.4,2.1-0.9,4.3-1.2,6.4
				c-0.7,4.3-1.4,8.6-1.8,12.9c-0.5,4.3-0.7,8.6-0.9,12.9c-0.1,2.1-0.1,4.3-0.1,6.4c0,2.1-0.1,4.3,0,6.4l0.2,6.3l0.4,6.3l0.2,3.1
				l0.3,3.1c0.2,2.1,0.4,4.1,0.7,6.2c2.2,16.3,5.8,32,10.3,46.8c9,29.8,21.1,56.8,32.8,82.5l8.6,19.1c2.8,6.3,5.6,12.5,8.2,18.7
				l7.9,19.2c1.4,3.2,2.6,6.4,3.8,9.7l3.8,9.7c10,25.9,19.2,52.1,27,78.8c7.8,26.7,14.2,53.8,18.5,81.3c4.2,27.5,6.3,55.3,5.9,83.1
				c-0.1,3.5,0,7-0.2,10.4l-0.6,10.4l-0.7,10.4c-0.1,1.7-0.3,3.5-0.5,5.2l-0.6,5.2c-0.4,3.5-0.8,6.9-1.2,10.4
				c-0.3,3.5-1,6.9-1.6,10.3l-1.8,10.3l-0.9,5.1c-0.3,1.7-0.7,3.4-1.1,5.1c-2.8,13.5-6.6,26.7-11.1,39.8c-4.4,13-9.8,25.7-15.8,38.1
				c-1.5,3.1-3,6.2-4.6,9.2l-5,9l-1.2,2.3l-1.3,2.2l-2.7,4.4l-2.7,4.4c-0.9,1.5-1.9,2.9-2.8,4.3c-7.4,11.6-15.6,22.5-24.3,33
				l-6.6,7.8l-6.9,7.5c-2.2,2.5-4.7,4.9-7.1,7.3c-2.4,2.4-4.7,4.8-7.3,7.1l-7.4,6.9c-2.5,2.1-4.9,4.2-7.4,6.2
				c-2.5,2-5.1,3.9-7.7,5.8c-2.7,1.8-5.3,3.7-8.1,5.5c-5.5,3.6-11.1,6.9-17,10.1c-5.8,3.2-11.8,6.3-17.9,9.3
				c-12.2,6-24.9,11.6-37.9,17.4c-13,5.8-26.3,11.9-39.8,18.7c-5,2.6-9.9,5.2-14.9,8h115.3c0.7-0.4,1.3-0.8,2-1.3
				C637.6,1194.6,643.8,1190.3,650,1185.8z"/>
			<path class="st0" d="M935.7,1124.5c-0.4-1.7-1.9-3-3.7-3.1c-2.2-0.1-4.1,1.5-4.3,3.8l0,0c-0.9,14.1-2.7,27.9-5.8,41.3
				c-0.3,1.7-0.8,3.3-1.2,5c-0.4,1.7-0.8,3.3-1.3,4.9l-1.4,4.9l-1.5,4.9c-0.5,1.6-1.1,3.2-1.6,4.8c-0.6,1.6-1.1,3.2-1.7,4.8
				c-0.6,1.4-1.1,2.9-1.7,4.3h27.1C942.2,1174.6,941.4,1148.7,935.7,1124.5z"/>
			<path class="st0" d="M476.2,1171.1c7.3-3.5,14.8-6.9,22.5-10.2l23.6-10.3c8.6-3.8,17.1-8,25.4-12.5c16.6-9,32.6-19.2,47.7-30.6
				c15.1-11.5,29.4-24.1,42.6-37.9c6.6-6.9,13-14.1,19-21.6c3-3.7,5.9-7.5,8.8-11.4c2.9-3.9,5.8-8,8.5-12c5.5-8.1,10.4-16.7,15-25.3
				c4.5-8.7,8.7-17.5,12.2-26.6c7.2-18.1,12.6-36.7,16.3-55.4c3.7-18.7,5.6-37.6,6.3-56.2c0.6-18.7,0.1-37.2-1.7-55.5
				c-1.8-18.3-4.6-36.3-8.5-54c-0.9-4.4-2-8.8-3.1-13.2c-1.1-4.4-2.2-8.7-3.4-13.1c-2.5-8.5-4.7-17.8-7.4-26.5
				c-2.7-8.8-5.7-17.4-8.8-25.8c-3.1-8.4-6.5-16.6-10-24.7c-6.9-16.2-14.3-31.8-21.6-47.2c-14.6-30.8-29.2-60.8-40-92
				c-2.7-7.8-5.1-15.6-7.3-23.6c-2.1-7.9-3.9-16-5.3-24.1c-0.4-2-0.7-4.1-1-6.1c-0.3-2-0.6-4.1-0.8-6.1c-0.5-4.1-0.9-8.2-1.1-12.4
				c-0.5-8.3-0.5-16.6-0.1-25l0,0c0.1-1.8-1.1-3.5-2.9-4.1c-2.1-0.6-4.4,0.6-5,2.7c-5,16.8-7.5,34.5-7.9,52.3
				c-0.2,8.9,0.1,17.8,0.8,26.7c0.3,4.4,0.8,8.9,1.3,13.3c0.6,4.4,1.2,8.8,1.9,13.2c2.8,17.5,7,34.7,11.6,51.6
				c4.6,16.9,9.8,33.4,15,49.7c5.2,16.3,10.3,32.4,14.9,48.3c4.6,15.9,8.7,31.6,11.6,47.1c1.5,7.8,2.7,15.2,3.2,23.5
				c0.6,8.1,1.1,16.2,1.5,24.2c0.7,16.1,0.8,32.1,0.2,47.9c-1.2,31.6-5.2,62.4-12.6,91.6c-7.4,29.1-17.8,56.6-32.2,81.6
				c-1.8,3.2-3.7,6.2-5.6,9.3c-2,3.1-4.1,6.2-6.2,9.3c-4.3,6.1-8.8,12.1-13.6,17.9c-9.5,11.6-20,22.5-31.2,32.7
				c-11.3,10.1-23.4,19.4-36.2,27.7c-6.4,4.1-13,8-19.7,11.6l-2.5,1.3l-2.8,1.5l-5.7,2.9l-11.5,5.9c-15.4,8-31.3,16.4-47,26
				c-7.8,4.8-15.6,9.9-23.3,15.4c-7.6,5.5-15.1,11.3-22.3,17.6c-7.2,6.2-14.1,12.8-20.6,19.7c-6.3,6.7-12,13.3-17.5,20.1h85.9
				c9.3-6.5,19.1-12.5,29.4-18.1C461.8,1178.2,468.9,1174.6,476.2,1171.1z"/>
			<path class="st0" d="M303.8,1163.5c18.4-16.1,38.1-31.5,58.6-46.5c20.5-15,41.9-29.5,63.2-45.1c21.3-15.5,42.7-32.2,62.7-51.2
				c10-9.5,19.7-19.6,28.8-30.3c2.3-2.7,4.5-5.4,6.8-8.2c2.2-2.8,4.4-5.6,6.5-8.4c2.1-2.9,4.2-5.8,6.3-8.7c2-2.9,4-5.9,6-8.9
				c15.7-24,28.3-49.9,37.6-76.6c4.7-13.3,8.5-26.9,11.6-40.6c3-13.7,5.3-27.4,6.7-41.2c2.8-27.6,2.5-55.1-0.6-81.9
				c-0.2-1.7-0.4-3.4-0.6-5l-0.7-5l-0.7-5l-0.8-5c-0.6-3.3-1.2-6.6-1.9-9.9c-0.7-3.3-1.3-6.6-2.1-9.8c-3-13.1-6.7-25.9-11.4-38.4
				c-0.5-1.4-1.8-2.4-3.3-2.6c-2.3-0.3-4.3,1.3-4.6,3.5l0,0c-1.8,13.1-3.4,25.9-5.3,38.5c-1,6.3-1.9,12.6-3.1,18.8l-0.8,4.7
				l-0.9,4.6l-0.9,4.6l-0.9,4.6c-4.9,24.6-11.1,48.4-18.8,71.2c-3.9,11.4-8.1,22.6-12.7,33.5c-4.6,10.9-9.7,21.5-15.1,31.8
				c-10.8,20.6-23.4,40-37.3,58.1l-5.3,6.8c-1.8,2.2-3.6,4.4-5.4,6.6l-5.6,6.6l-5.7,6.6c-7.7,8.7-15.7,17.3-24,25.9
				c-16.6,17.2-34.3,34.2-52.7,51.3c-18.5,17.1-37.7,34.2-57.3,51.5c-19.5,17.4-39.4,35-58.4,54.2c-24.7,25-46.9,52.2-66.4,81h70.8
				c3.6-3.9,7.3-7.7,11.1-11.5C285.8,1179.9,294.6,1171.5,303.8,1163.5z"/>
			<path class="st0" d="M136.3,1140.6c2-4.5,4-8.9,6.3-13.2c1.1-2.2,2.2-4.3,3.4-6.5c1.2-2.1,2.3-4.3,3.6-6.4
				c2.4-4.2,4.9-8.4,7.6-12.4c1.3-2,2.7-4,4-6.1l4.4-6.4l0.5-0.8l0.3-0.4l0.2-0.3l0.9-1.2c0.6-0.8,1.2-1.6,1.9-2.4
				c1.3-1.6,2.6-3.3,4-4.9c2.8-3.3,5.8-6.5,9.1-9.9c1.6-1.7,3.3-3.4,5-5.1l1.3-1.3l1.7-1.7l1.8-1.9l0.6-0.6c0,0.1,0,0.1-0.1,0.1
				c-0.1,0.3,0.8-0.4,3.3-2.5c1.8-1.5,4.4-3.7,7.2-6.7c22.5-19.3,46.5-37.1,72.1-55.3c25.7-18.4,53-37.1,79.8-57.9l10-7.9l9.9-8.1
				c6.6-5.5,13.2-11.2,19.6-17.1c12.9-11.8,25.3-24.6,36.4-38.5c5.6-7,10.8-14.2,15.7-21.7c2.4-3.7,4.7-7.6,6.9-11.4
				c1.1-1.9,2.2-3.9,3.2-5.8c1-1.9,2-3.9,3-5.9c1-2,1.9-4,2.8-6l1.4-3l1.3-3c0.8-2,1.7-4.2,2.6-6.3c0.4-1,0.8-2.3,1.2-3.3l0.9-3.1
				l1.8-6.2c0.6-2.1,1.1-4.2,1.7-6.3c1.1-4.2,2-8.6,2.5-12.9c0.2-1.4-0.4-2.9-1.6-3.8c-1.8-1.4-4.4-1-5.8,0.8l-0.1,0.1
				c-4.9,6.6-10.3,12.6-15.7,18.9l-2.1,2.4c-0.7,0.8-1.2,1.4-1.9,2.1l-4.1,4.1c-2.9,2.8-5.7,5.6-8.6,8.3
				c-11.6,10.7-23.9,20.3-36.6,29c-25.5,17.5-53,31.8-81.8,46.9c-28.5,15-57.9,29.8-87.3,47.5c-14.7,8.9-29.2,18.6-43.3,29.3
				c-7,5.4-13.9,11-20.7,16.9c-6.7,6-13.3,12.1-19.6,18.5l-4,4.1c0,0,0,0.1,0,0.1c0,0,0.1,0,0.1,0c0.7-0.7,0.7-0.4-0.8,1.1
				c-1.5,1.6-4.7,4.4-8.4,8.6l-1.4,1.7l-0.7,0.9l-0.9,1.1l-0.4,0.5l-0.6,0.8l-1.4,1.7c-1.9,2.3-3.7,4.7-5.6,7.1
				c-3.8,4.9-7.5,10.1-11.1,15.5c-1.8,2.7-3.6,5.5-5.2,8.4c-0.8,1.4-1.7,2.9-2.5,4.4l-1.2,2.2l-0.3,0.6l-0.3,0.5l-0.5,1l-3.9,7.5
				c-1.3,2.7-2.7,5.3-4,8.1c-1.3,2.7-2.6,5.4-3.8,8.1c-1.3,2.7-2.4,5.5-3.6,8.2c-4.7,11-8.8,22.1-12.5,33.4
				c-7.4,22.5-12.9,45.4-16.5,68.3c-0.8,4.9-1.5,9.8-2.1,14.8h61.9c0.2-1,0.5-2,0.7-3C122.4,1177.5,128.4,1158.5,136.3,1140.6z"/>
			<path class="st0" d="M984.9,19.5c2.2,0.5,4.4-0.9,4.9-3.1l0,0c1.2-5.5,2.4-10.9,3.6-16.3h-14.7c0.9,5.5,1.9,10.9,3,16.3
				C982.1,17.8,983.2,19.1,984.9,19.5z"/>
			<path class="st0" d="M976.8,668.3c1.9,7.2,3.5,14.4,5,21.8c1.4,7.4,2.6,14.9,3.4,22.6c0.8,7.7,1.3,15.6,1.6,24l0,0.1
				c0,1.2,0.6,2.3,1.5,3.1c1.8,1.5,4.5,1.3,6-0.5c5.6-6.7,10.3-14.1,14.2-21.9c4-7.8,7.2-16.1,9.8-24.6c5.2-17,7.8-34.7,8.7-52.1
				c0.9-17.4,0.1-34.6-1.5-51.4c-0.8-8.4-1.9-16.6-3.1-24.7l-1.9-12.1l-2-11.7c-2.7-15.5-5.6-30.4-8.6-44.8
				c-2.9-14.4-5.8-28.3-8-41.9c-2.2-13.6-3.5-26.9-3-39.8l0.3-4.9c0.1-1.6,0.3-3.2,0.5-4.8c0.4-3.2,0.8-6.4,1.4-9.5
				c1.2-6.3,3-12.6,5.2-19c4.5-12.7,10.7-25.5,18.1-38.4c7.3-12.9,15.6-26,24.1-39.4c8.5-13.5,17.3-27.3,25.5-41.9l3-5.5l3-5.6
				c1.9-3.6,3.7-7.2,5.6-10.9c3.7-7.3,7.3-14.7,10.7-22.2c6.8-15,13.1-30.5,18.2-46.5c0.3-0.8,0.5-1.7,0.8-2.5l0-0.2
				c0.3-2.9,0.7-5.8,0.9-8.8l0.4-4.4l0.3-4.4c0.1-1.5,0.2-2.9,0.3-4.5c0-1.6,0.1-3.2,0.2-4.8c0.6-12.8,1-25.3,1.1-37.8
				c0.1-12.5-0.3-24.8-1.7-37.4c-1.3-12.6-4-24.9-8.8-38.4l-0.1-0.3c-0.8-2.2,0.4-4.7,2.6-5.5c0.9-0.3,1.8-0.3,2.7-0.1
				c-0.8-0.6-1.8-0.8-2.8-0.7c-2.2,0.3-3.8,2.3-3.5,4.5l0,0.2c0.5,3.9,1.1,7.8,1.4,11.7c0.4,3.9,0.6,7.8,0.9,11.6
				c0.3,7.7,0.2,15.5-0.3,23.1c-0.5,7.6-1.4,15.2-2.8,22.7c-1.4,7.5-3.1,14.8-5.2,22c-8.5,29-22.8,55.8-39.5,81.5
				c-4.2,6.4-8.5,12.8-12.9,19.2c-2.2,3.2-4.5,6.4-6.7,9.5l-3.3,4.6l-3.4,4.5c-9.2,12-19.1,23.9-29.3,36.1
				c-10.1,12.3-20.5,25-30.6,38.7c-9.9,13.8-19.5,28.7-27.5,45.2c-4,8.2-7.6,16.9-10.8,25.8c-1.6,4.5-3,9-4.3,13.6
				c-0.7,2.3-1.2,4.6-1.8,6.9c-0.6,2.3-1.1,4.6-1.6,6.9c-4,18.5-5.9,37.1-5.9,55.3c0,18.1,1.8,35.7,5,52.5
				c3.2,16.8,7.6,32.8,12.7,48.1l3.8,11.4l3.9,11.1l7.7,21.7c5.1,14.3,10,28.4,14.4,42.6C972.8,654,974.9,661.1,976.8,668.3z"/>
			<path class="st0" d="M1110.4,16.8c-2.2,0.8-3.4,3.3-2.6,5.5l0.1,0.3c4.8,13.5,7.5,25.9,8.8,38.4c1.4,12.5,1.8,24.9,1.7,37.4
				c-0.1,12.5-0.5,25-1.1,37.8c-0.1,1.6-0.2,3.2-0.2,4.8c-0.1,1.5-0.2,3-0.3,4.5l-0.3,4.4l-0.4,4.4c-0.2,2.9-0.6,5.9-0.9,8.8l0,0.2
				l-0.2,2l-0.3,2.2l-0.6,4.3c-1.5,11.6-3.4,23-5.4,34.5c-2,11.5-4.1,23-6.7,34.6c-1.2,5.8-2.7,11.6-4.2,17.5
				c-0.8,2.9-1.6,5.8-2.5,8.8c-1.1,3.5-2.2,6.9-3.3,10.4c-2.2,6.9-4.2,14-6.2,21c-1,3.5-2,7.1-2.9,10.6l-1.4,5.3l-1.4,5.4
				c-3.6,14.3-6.4,29.1-8.3,44c-0.4,3.8-0.8,7.5-1.1,11.3c-0.1,1.9-0.3,3.8-0.4,5.6l-0.3,5.7c-0.1,1.9-0.1,3.8-0.1,5.7
				c0,1.9-0.1,3.8-0.1,5.7c0.1,3.8,0.1,7.7,0.3,11.5c1.7,30.4,8.7,58.1,15.1,84.5c6.6,26.5,12.7,51.7,14.2,77.6
				c0.1,1.6,0.2,3.2,0.2,4.8l0.2,4.8l0,4.8c0,1.6,0,3.2-0.1,4.8l-0.2,4.8c-0.1,1.6-0.3,3.2-0.4,4.8c-0.2,3.2-0.8,6.4-1.2,9.6
				c-1.9,12.8-5.9,25.2-11.8,37.1l-0.1,0.2c-0.8,1.6-0.4,3.7,1.1,4.9c1.7,1.4,4.2,1.1,5.6-0.6c4.5-5.5,8.8-11.2,12.2-17.5
				c1.9-3.1,3.4-6.3,5-9.6c0.8-1.6,1.5-3.3,2.2-4.9c0.7-1.7,1.5-3.3,2.1-5c5.1-13.5,8.5-27.7,10.3-42c1.9-14.3,2.5-28.7,2.3-42.9
				c-0.2-14.2-1.2-28.2-2.1-41.9c-1-13.7-1.9-27-2.3-40c-0.2-6.5-0.3-12.9-0.2-19.2c0.1-3.1,0.1-6.3,0.4-9.3l0.3-4.6l0.4-4.5
				c0.2-3,0.7-6,1-8.9c0.2-1.5,0.5-3,0.7-4.5c0.2-1.5,0.4-3,0.8-4.5c1-6,2.4-11.9,3.9-17.8c1.5-5.9,3.2-11.8,5.1-17.7
				c0.9-2.9,2-5.9,3-8.8c1.1-2.9,2.1-5.8,3.3-8.7c2.3-5.8,4.8-11.6,7.5-17.3c2.8-5.7,5.6-11.3,8.8-16.9c1.5-2.8,3.2-5.6,4.7-8.4
				c1.8-3.3,3.6-6.7,5.4-10c1.7-3.4,3.5-6.8,5.1-10.3l2.4-5.2l1.2-2.6l1.1-2.7c5.9-14.2,10.6-29.1,13.5-44.4c2.9-15.3,4-31,3.3-46.6
				l-0.3-5.9l-0.2-2.9l-0.3-2.9c-0.4-3.9-0.7-7.8-1.3-11.6l-0.9-5.8c-0.3-1.9-0.7-3.8-1.1-5.7c-0.4-1.9-0.7-3.8-1.1-5.7
				c-0.4-1.8-0.8-3.6-1.3-5.4c-3.4-14.3-8-28.7-14-42.7c-0.7-1.8-1.6-3.5-2.4-5.3c-0.8-1.7-1.6-3.5-2.5-5.2l-2.7-5.2
				c-0.4-0.9-0.9-1.7-1.4-2.6l-1.5-2.5c-1-1.7-2-3.4-3-5c-1-1.7-2.1-3.3-3.2-4.9c-2.1-3.3-4.6-6.4-7-9.5c-0.6-0.8-1.2-1.5-1.9-2.3
				l-2-2.2c-1.3-1.5-2.6-2.9-4-4.3l-4.3-4.1c-0.7-0.7-1.4-1.4-2.2-2l-2.3-1.9c-1.6-1.2-3-2.5-4.6-3.6c-1.7-1.1-3.3-2.2-4.9-3.2
				c-0.8-0.5-1.6-1-2.5-1.5c-0.9-0.5-1.7-0.9-2.6-1.3c-1.7-0.9-3.5-1.7-5.2-2.4c-0.1-0.1-0.3-0.1-0.4-0.1
				C1112.3,16.5,1111.3,16.5,1110.4,16.8z"/>
		</g>
	</g>
</g>
</svg>
