<?xml version="1.0" encoding="iso-8859-1"?>
<!-- Generator: Adobe Illustrator 19.0.0, SVG Export Plug-In . SVG Version: 6.00 Build 0)  -->
<svg version="1.1" id="Layer_1" xmlns="http://www.w3.org/2000/svg" xmlns:xlink="http://www.w3.org/1999/xlink" x="0px" y="0px"
	 viewBox="0 0 512 512" style="enable-background:new 0 0 512 512;" xml:space="preserve">
<g>
	<g>
		<path d="M347.429,311.388v159.705h-0.001c0,12.515,10.145,22.661,22.661,22.661c12.516,0,22.661-10.145,22.661-22.661V311.388
			H347.429z"/>
	</g>
</g>
<g>
	<g>
		<path d="M402.534,311.388v159.705c0,12.515,10.145,22.661,22.661,22.661c12.516,0,22.661-10.145,22.661-22.661V311.388H402.534z"
			/>
	</g>
</g>
<g>
	<g>
		<path d="M433.881,108.75h-16.977l-19.355,49.768l-19.355-49.768h-16.977c0.466,17.299-2.372,46.04-13.681,58.211v66.302h100.025
			v-66.302C436.238,154.775,433.417,126.046,433.881,108.75z M397.983,211.76c-3.081,0-5.58-2.499-5.58-5.58s2.499-5.58,5.58-5.58
			c3.081,0,5.58,2.499,5.58,5.58S401.065,211.76,397.983,211.76z M397.983,181.49c-3.081,0-5.58-2.499-5.58-5.58
			s2.499-5.58,5.58-5.58c3.081,0,5.58,2.499,5.58,5.58C403.564,178.992,401.065,181.49,397.983,181.49z"/>
	</g>
</g>
<g>
	<g>
		<path d="M450.619,109.051l-0.003,0.148c-0.323,12.019,0.946,26.304,4.732,37.421l-0.182,86.643h37.768l0.192-79.663
			c0-0.047,0-0.093,0-0.14C493.008,129.674,474.134,110.193,450.619,109.051z"/>
	</g>
</g>
<g>
	<g>
		<g>
			<polygon points="339.696,233.263 339.696,233.262 339.696,233.262 			"/>
			<path d="M344.48,109.045c-23.624,1.022-42.624,20.549-42.743,44.415c0,0.047,0,0.093,0,0.139l0.192,79.663h37.768l-0.18-85.98
				C343.585,135.815,344.797,121.025,344.48,109.045z"/>
		</g>
	</g>
</g>
<g>
	<g>
		<path d="M397.431,18.246c-21.615,0-39.137,17.522-39.137,39.137c0,21.74,17.674,39.137,39.137,39.137
			c21.46,0,39.137-17.395,39.137-39.137C436.568,35.768,419.046,18.246,397.431,18.246z"/>
	</g>
</g>
<g>
	<g>
		<path d="M495.259,255.585H273.563c0.853-0.689,1.449-1.689,1.577-2.853c0.621-5.61,4.337-39.22,5.158-46.646h-39.9
			c0.32,2.9,3.828,34.616,5.158,46.646c0.128,1.163,0.724,2.164,1.577,2.853h-62.318c2.056-1.208,3.442-3.434,3.445-5.991
			c0.011-7.729,0.091-63.675,0.104-72.22c0.012-8.615-4.869-16.08-12.014-19.806l0.051-35.734c0.004-3.493-2.824-6.329-6.317-6.335
			l-7.862-0.011c-3.493-0.006-6.329,2.823-6.335,6.317l-0.051,35.734c-7.156,3.704-12.059,11.156-12.071,19.771
			c-0.012,8.785-0.093,64.512-0.104,72.22c-0.003,2.594,1.415,4.855,3.517,6.055h-24.026c2.056-1.208,3.442-3.434,3.445-5.991
			c0.011-7.729,0.092-63.675,0.104-72.22c0.012-8.615-4.869-16.08-12.015-19.806l0.051-35.734c0.004-3.493-2.824-6.329-6.317-6.335
			l-7.862-0.011c-3.493-0.006-6.329,2.823-6.335,6.317l-0.051,35.734c-7.156,3.704-12.059,11.156-12.071,19.771
			c-0.012,8.785-0.093,64.512-0.104,72.22c-0.003,2.594,1.415,4.855,3.517,6.055H61.491c2.056-1.208,3.442-3.434,3.445-5.991
			c0.011-7.729,0.091-63.675,0.104-72.22c0.012-8.615-4.869-16.08-12.014-19.806l0.051-35.734c0.004-3.493-2.824-6.329-6.317-6.335
			l-7.862-0.011c-3.493-0.006-6.329,2.823-6.335,6.317l-0.051,35.734c-7.156,3.704-12.059,11.156-12.071,19.771
			c-0.012,8.785-0.093,64.512-0.104,72.22c-0.003,2.594,1.415,4.855,3.517,6.055h-7.113C7.496,255.585,0,263.08,0,272.326
			c0,9.246,7.496,16.741,16.741,16.741h478.518c9.246,0,16.741-7.496,16.741-16.741C512,263.08,504.504,255.585,495.259,255.585z"/>
	</g>
</g>
<g>
</g>
<g>
</g>
<g>
</g>
<g>
</g>
<g>
</g>
<g>
</g>
<g>
</g>
<g>
</g>
<g>
</g>
<g>
</g>
<g>
</g>
<g>
</g>
<g>
</g>
<g>
</g>
<g>
</g>
</svg>
