<?xml version="1.0" encoding="iso-8859-1"?>
<!-- Generator: Adobe Illustrator 18.0.0, SVG Export Plug-In . SVG Version: 6.00 Build 0)  -->
<!DOCTYPE svg PUBLIC "-//W3C//DTD SVG 1.1//EN" "http://www.w3.org/Graphics/SVG/1.1/DTD/svg11.dtd">
<svg version="1.1" id="Capa_1" xmlns="http://www.w3.org/2000/svg" xmlns:xlink="http://www.w3.org/1999/xlink" x="0px" y="0px"
	 viewBox="0 0 314.759 314.759" style="enable-background:new 0 0 314.759 314.759;" xml:space="preserve">
<g>
	<path d="M171.825,256.575c0,2.009,1.629,3.638,3.638,3.638h6.381c2.009,0,3.638-1.629,3.638-3.638v-35.696
		c10.867,0,37.618,0,48.343,0v35.696c0,2.009,1.629,3.638,3.638,3.638h6.381c2.009,0,3.638-1.629,3.638-3.638v-53.029
		c-17.421,0-58.238,0-75.657,0V256.575z"/>
	<path d="M247.482,106.374c0-3.771-3.057-6.829-6.829-6.829s-6.829,3.057-6.829,6.829v5.838c-10.867,0-37.618,0-48.343,0v-5.838
		c0-3.771-3.057-6.829-6.829-6.829s-6.829,3.057-6.829,6.829v49.171c17.381,0,58.231,0,75.657,0V106.374z"/>
	<path d="M301.463,165.546H146.71l0.079,15.741c0.022,4.512-1.297,8.722-3.576,12.259h158.249c2.009,0,3.638-1.629,3.638-3.638
		v-20.724C305.101,167.175,303.472,165.546,301.463,165.546z"/>
	<path d="M112.108,60.568L112.108,60.568c-3.846,8.85-4.455,17.681-2.841,25.266c2.406,1.596,2.06,3.861,2.074,6.577
		c0.017,0.041,0.033,0.083,0.051,0.123c0,23.121,0.362,81.983,0.397,88.927c0.035,6.882,5.623,12.438,12.499,12.438
		c0.021,0,0.043,0,0.063,0c6.904-0.035,12.472-5.659,12.438-12.563c-0.061-12.053-0.41-81.529-0.461-91.834
		C136.256,75.365,126.04,63.14,112.108,60.568z"/>
	<path d="M10.12,89.504l-0.462,91.833c-0.034,6.903,5.533,12.527,12.438,12.563c0.021,0,0.042,0,0.063,0
		c6.866,0,12.464-5.597,12.499-12.438c0,0,0.405-79.056,0.405-88.571c0.013-0.029,0.028-0.058,0.041-0.088
		c0.015-3.064-0.388-5.486,2.266-7.072c1.589-7.57,0.964-16.372-2.875-25.191C20.727,63.007,10.192,75.051,10.12,89.504z"/>
	<path d="M106.289,103.831c-8.762-12.3-9.852-28.995-4.656-43.76c0,0,0,0,0-0.001H90.178l0,0.001
		c-8.451,19.921-2.749,6.479-16.845,39.707c-11.938-28.139-10.51-24.774-16.845-39.707c-4.628,0-6.929,0-11.506,0
		c5.272,14.98,4.04,31.845-4.903,44.107c0,0,0.006,189.908,0.006,195.58c0,8.284,6.716,15,15,15c8.36,0,15-6.849,15-15V183.1
		c0-1.788,1.45-3.238,3.238-3.238c1.788,0,3.238,1.45,3.238,3.238v116.659c0,8.284,6.716,15,15,15
		c8.284,0,15.001-6.716,15.001-15.001L106.289,103.831L106.289,103.831z M72.308,153.379c-2.762,0-5-2.239-5-5c0-2.761,2.238-5,5-5
		c2.761,0,5,2.239,5,5C77.308,151.141,75.069,153.379,72.308,153.379z M72.308,126.379c-2.762,0-5-2.238-5-5c0-2.761,2.238-5,5-5
		c2.761,0,5,2.239,5,5C77.308,124.141,75.069,126.379,72.308,126.379z"/>
	<path d="M73.32,51.813c14.183,0,25.907-11.497,25.907-25.907C99.227,11.599,87.628,0,73.32,0S47.414,11.599,47.414,25.906
		C47.414,40.33,59.15,51.813,73.32,51.813z"/>
	<path d="M81.385,57.624c-4.89,2.445-3.282,1.641-8.052,4.026c-4.773-2.387-3.16-1.58-8.052-4.026
		c-0.885-0.443-1.934,0.202-1.934,1.195c0,4.13,0,5.599,0,8.648c0,0.989,1.046,1.64,1.934,1.195l8.052-4.026l8.052,4.026
		c0.885,0.442,1.934-0.202,1.934-1.195c0-3.046,0-4.523,0-8.648C83.319,57.83,82.274,57.179,81.385,57.624z"/>
	<path d="M276.229,268.575c0,2.009,1.629,3.638,3.638,3.638h9.97c2.009,0,3.638-1.629,3.638-3.638v-64.362h-17.246V268.575z"/>
</g>
<g>
</g>
<g>
</g>
<g>
</g>
<g>
</g>
<g>
</g>
<g>
</g>
<g>
</g>
<g>
</g>
<g>
</g>
<g>
</g>
<g>
</g>
<g>
</g>
<g>
</g>
<g>
</g>
<g>
</g>
</svg>
