<?xml version="1.0" encoding="iso-8859-1"?>
<!-- Generator: Adobe Illustrator 18.0.0, SVG Export Plug-In . SVG Version: 6.00 Build 0)  -->
<!DOCTYPE svg PUBLIC "-//W3C//DTD SVG 1.1//EN" "http://www.w3.org/Graphics/SVG/1.1/DTD/svg11.dtd">
<svg version="1.1" id="Capa_1" xmlns="http://www.w3.org/2000/svg" xmlns:xlink="http://www.w3.org/1999/xlink" x="0px" y="0px"
	 viewBox="0 0 496.856 496.856" style="enable-background:new 0 0 496.856 496.856;" xml:space="preserve">
<g id="XMLID_378_">
	<path id="XMLID_383_" d="M364.437,294.029l-61.737-135.283c-4.522-9.878-13.264-10.95-23.958-10.95v123.756v15.547h22.183v55.117
		v25.497h-104.98v-25.497v-55.117h22.178v-15.547V147.795c-10.787,0-19.511,1.146-23.971,10.95l-61.72,135.283
		c-4.27,9.297-0.165,20.282,9.141,24.53c9.4,4.272,20.304,0.08,24.518-9.169l29.854-65.372v27.534
		c-8.594,0-15.541,6.954-15.541,15.547v80.613c0,8.551,6.917,15.49,15.492,15.523v91.394c0,12.277,9.934,22.226,22.227,22.226
		c12.273,0,22.195-9.949,22.195-22.226v-91.388h16.236v91.388c0,12.277,9.915,22.226,22.189,22.226
		c12.298,0,22.213-9.949,22.213-22.226v-91.394c8.595-0.034,15.506-6.972,15.506-15.523v-80.613c0-8.594-6.942-15.547-15.536-15.547
		v-27.515l29.83,65.353c4.233,9.249,15.138,13.441,24.543,9.169C364.597,314.301,368.682,303.326,364.437,294.029z"/>
	<rect id="XMLID_382_" x="233.645" y="147.795" width="29.579" height="62.479"/>
	<path id="XMLID_379_" d="M199.661,64.59v17.815c0,3.707,2.647,6.671,6.1,7.439c-0.288,2.077-0.627,4.16-0.627,6.325
		c0,23.915,19.37,43.29,43.31,43.29c23.902,0,43.29-19.376,43.29-43.29c0-2.166-0.344-4.249-0.651-6.325
		c3.489-0.749,6.174-3.713,6.174-7.439V64.566c7.396-5.858,11.825-14.789,11.825-24.278c0-18.77-16.978-33.947-35.974-30.725
		C259.765-3.199,237.055-3.18,223.76,9.573c-18.933-3.385-35.962,11.936-35.962,30.715C187.798,49.786,192.228,58.733,199.661,64.59
		z M218.926,24.691c1.535,0,3.14,0.298,4.927,0.921c3.15,1.066,6.628,0.04,8.643-2.561c7.839-10.038,24.02-10.053,31.902,0
		c2.052,2.592,5.51,3.594,8.631,2.546c1.775-0.614,3.392-0.906,4.907-0.906c8.612,0,15.605,6.994,15.605,15.597
		c0,5.572-2.955,10.612-7.913,13.438c-2.425,1.388-3.912,3.965-3.912,6.745v14.166h-66.537v-14.16c0-2.786-1.48-5.369-3.906-6.751
		c-4.988-2.826-7.949-7.857-7.949-13.438C203.322,31.685,210.319,24.691,218.926,24.691z"/>
</g>
<g>
</g>
<g>
</g>
<g>
</g>
<g>
</g>
<g>
</g>
<g>
</g>
<g>
</g>
<g>
</g>
<g>
</g>
<g>
</g>
<g>
</g>
<g>
</g>
<g>
</g>
<g>
</g>
<g>
</g>
</svg>
