<?xml version="1.0" encoding="iso-8859-1"?>
<!-- Generator: Adobe Illustrator 18.0.0, SVG Export Plug-In . SVG Version: 6.00 Build 0)  -->
<!DOCTYPE svg PUBLIC "-//W3C//DTD SVG 1.1//EN" "http://www.w3.org/Graphics/SVG/1.1/DTD/svg11.dtd">
<svg version="1.1" id="Capa_1" xmlns="http://www.w3.org/2000/svg" xmlns:xlink="http://www.w3.org/1999/xlink" x="0px" y="0px"
	 viewBox="0 0 494.011 494.011" style="enable-background:new 0 0 494.011 494.011;" xml:space="preserve">
<g id="XMLID_390_">
	<path id="XMLID_397_" d="M186.338,77.124c-9.124,0-17.629-2.537-25.008-6.808c-0.018,0.692-0.209,1.339-0.209,2.038
		c0,25.16,20.4,45.553,45.566,45.553c25.167,0,45.567-20.394,45.567-45.553c0-0.699-0.16-1.352-0.197-2.038
		c-7.377,4.271-15.883,6.808-25.007,6.808H186.338z"/>
	<path id="XMLID_394_" d="M389.81,126.517c-4.369,0-214.398,0.058-218.75,0.316c-8.039-0.791-16.048,3.317-19.589,11.085
		L86.486,280.275c-4.467,9.789-0.16,21.349,9.633,25.813c9.699,4.446,21.318,0.232,25.816-9.636l29.517-64.676v44.543h110.472
		V165.496H389.81c10.76,0,19.48-8.726,19.48-19.489C409.29,135.243,400.57,126.517,389.81,126.517z M223.784,242.08l-13.199,25.161
		c-0.772,1.44-2.254,2.344-3.897,2.344c-1.611,0-3.124-0.903-3.866-2.353l-13.212-25.151c-0.778-1.458-1.145-3.061-1.133-4.712
		c0.128-10.837,1.226-53.545,9.204-72.485l-6.109-6.122c-1.722-1.716-1.722-4.488,0-6.205l12.022-12.029
		c1.71-1.716,4.479-1.716,6.201,0l12.035,12.029c0.827,0.821,1.292,1.942,1.292,3.101c0,1.162-0.465,2.279-1.292,3.104l-6.122,6.122
		c7.998,18.95,9.076,61.648,9.204,72.485C224.924,239.001,224.538,240.628,223.784,242.08z"/>
	<path id="XMLID_393_" d="M261.923,292.818c-98.338,0-12.023,0-110.472,0c0,0-0.067,11.07-0.067,177.806
		c0,12.914,10.479,23.387,23.396,23.387c12.923,0,23.395-10.472,23.395-23.387V331.264h17.048v139.361
		c0,12.914,10.479,23.387,23.383,23.387c12.905,0,23.379-10.472,23.379-23.387C261.986,260.23,261.923,309.069,261.923,292.818z"/>
	<path id="XMLID_392_" d="M149.099,22.06h115.19l6.428-8.83c1.839-2.54,2.096-5.889,0.68-8.677C269.975,1.755,267.107,0,263.983,0
		H149.405c-3.144,0-6.011,1.755-7.427,4.553c-1.421,2.788-1.164,6.137,0.693,8.677L149.099,22.06z"/>
	<path id="XMLID_391_" d="M258.572,38.559H154.817c4.755,12.856,17.004,22.066,31.521,22.066h40.712
		C241.555,60.625,253.798,51.415,258.572,38.559z"/>
</g>
<g>
</g>
<g>
</g>
<g>
</g>
<g>
</g>
<g>
</g>
<g>
</g>
<g>
</g>
<g>
</g>
<g>
</g>
<g>
</g>
<g>
</g>
<g>
</g>
<g>
</g>
<g>
</g>
<g>
</g>
</svg>
