<svg id="Layer_1" enable-background="new 0 0 512 512" height="512" viewBox="0 0 512 512" width="512" xmlns="http://www.w3.org/2000/svg"><g><path d="m98.712 128.714c21.706 0 39.289-18.281 37.867-40.422-10.314 7.803-24.584 11.71-37.867 11.71-13.373 0-27.619-3.954-37.865-11.716-1.428 22.174 16.183 40.428 37.865 40.428z"/><path d="m225.377 264.165-23.5-20.912-15.355-61.649c-5.146-26.244-23.523-41.892-49.256-41.892h-12.024c-1.444 7.476-7.386 34.743-18.65 43.314l1.964-9.329c.065-.308.067-.626.006-.935l-2.307-10.706c-.216-1.098-1.179-1.89-2.298-1.89h-8.847c-1.119 0-2.082.792-2.298 1.89l-2.307 10.706c-.061.309-.059.627.006.935l1.964 9.329c-11.264-8.57-17.206-35.838-18.65-43.314h-24.117c-23.329 0-42.624 18.98-42.741 42.309v125.599c0 9.664 7.724 17.498 17.388 17.498s17.607-7.834 17.607-17.498v-125.424c.021-4.13 4.612-7.49 8.741-7.49v315.35c0 12.119 9.992 21.944 22.111 21.944s21.944-9.825 21.944-21.944v-175.658h9.553v175.658c0 12.119 9.825 21.944 21.944 21.944s21.863-9.825 21.863-21.944v-311.442c1.879 2.116 3.23 5.281 4.117 9.996.063.333.135.664.217.992l16.776 67.356c.851 3.419 2.715 6.5 5.347 8.842l26.2 23.315c.562-.772 1.17-1.517 1.859-2.206z"/><path d="m44.465 40.804c0 11.057 7.137 16.943 16.945 20.078v7.143c.015 9.184 17.966 19.528 37.301 19.528 19.876 0 37.3-10.651 37.316-19.528v-7.148c9.801-3.136 16.932-9.021 16.932-20.073 0-9.573-6.208-20.062-16.605-28.059-10.686-8.219-24.054-12.745-37.643-12.745-13.583 0-26.949 4.526-37.635 12.744-10.401 7.999-16.611 18.488-16.611 28.06zm62.129 11.633c0 8.059-4.154 13.675-7.883 13.675s-7.883-5.616-7.883-13.675 4.154-13.676 7.883-13.676 7.883 5.617 7.883 13.676z"/><path d="m89.624 143.086 2.339 12.668c.25 1.355 1.431 2.338 2.809 2.338h9.525c1.378 0 2.559-.983 2.809-2.338l2.339-12.668c.324-1.756-1.024-3.375-2.809-3.375h-14.203c-1.785 0-3.133 1.62-2.809 3.375z"/><path d="m259.882 248.898-48.589 48.589c-2.328 2.327-2.328 6.101 0 8.429l20.035 20.035c2.328 2.328 6.101 2.327 8.429 0l16.76-16.76c-1.774-2.873-3.03-5.987-3.769-9.203-4.198.974-8.787-.161-12.059-3.433-5.042-5.042-5.042-13.218 0-18.26 4.378-4.378 11.116-4.949 16.117-1.725.803-1.249 1.704-2.456 2.71-3.608l15.319-17.54-6.524-6.524c-2.327-2.326-6.102-2.327-8.429 0z"/><path d="m413.213 128.506c22.398 0 38.031-17.834 38.031-37.747 0-20.962-16.993-37.955-37.955-37.955s-37.955 16.993-37.955 37.955c0 19.619 14.886 35.76 33.979 37.747z"/><path d="m462.293 139.711h-23.958-.16c-1.444 7.476-7.386 34.743-18.65 43.314l1.964-9.329c.065-.308.067-.626.006-.935l-2.307-10.706c-.216-1.098-1.179-1.89-2.298-1.89h-8.847c-1.119 0-2.082.792-2.298 1.89l-2.307 10.706c-.061.309-.059.627.006.935l1.964 9.329c-11.264-8.57-17.206-35.838-18.65-43.314h-12.023c-25.733 0-44.111 15.647-49.257 41.891l-11.799 47.376-44.279 50.699c-6.357 7.279-5.61 18.332 1.669 24.689 7.259 6.339 18.313 5.63 24.689-1.669l47.057-53.88c1.827-2.091 3.129-4.587 3.801-7.281 9.556-38.399 13.005-52.155 13.151-52.926.888-4.716 2.254-7.88 4.134-9.996v311.442c0 12.119 9.727 21.944 21.846 21.944s21.944-9.825 21.944-21.944v-175.658h9.554v175.658c0 12.119 9.825 21.944 21.944 21.944s22.111-9.825 22.111-21.944v-315.35c4.129 0 8.72 3.36 8.741 7.49v125.423c0 9.664 7.944 17.498 17.607 17.498s17.388-7.834 17.388-17.498v-125.6c-.121-23.328-19.415-42.308-42.743-42.308z"/><path d="m419.567 139.711h-14.203c-1.785 0-3.133 1.619-2.809 3.375l2.339 12.668c.25 1.355 1.431 2.338 2.809 2.338h9.525c1.378 0 2.559-.983 2.809-2.338l2.339-12.668c.324-1.755-1.024-3.375-2.809-3.375z"/></g></svg>