<?xml version="1.0" encoding="iso-8859-1"?>
<!-- Generator: Adobe Illustrator 19.0.0, SVG Export Plug-In . SVG Version: 6.00 Build 0)  -->
<svg version="1.1" id="Capa_1" xmlns="http://www.w3.org/2000/svg" xmlns:xlink="http://www.w3.org/1999/xlink" x="0px" y="0px"
	 viewBox="0 0 512.002 512.002" style="enable-background:new 0 0 512.002 512.002;" xml:space="preserve">
<g>
	<g>
		<path d="M499.646,108.501H12.354C5.542,108.501,0,113.987,0,120.73v28.378c0,6.744,5.542,12.23,12.354,12.23h26.475v19.932
			v177.285c-5.551,1.274-9.707,6.243-9.707,12.174v20.272c0,6.893,5.607,12.5,12.5,12.5h48.242c6.893,0,12.5-5.607,12.5-12.5V370.73
			c0-5.931-4.156-10.901-9.707-12.174V193.501h326.688v104.122c0,4.142,3.357,7.5,7.5,7.5s7.5-3.358,7.5-7.5V193.501h23.828V358.23
			h-23.828v-32.229c0-4.142-3.357-7.5-7.5-7.5s-7.5,3.358-7.5,7.5v32.555c-5.551,1.274-9.707,6.243-9.707,12.174v20.271
			c0,6.893,5.607,12.5,12.5,12.5h48.242c6.893,0,12.5-5.607,12.5-12.5V370.73c0-5.931-4.156-10.901-9.707-12.174V181.272V161.34
			h26.475c6.812,0,12.354-5.486,12.354-12.23v-28.378C512,113.987,506.458,108.501,499.646,108.501z M87.363,388.501H44.121V373.23
			h43.242V388.501z M53.828,358.23V193.501h23.828V358.23H53.828z M467.879,388.501h-43.242V373.23h43.242V388.501z M497,146.339
			H123.984c-4.143,0-7.5,3.358-7.5,7.5c0,4.142,3.357,7.5,7.5,7.5h334.188v17.162H53.828v-17.162h41.035c4.143,0,7.5-3.358,7.5-7.5
			c0-4.142-3.357-7.5-7.5-7.5H15v-22.838h482V146.339z"/>
	</g>
</g>
<g>
</g>
<g>
</g>
<g>
</g>
<g>
</g>
<g>
</g>
<g>
</g>
<g>
</g>
<g>
</g>
<g>
</g>
<g>
</g>
<g>
</g>
<g>
</g>
<g>
</g>
<g>
</g>
<g>
</g>
</svg>
