<svg id="Capa_1" enable-background="new 0 0 512 512" height="512" viewBox="0 0 512 512" width="512" xmlns="http://www.w3.org/2000/svg"><path d="m488.747 54.195h-465.493c-12.823 0-23.254 10.431-23.254 23.254v19.632c0 12.822 10.431 23.254 23.254 23.254h9.023v33.729 186.117c0 4.15 3.364 7.515 7.515 7.515s7.515-3.365 7.515-7.515v-178.602h26.095v281.197h-26.096v-72.536c0-4.15-3.365-7.515-7.515-7.515s-7.515 3.364-7.515 7.515v80.05c0 4.15 3.364 7.515 7.515 7.515h41.124c4.15 0 7.515-3.365 7.515-7.515v-288.711h335.14v53.425c0 4.15 3.364 7.515 7.515 7.515s7.515-3.365 7.515-7.515v-53.425h26.095v281.197h-26.095v-197.714c0-4.15-3.364-7.515-7.515-7.515s-7.515 3.364-7.515 7.515v205.228c0 4.15 3.364 7.515 7.515 7.515h41.124c4.151 0 7.515-3.365 7.515-7.515v-296.226-33.729h9.023c12.822 0 23.253-10.432 23.253-23.254v-19.632c0-12.823-10.431-23.254-23.253-23.254zm8.224 42.886c0 4.535-3.689 8.225-8.224 8.225h-292.464c-4.15 0-7.515 3.364-7.515 7.515 0 4.15 3.365 7.515 7.515 7.515h268.412v26.215h-417.389v-26.215h118.918c4.15 0 7.515-3.364 7.515-7.515 0-4.15-3.365-7.515-7.515-7.515h-142.97c-4.535 0-8.224-3.689-8.224-8.225v-19.632c0-4.535 3.689-8.224 8.224-8.224h465.493c4.535 0 8.224 3.689 8.224 8.224z"/></svg>