<svg id="Capa_1" enable-background="new 0 0 512 512" height="512" viewBox="0 0 512 512" width="512" xmlns="http://www.w3.org/2000/svg"><g><path d="m494.546 50.547h-477.092c-9.624 0-17.454 7.83-17.454 17.454 0 14.496 11.793 26.289 26.289 26.289h28.387v36.02c0 9.007 7.328 16.334 16.334 16.334h5.011c-3.29 11.305-5.827 22.855-7.545 34.464-1.668 11.271-3.954 26.708-2.48 46.933 1.145 15.708 4.255 31.286 9.25 46.307l21.087 63.127c4.954 14.831 6.381 30.454 4.25 45.802-8.144-4.526-18.635-3.335-25.543 3.573l-9.945 9.944c-6.471 6.472-10.035 15.075-10.035 24.227s3.564 17.756 10.035 24.227l9.945 9.946c4.173 4.173 9.655 6.259 15.137 6.259 5.254 0 10.509-1.917 14.61-5.75 3.099-2.199 17.512-12.978 29.889-31.487 18.23-27.265 23.343-58.403 14.787-90.049-6.649-26.178-23.319-98.147-20.877-117.524 1.837-14.576 6.33-28.465 13.371-41.35 6.347-.273 16.87-2.228 25.255-11.153 5.264-5.603 7.686-11.842 8.783-16.913 3.754.394 7.499.907 11.191 1.569.448.08.893.119 1.333.119 3.563 0 6.723-2.548 7.374-6.178.731-4.077-1.981-7.975-6.059-8.706-6.593-1.182-13.333-1.981-20.032-2.375-.146-.008-.293-.013-.439-.013h-98.353c-.736 0-1.334-.599-1.334-1.334v-36.019h326.362c4.142 0 7.5-3.358 7.5-7.5s-3.358-7.5-7.5-7.5h-369.749c-6.225 0-11.289-5.064-11.289-11.289 0-1.353 1.101-2.454 2.454-2.454h477.093c1.353 0 2.454 1.101 2.454 2.454 0 6.224-5.064 11.288-11.289 11.288h-55.519c-4.142 0-7.5 3.358-7.5 7.5s3.358 7.5 7.5 7.5h12.132v36.02c0 .736-.599 1.334-1.335 1.334h-98.352c-.043 0-.087 0-.13.001-19.584.34-38.539 4.38-56.337 12.008-10.551 4.522-20.6 10.295-29.867 17.159-.295.22-.688.233-.979.034-10.428-7.131-21.661-13.09-33.386-17.711-3.856-1.519-8.209.374-9.728 4.227s.374 8.209 4.227 9.728c10.683 4.21 20.917 9.64 30.42 16.138 2.691 1.84 5.808 2.756 8.923 2.756 3.324 0 6.647-1.042 9.449-3.117 8.334-6.172 17.367-11.362 26.85-15.426 13.928-5.97 28.653-9.494 43.861-10.509 1.066 5.122 3.48 11.496 8.846 17.208 8.387 8.927 18.909 10.881 25.255 11.153 7.041 12.885 11.534 26.774 13.371 41.35 2.441 19.372-14.23 91.351-20.878 117.527-8.556 31.646-3.442 62.781 14.788 90.046 12.376 18.51 26.79 29.288 29.889 31.487 4.102 3.833 9.356 5.75 14.61 5.75 5.482 0 10.964-2.086 15.137-6.26l9.945-9.944c6.471-6.472 10.035-15.075 10.035-24.228 0-9.151-3.564-17.755-10.035-24.226l-9.945-9.946c-6.908-6.907-17.398-8.1-25.543-3.572-2.131-15.348-.704-30.971 4.25-45.802l21.091-63.137c4.991-15.012 8.102-30.589 9.246-46.297 1.474-20.225-.812-35.662-2.479-46.933-1.718-11.609-4.254-23.159-7.545-34.464h5.011c9.007 0 16.335-7.328 16.335-16.334v-36.019h28.387c14.495 0 26.288-11.793 26.288-26.289 0-9.624-7.83-17.454-17.454-17.454zm-333.913 96.097c-.818 2.349-2.161 4.892-4.353 7.225-6.889 7.333-16.722 6.498-17.819 6.38-2.923-.322-5.757 1.1-7.257 3.624-9.337 15.71-15.225 32.833-17.5 50.895-3.24 25.711 18.721 113.253 21.236 123.15.01.038.02.076.03.114 7.467 27.566 3.273 53.608-12.466 77.4-7.814 11.813-16.57 20.74-27.796 29.154-2.827 2.119-6.563 2.497-9.061.001l-9.945-9.946c-7.51-7.51-7.51-19.729 0-27.24l9.945-9.944c1.249-1.25 2.89-1.874 4.53-1.874s3.281.625 4.53 1.873l5.333 5.334c1.896 1.896 4.657 2.635 7.247 1.941 2.589-.694 4.61-2.718 5.303-5.307 5.89-22.03 5.188-45.095-2.029-66.701l-21.084-63.117c-4.6-13.833-7.466-28.185-8.521-42.655-1.353-18.575.792-33.066 2.358-43.646 1.831-12.375 4.638-24.682 8.359-36.661h68.96zm268.053 36.661c1.566 10.581 3.711 25.071 2.358 43.646-1.055 14.47-3.921 28.821-8.517 42.645l-21.087 63.127c-7.217 21.606-7.918 44.671-2.029 66.701.692 2.589 2.714 4.612 5.303 5.307 2.589.692 5.352-.045 7.247-1.941l5.333-5.333c2.498-2.5 6.563-2.497 9.061-.001l9.945 9.946c7.51 7.51 7.51 19.729 0 27.24l-9.945 9.944c-2.498 2.498-6.176 2.039-9.061 0-10.821-7.649-19.974-17.33-27.796-29.154-15.739-23.792-19.934-49.834-12.466-77.4.01-.038.02-.076.03-.114 2.515-9.896 24.476-97.438 21.236-123.15-2.275-18.061-8.163-35.185-17.5-50.895-1.361-2.29-3.821-3.668-6.445-3.668-.269 0-.54.014-.812.044-1.099.118-10.93.952-17.819-6.38-2.191-2.333-3.535-4.876-4.353-7.225h68.958c3.72 11.979 6.527 24.286 8.359 36.661z"/></g></svg>