<?xml version="1.0"?>
<svg xmlns="http://www.w3.org/2000/svg" xmlns:xlink="http://www.w3.org/1999/xlink" version="1.1" id="Capa_1" x="0px" y="0px" viewBox="0 0 466 466" style="enable-background:new 0 0 466 466;" xml:space="preserve" width="512px" height="512px"><g><g>
	<path d="M233,300c-2.787,0-5.373,1.45-6.826,3.828c-4.812,7.873-47.006,77.803-47.006,108.34C179.168,441.851,203.317,466,233,466   s53.832-24.149,53.832-53.832c0-30.537-42.194-100.467-47.006-108.34C238.373,301.45,235.787,300,233,300z M233,450   c-20.86,0-37.832-16.972-37.832-37.832c0-18.725,23.212-63.033,37.832-88.447c14.62,25.414,37.832,69.723,37.832,88.447   C270.832,433.028,253.86,450,233,450z" data-original="#000000" class="active-path" data-old_color="#000000" fill="#FE043D"/>
	<path d="M395.536,116.803c0-2.613-1.276-5.062-3.418-6.558L297.68,44.259V8c0-4.418-3.582-8-8-8H176.32c-4.418,0-8,3.582-8,8   v36.259l-94.438,65.986c-2.142,1.496-3.418,3.944-3.418,6.558c0,45.387,18.707,86.48,48.806,115.997   c0.433,0.551,0.938,1.052,1.517,1.482c29.196,27.899,68.737,45.058,112.212,45.058c43.49,0,83.044-17.171,112.243-45.087   c0.551-0.412,1.032-0.891,1.449-1.415C376.813,203.317,395.536,162.209,395.536,116.803z M180.902,54.986   c2.142-1.496,3.418-3.944,3.418-6.558V16h97.359v32.429c0,2.613,1.276,5.062,3.418,6.558l94.381,65.946   c-0.99,35.608-14.748,68.078-36.846,92.993l-70.081-145.96c-1.912-3.983-6.688-5.661-10.675-3.749   c-3.982,1.912-5.661,6.691-3.749,10.675l72.531,151.063c-24.083,21.57-55.316,35.305-89.659,37.162V76.726c0-4.418-3.582-8-8-8   s-8,3.582-8,8v186.391c-34.343-1.857-65.576-15.593-89.659-37.162l32.246-67.159c1.912-3.983,0.233-8.763-3.749-10.675   c-3.985-1.912-8.763-0.233-10.675,3.749l-29.796,62.056c-22.097-24.915-35.856-57.385-36.846-92.994L180.902,54.986z" data-original="#000000" class="active-path" data-old_color="#000000" fill="#FE043D"/>
	<path d="M169.396,136.545c1.117,0.536,2.296,0.79,3.457,0.79c2.98,0,5.842-1.673,7.218-4.539l27.802-57.904   c1.912-3.983,0.233-8.763-3.749-10.675c-3.984-1.913-8.763-0.234-10.675,3.749l-27.802,57.904   C163.734,129.854,165.413,134.633,169.396,136.545z" data-original="#000000" class="active-path" data-old_color="#000000" fill="#FE043D"/>
</g></g> </svg>
