<?xml version="1.0"?>
<svg xmlns="http://www.w3.org/2000/svg" xmlns:xlink="http://www.w3.org/1999/xlink" version="1.1" id="Capa_1" x="0px" y="0px" viewBox="0 0 512.001 512.001" style="enable-background:new 0 0 512.001 512.001;" xml:space="preserve" width="512px" height="512px"><g><g>
	<g>
		<path d="M400.179,352.569l-81.742-239.517c17.031-55.144,17.032-61.483,17.032-63.604C335.469,22.183,313.286,0,286.021,0    c-9.985,0-19.61,2.967-27.836,8.581c-1.326,0.905-3.042,0.905-4.366,0C245.591,2.967,235.966,0,225.98,0    c-27.266,0-49.448,22.183-49.448,49.449c0,2.121,0.001,8.46,17.032,63.604L111.823,352.57c-2.299,6.736,0.453,14.16,6.586,17.771    c37.973,22.357,80.066,34.702,122.592,37.053v35.576h-10.279c-29.793,0-54.031,24.238-54.031,54.031c0,8.284,6.716,15,15,15    h128.621c8.284,0,15-6.716,15-15c0-29.793-24.238-54.031-54.031-54.031H271v-35.576c42.525-2.351,84.619-14.696,122.592-37.053    C399.726,366.729,402.477,359.305,400.179,352.569z M225.98,30c3.926,0,7.704,1.162,10.926,3.36c11.6,7.916,26.589,7.916,38.188,0    c3.221-2.198,6.999-3.36,10.925-3.36c10.534,0,19.139,8.419,19.44,18.882c-0.832,5.223-7.139,27.234-13.667,48.702h-22.909    c-2.616-4.394-7.399-7.347-12.884-7.347c-5.485,0-10.268,2.953-12.884,7.347h-22.909c-6.529-21.466-12.835-43.477-13.667-48.702    C206.841,38.418,215.446,30,225.98,30z M281.281,472.969c7.58,0,14.354,3.53,18.762,9.031h-88.084    c4.408-5.501,11.182-9.031,18.763-9.031H281.281z M144.265,350.394l76.041-222.81h22.811c2.616,4.394,7.399,7.348,12.884,7.348    s10.269-2.954,12.884-7.348h22.811l76.041,222.81C297.797,386.961,214.203,386.961,144.265,350.394z" data-original="#000000" class="active-path" data-old_color="#000000" fill="#FE043D"/>
	</g>
</g></g> </svg>
