<svg height="512" viewBox="0 0 64 64" width="512" xmlns="http://www.w3.org/2000/svg"><path d="m8.149 56.474a1 1 0 0 0 -.044.973l2 4a1 1 0 0 0 .895.553h42a1 1 0 0 0 .9-.553l2-4a1 1 0 0 0 -.9-1.447h-8.726a7.967 7.967 0 0 0 -.028-12.025 2.981 2.981 0 0 0 1.515-5.392 4.475 4.475 0 0 0 1.239-3.083v-3.5a1 1 0 0 0 -1-1h-3.5a4.474 4.474 0 0 0 -2.5.762v-3.946a3 3 0 0 0 2-2.816v-4a3 3 0 0 0 -6 0v4a3 3 0 0 0 2 2.816v3.946a4.474 4.474 0 0 0 -2.5-.762h-3.5a1 1 0 0 0 -1 1v3.5a4.475 4.475 0 0 0 1.239 3.083 2.981 2.981 0 0 0 1.515 5.392 7.967 7.967 0 0 0 -.028 12.025h-7.452a7.967 7.967 0 0 0 -.028-12.025 2.984 2.984 0 0 0 0-5.95 7.968 7.968 0 0 0 0-12.05 2.992 2.992 0 0 0 -.246-5.975h-4v-8.184a3 3 0 0 0 2-2.816v-4a3 3 0 0 0 -6 0v4a3 3 0 0 0 2 2.816v8.184h-4a2.992 2.992 0 0 0 -.246 5.975 7.968 7.968 0 0 0 0 12.05 2.984 2.984 0 0 0 0 5.95 7.967 7.967 0 0 0 -.028 12.025h-8.726a1 1 0 0 0 -.851.474zm13.851-51.474a1 1 0 0 1 2 0v4a1 1 0 0 1 -2 0zm22.5 28h2.5v2.5a2.5 2.5 0 0 1 -2.5 2.5h-2.5v-2.5a2.5 2.5 0 0 1 2.5-2.5zm-4.5-12a1 1 0 0 1 2 0v4a1 1 0 0 1 -2 0zm-5 12h2.5a2.5 2.5 0 0 1 2.5 2.5v2.5h-2.5a2.5 2.5 0 0 1 -2.5-2.5zm1 9a1 1 0 0 1 0-2h10a1 1 0 0 1 0 2zm5 2a6.005 6.005 0 0 1 5.906 4.976 3 3 0 0 0 -2.236-.976 3.269 3.269 0 0 0 -2.57 1.325c-.439.48-.636.675-1.092.675s-.661-.2-1.1-.678a3.269 3.269 0 0 0 -2.568-1.322 3.007 3.007 0 0 0 -2.248.986 6.006 6.006 0 0 1 5.908-4.986zm-5.787 7.561a4.776 4.776 0 0 0 1.033-.888c.44-.479.636-.673 1.094-.673s.653.194 1.093.674a3.159 3.159 0 0 0 5.145 0c.439-.48.635-.675 1.092-.675s.652.194 1.093.674a4.863 4.863 0 0 0 1.025.883 5.992 5.992 0 0 1 -11.575 0zm-17.213-27.561a1 1 0 0 1 0-2h10a1 1 0 0 1 0 2zm5 2a6.006 6.006 0 0 1 5.908 4.986 3.007 3.007 0 0 0 -2.248-.986 3.269 3.269 0 0 0 -2.566 1.322c-.443.482-.641.678-1.1.678s-.653-.2-1.092-.675a3.269 3.269 0 0 0 -2.572-1.325 3 3 0 0 0 -2.236.976 6.005 6.005 0 0 1 5.906-4.976zm-5.788 7.557a4.863 4.863 0 0 0 1.025-.883c.441-.48.638-.674 1.093-.674s.653.2 1.092.675a3.159 3.159 0 0 0 5.145 0c.44-.48.637-.674 1.093-.674s.654.194 1.094.673a4.776 4.776 0 0 0 1.033.888 5.992 5.992 0 0 1 -11.575 0zm.788 8.443a1 1 0 0 1 0-2h10a1 1 0 0 1 0 2zm5 2a6.006 6.006 0 0 1 5.908 4.986 3.007 3.007 0 0 0 -2.248-.986 3.269 3.269 0 0 0 -2.566 1.322c-.443.482-.641.678-1.1.678s-.653-.2-1.092-.675a3.269 3.269 0 0 0 -2.572-1.325 3 3 0 0 0 -2.236.976 6.005 6.005 0 0 1 5.906-4.976zm-5.788 7.557a4.863 4.863 0 0 0 1.025-.883c.441-.48.638-.674 1.093-.674s.653.2 1.092.675a3.159 3.159 0 0 0 5.145 0c.44-.48.637-.674 1.093-.674s.654.194 1.094.673a4.776 4.776 0 0 0 1.033.888 5.992 5.992 0 0 1 -11.575 0zm36.17 6.443-1 2h-40.764l-1-2z"/><path d="m11 31h2v20h-2z"/><path d="m11 27h2v2h-2z"/><path d="m51 39h2v13h-2z"/></svg>