<?xml version="1.0"?>
<svg xmlns="http://www.w3.org/2000/svg" id="Outline" viewBox="0 0 64 64" width="512" height="512"><path d="M60,30H57.81573A2.96457,2.96457,0,0,0,58,29V28h2V26H57.81573A2.96457,2.96457,0,0,0,58,25V24h2V22H57.81573A2.96457,2.96457,0,0,0,58,21V20h2V18H45v2h2v1a2.96485,2.96485,0,0,0,.18433,1H45v2h2v1a2.96485,2.96485,0,0,0,.18433,1H45v2h2v1a2.96485,2.96485,0,0,0,.18433,1H43V20a2.00229,2.00229,0,0,0-2-2V15a7.00818,7.00818,0,0,0-7-7H33V6H31V8H30a7.00818,7.00818,0,0,0-7,7v3a2.00229,2.00229,0,0,0-2,2V30H16.81573A2.96457,2.96457,0,0,0,17,29V23h2V21H8.72089l-1.3161-3.94922A2.99737,2.99737,0,0,0,4.55859,15H3v2H4.55859a.99822.99822,0,0,1,.94873.68359L6.61255,21H3v2H5v6a2.96485,2.96485,0,0,0,.18433,1H4a2.00229,2.00229,0,0,0-2,2v2a2.00229,2.00229,0,0,0,2,2H8V49a3.00328,3.00328,0,0,0,3,3h2v6h2V52H49v6h2V52h2a3.00328,3.00328,0,0,0,3-3V36h4a2.00229,2.00229,0,0,0,2-2V32A2.00229,2.00229,0,0,0,60,30ZM49,21V20h7v1a1.001,1.001,0,0,1-1,1H50A1.001,1.001,0,0,1,49,21Zm0,4V24h7v1a1.001,1.001,0,0,1-1,1H50A1.001,1.001,0,0,1,49,25Zm0,4V28h7v1a1.001,1.001,0,0,1-1,1H50A1.001,1.001,0,0,1,49,29Zm-8,1H38.7207l-1.33349-4H41Zm-4.38733,0H27.38733l1.33325-4h6.55884ZM25,15a5.00588,5.00588,0,0,1,5-5h4a5.00588,5.00588,0,0,1,5,5v3H25Zm-2,5H41v4H23Zm0,6h3.61279L25.2793,30H23ZM7,29V23h8v6a1.001,1.001,0,0,1-1,1H8A1.001,1.001,0,0,1,7,29ZM4,34V32H8v2ZM54,49a1.001,1.001,0,0,1-1,1H11a1.001,1.001,0,0,1-1-1V32H54Zm2-15V32h4l.00146,2Z"/><path d="M12.832,10.94531l-1-1.5L10.168,10.55469l1,1.5a.80392.80392,0,0,1-.22266,1.11328,2.80572,2.80572,0,0,0-.77734,3.88672l1,1.5L12.832,17.44531l-1-1.5a.80392.80392,0,0,1,.22266-1.11328A2.80572,2.80572,0,0,0,12.832,10.94531Z"/><path d="M17.832,10.94531l-1-1.5L15.168,10.55469l1,1.5a.80392.80392,0,0,1-.22266,1.11328,2.80572,2.80572,0,0,0-.77734,3.88672l1,1.5L17.832,17.44531l-1-1.5a.80392.80392,0,0,1,.22266-1.11328A2.80572,2.80572,0,0,0,17.832,10.94531Z"/></svg>
