<?xml version="1.0"?>
<svg xmlns="http://www.w3.org/2000/svg" viewBox="0 0 64 64" width="512" height="512"><g id="outline"><path d="M61,35H54V32.236L55.618,29H58V27H55.941A9.01,9.01,0,0,0,47,19V18a1,1,0,0,0-2,0v1a9.01,9.01,0,0,0-8.941,8H34v2h2.382L38,32.236V35H26V32.236L27.618,29H30V27H27.941A9.01,9.01,0,0,0,19,19V18a1,1,0,0,0-2,0v1a9.01,9.01,0,0,0-8.941,8H6v2H8.382L10,32.236V35H3a1,1,0,0,0-1,1V58a1,1,0,0,0,1,1,4.113,4.113,0,0,1,2.986,1.271,6.115,6.115,0,0,0,8.523,0,4.143,4.143,0,0,1,5.971,0,6.116,6.116,0,0,0,8.524,0,4.148,4.148,0,0,1,5.975,0,6.119,6.119,0,0,0,8.526,0,4.148,4.148,0,0,1,5.975,0,6.126,6.126,0,0,0,8.531,0A4.118,4.118,0,0,1,61,59a1,1,0,0,0,1-1V36A1,1,0,0,0,61,35ZM38.618,29H53.382l-1,2H39.618ZM45,21h2a7.011,7.011,0,0,1,6.929,6H38.071A7.011,7.011,0,0,1,45,21ZM40,33H52v2H40ZM10.618,29H25.382l-1,2H11.618ZM17,21h2a7.011,7.011,0,0,1,6.929,6H10.071A7.011,7.011,0,0,1,17,21ZM12,33H24v2H12ZM60,57.074a6.349,6.349,0,0,0-3.265,1.655A5.214,5.214,0,0,1,55,59.816V51H53v8.936a4.482,4.482,0,0,1-2.244-1.207A6.709,6.709,0,0,0,48,57.179V47H46V57.027a6.208,6.208,0,0,0-3.771,1.7,4.147,4.147,0,0,1-5.975,0,6.4,6.4,0,0,0-3.262-1.646L33,52l-2,0-.008,5.084a6.379,6.379,0,0,0-3.263,1.646A5.23,5.23,0,0,1,26,59.814V45H24V59.937a4.482,4.482,0,0,1-2.244-1.207A6.688,6.688,0,0,0,19,57.178V48H17v9.027a6.2,6.2,0,0,0-3.767,1.7,4.143,4.143,0,0,1-5.971,0A6.343,6.343,0,0,0,4,57.074V37H60Z"/><polygon points="6 48 8 48 8 41 11 41 11 39 6 39 6 48"/><polygon points="52 41 56 41 56 45 58 45 58 39 52 39 52 41"/><path d="M55,2H9A1,1,0,0,0,8,3V6.586L2.293,12.293A1,1,0,0,0,3,14H61a1,1,0,0,0,.707-1.707L56,6.586V3A1,1,0,0,0,55,2ZM10,4H54V6H10ZM5.414,12l4-4H54.586l4,4Z"/></g></svg>
