<svg height="511pt" viewBox="1 -92 511.999 511" width="511pt" xmlns="http://www.w3.org/2000/svg"><path d="m200.625 208.625c1.917969 0 3.839844-.734375 5.300781-2.199219 2.929688-2.929687 2.929688-7.675781 0-10.605469l-62.832031-62.832031 9.433594-9.4375 14.738281 14.738281c1.460937 1.464844 3.382813 2.199219 5.300781 2.199219 1.917969 0 3.839844-.734375 5.304688-2.199219l42.082031-42.082031c13.976563-13.976562 13.976563-36.714843 0-50.6875-2.929687-2.929687-7.675781-2.929687-10.605469 0l-62.121094 62.121094s0 0-.003906.003906c0 0-.003906 0-.003906.003907l-14.734375 14.730468-18.257813-18.257812c7.363282-12.132813 5.8125-28.199219-4.660156-38.671875l-22.671875-22.671875c-2.929687-2.929688-7.679687-2.929688-10.609375 0-2.925781 2.929687-2.925781 7.679687 0 10.605468l22.675782 22.671876c3.125 3.125 4.847656 7.28125 4.847656 11.703124 0 4.421876-1.722656 8.578126-4.847656 11.703126s-7.28125 4.847656-11.703126 4.847656c-4.417968 0-8.574218-1.722656-11.699218-4.847656l-22.675782-22.671876c-2.929687-2.929687-7.675781-2.929687-10.605468 0-2.929688 2.925782-2.929688 7.675782 0 10.605469l22.671875 22.671875c5.960937 5.960938 13.882812 9.242188 22.308593 9.242188 5.867188 0 11.488282-1.59375 16.371094-4.570313l91.691406 91.6875c1.464844 1.464844 3.382813 2.199219 5.304688 2.199219zm13.039062-146.210938c3.382813 7.648438 1.941407 16.925782-4.316406 23.183594l-36.78125 36.78125-9.433594-9.433594zm0 0"/><path d="m81.953125 93.0625c1.464844 1.464844 3.386719 2.195312 5.304687 2.195312 1.917969 0 3.839844-.730468 5.304688-2.195312 2.925781-2.929688 2.925781-7.679688 0-10.605469l-22.675781-22.675781c-2.925781-2.929688-7.675781-2.929688-10.605469 0s-2.929688 7.679688 0 10.605469zm0 0"/><path d="m105.515625 149.351562-46.46875 46.46875c-2.929687 2.929688-2.929687 7.679688 0 10.605469 1.464844 1.464844 3.382813 2.199219 5.304687 2.199219 1.917969 0 3.835938-.734375 5.300782-2.199219l46.46875-46.46875c2.929687-2.925781 2.929687-7.675781 0-10.605469-2.929688-2.929687-7.679688-2.929687-10.605469 0zm0 0"/><path d="m103.691406 249c-12.972656 0-23.53125 10.558594-23.53125 23.53125 0 12.976562 10.558594 23.535156 23.53125 23.535156 12.976563 0 23.535156-10.558594 23.535156-23.535156 0-12.972656-10.558593-23.53125-23.535156-23.53125zm0 32.066406c-4.703125 0-8.53125-3.828125-8.53125-8.535156 0-4.703125 3.828125-8.53125 8.53125-8.53125 4.707032 0 8.535156 3.828125 8.535156 8.53125 0 4.707031-3.828124 8.535156-8.535156 8.535156zm0 0"/><path d="m424.339844 249c-12.976563 0-23.53125 10.558594-23.53125 23.53125 0 12.976562 10.554687 23.535156 23.53125 23.535156 12.972656 0 23.53125-10.558594 23.53125-23.535156 0-12.972656-10.558594-23.53125-23.53125-23.53125zm0 32.066406c-4.707032 0-8.53125-3.828125-8.53125-8.535156 0-4.703125 3.828125-8.53125 8.53125-8.53125s8.53125 3.828125 8.53125 8.53125c0 4.707031-3.828125 8.535156-8.53125 8.535156zm0 0"/><path d="m484.621094 174.136719-94.609375-12.613281-25.425781-82.640626c-4.101563-13.320312-16.21875-22.269531-30.152344-22.269531h-62.917969v-32.582031c0-12.976562-10.554687-23.53125-23.53125-23.53125h-224.453125c-12.972656 0-23.53125 10.554688-23.53125 23.53125v232.46875c0 12.976562 10.558594 23.53125 23.53125 23.53125h25.085938c3.671874 27.121094 26.964843 48.097656 55.074218 48.097656 28.113282 0 51.402344-20.976562 55.078125-48.097656h210.492188c3.675781 27.121094 26.964843 48.097656 55.078125 48.097656 28.109375 0 51.398437-20.976562 55.074218-48.097656h1.035157c17.398437 0 31.550781-14.152344 31.550781-31.546875v-43.074219c0-15.746094-11.769531-29.191406-27.378906-31.273437zm-110.515625-13.3125h-70.007813c-.285156 0-.515625-.234375-.515625-.519531v-56.113282c0-.285156.230469-.515625.515625-.515625h52.421875zm-270.414063 152.304687c-22.378906 0-40.585937-18.207031-40.59375-40.585937 0-.003907 0-.007813 0-.011719s0-.007812 0-.011719c.007813-22.378906 18.214844-40.585937 40.59375-40.585937 7.140625 0 14.15625 1.875 20.292969 5.429687 3.585937 2.070313 8.175781.847657 10.25-2.738281s.847656-8.171875-2.738281-10.25c-8.417969-4.867188-18.03125-7.441406-27.804688-7.441406-28.109375 0-51.398437 20.976562-55.074218 48.097656h-25.085938c-4.703125 0-8.53125-3.828125-8.53125-8.53125v-232.46875c0-4.703125 3.828125-8.53125 8.53125-8.53125h224.453125c4.703125 0 8.53125 3.828125 8.53125 8.53125v56.117188c0 4.144531 3.359375 7.5 7.5 7.5s7.5-3.355469 7.5-7.5v-8.535157h62.917969c7.308594 0 13.664062 4.695313 15.8125 11.683594l1.65625 5.382813h-47.804688c-8.558594 0-15.519531 6.957031-15.519531 15.515624v56.113282c0 8.554687 6.960937 15.515625 15.519531 15.515625h79.664063l98.875 13.183593c6.644531.886719 11.964843 5.699219 13.730469 11.898438h-7.898438c-4.144531 0-7.5 3.355469-7.5 7.5 0 4.140625 3.355469 7.5 7.5 7.5h8.53125v17.0625h-33.648438c-10.046874-9.902344-23.824218-16.03125-39.011718-16.03125-28.113282 0-51.402344 20.976562-55.078125 48.097656h-97.746094v-17.066406h78.171875c4.140625 0 7.5-3.355469 7.5-7.5 0-4.140625-3.359375-7.5-7.5-7.5h-78.171875v-120.757812c0-4.144532-3.359375-7.5-7.5-7.5s-7.5 3.355468-7.5 7.5v152.820312h-97.734375c-.503906-3.734375-1.378906-7.40625-2.636719-10.972656-1.375-3.90625-5.660156-5.960938-9.566406-4.585938-3.90625 1.378906-5.957031 5.660156-4.582031 9.566406 1.523437 4.324219 2.292968 8.863282 2.292968 13.492188 0 22.386719-18.210937 40.597656-40.597656 40.597656zm320.648438 0c-22.386719 0-40.597656-18.210937-40.597656-40.597656s18.210937-40.597656 40.597656-40.597656c22.382812 0 40.597656 18.210937 40.597656 40.597656s-18.214844 40.597656-40.597656 40.597656zm56.113281-48.097656h-1.039063c-.816406-6.046875-2.609374-11.789062-5.214843-17.0625h22.800781v.515625c0 9.125-7.421875 16.546875-16.546875 16.546875zm0 0"/></svg>