<svg height="512" viewBox="0 0 60 60" width="512" xmlns="http://www.w3.org/2000/svg"><g id="014---Mascarpone" transform="translate(0 -1)"><path id="Shape" d="m57 26h-2.1c-.6490018-4.8159998-4.2203957-8.7226479-8.959-9.8-.255-2.33-1.658-9.026-9.367-10.137-1.1065761-1.38014191-2.8070162-2.14708723-4.574-2.063-.2199179.0191572-.441207-.01515119-.645-.1.0207258-.48751639.1868503-.95768008.477-1.35.2019718-.30668634.2196042-.69939936.0459296-1.02295188-.1736747-.32355251-.5107134-.52588721-.8779296-.52704812-3.4363976-.20440788-6.6004492 1.86811502-7.786 5.1-7.526 1.2-8.9 7.8-9.158 10.105-4.73589475 1.0777883-8.30548024 4.9817733-8.956 9.795h-2.1c-1.65685425 0-3 1.3431458-3 3v8c.01221632 9.7142274 7.34094827 17.8590352 17 18.893v3.107c0 1.1045695.8954305 2 2 2h22c1.1045695 0 2-.8954305 2-2v-3.107c9.6590517-1.0339648 16.9877837-9.1787726 17-18.893v-8c0-1.6568542-1.3431458-3-3-3zm-41.783-8.024c.4574415-.1016879.7829196-.5073923.783-.976 0-.331.131-8.122 8.11-9.008.433421-.04842559.7854733-.37215189.87-.8.5342022-2.1210798 2.2847557-3.71728849 4.446-4.054-.351 1.596.504 2.862 2.574 2.862 1.2184107-.11052781 2.4022598.44206237 3.1 1.447.1539269.30196172.4484176.50716734.785.547 7.984.886 8.115 8.677 8.115 9.006.0000804.4686077.3255585.8743121.783.976 6.341 1.409 7.784 5.979 8.117 8.024h-45.8c.333-2.045 1.776-6.615 8.117-8.024zm25.783 41.024h-22v-3h22zm17-22c-.010471 9.3845001-7.6154999 16.989529-17 17h-22c-9.38450009-.010471-16.98952899-7.6154999-17-17v-8c0-.5522847.44771525-1 1-1h54c.5522847 0 1 .4477153 1 1z"/><path id="Shape" d="m21 16h-1c-.5522847 0-1 .4477153-1 1s.4477153 1 1 1h1c.5522847 0 1-.4477153 1-1s-.4477153-1-1-1z"/><path id="Shape" d="m29 16h-4c-.5522847 0-1 .4477153-1 1s.4477153 1 1 1h4c.5522847 0 1-.4477153 1-1s-.4477153-1-1-1z"/><path id="Shape" d="m6 30h-1c-.55228475 0-1 .4477153-1 1s.44771525 1 1 1h1c.55228475 0 1-.4477153 1-1s-.44771525-1-1-1z"/><path id="Shape" d="m30 30h-20c-.55228475 0-1 .4477153-1 1s.44771525 1 1 1h20c.5522847 0 1-.4477153 1-1s-.4477153-1-1-1z"/></g></svg>