<svg height="512pt" viewBox="0 0 512 512" width="512pt" xmlns="http://www.w3.org/2000/svg"><path d="m96 452c-5.519531 0-10 4.480469-10 10s4.480469 10 10 10 10-4.480469 10-10-4.480469-10-10-10zm0 0"/><path d="m476 80v-20h6c16.574219 0 30-13.425781 30-30 0-16.542969-13.457031-30-30-30h-452c-16.574219 0-30 13.425781-30 30 0 16.542969 13.457031 30 30 30h6v20c0 9.789062 3.609375 19.191406 10 26.429688v179.570312h-16c-16.574219 0-30 13.425781-30 30 0 16.542969 13.457031 30 30 30h16v156c0 5.523438 4.476562 10 10 10h400c5.523438 0 10-4.476562 10-10v-156h16c16.574219 0 30-13.425781 30-30 0-16.542969-13.457031-30-30-30h-16v-179.5625c6.460938-7.308594 10-16.601562 10-26.4375zm-20 0c0 11.285156-9.226562 20-20 20-11.023438 0-20-8.988281-20-20v-20h40zm-71.703125 206c1.117187-3.171875 1.703125-6.539062 1.703125-10 0-7.671875-2.898438-14.679688-7.65625-19.988281 4.949219-5.511719 7.65625-12.554688 7.65625-20.011719 0-16.542969-13.457031-30-30-30h-60c-16.574219 0-30 13.425781-30 30 0 7.671875 2.898438 14.679688 7.65625 19.988281-4.949219 5.511719-7.65625 12.554688-7.65625 20.011719 0 3.507812.609375 6.871094 1.71875 10h-23.421875c1.117187-3.171875 1.703125-6.539062 1.703125-10 0-7.671875-2.898438-14.679688-7.65625-19.988281 4.949219-5.511719 7.65625-12.554688 7.65625-20.011719 0-16.542969-13.457031-30-30-30h-60c-16.574219 0-30 13.425781-30 30 0 7.671875 2.898438 14.679688 7.65625 19.988281-4.949219 5.511719-7.65625 12.554688-7.65625 20.011719 0 3.507812.609375 6.871094 1.71875 10h-21.71875v-179.5625l.011719-.011719c7.335937 8.316407 18.054687 13.574219 29.988281 13.574219 11.4375 0 22.242188-4.777344 30.011719-13.574219 7.335937 8.316407 18.054687 13.574219 29.988281 13.574219 11.4375 0 22.242188-4.777344 30.011719-13.574219 7.335937 8.316407 18.054687 13.574219 29.988281 13.574219 11.460938 0 22.257812-4.792969 30.011719-13.574219 7.335937 8.316407 18.054687 13.574219 29.988281 13.574219 11.460938 0 22.257812-4.792969 30.011719-13.574219 7.335937 8.316407 18.054687 13.574219 29.988281 13.574219 11.179688 0 22.066406-4.582031 30-13.5625v179.5625zm-88.296875 0c-5.515625 0-10-4.484375-10-10 0-5.519531 4.480469-10 10-10h60c5.515625 0 10 4.484375 10 10 0 5.519531-4.480469 10-10 10zm-10-50c0-5.519531 4.480469-10 10-10h60c5.515625 0 10 4.484375 10 10 0 5.519531-4.480469 10-10 10h-60c-5.515625 0-10-4.484375-10-10zm-130 50c-5.515625 0-10-4.484375-10-10 0-5.519531 4.480469-10 10-10h60c5.515625 0 10 4.484375 10 10 0 5.519531-4.480469 10-10 10zm-10-50c0-5.519531 4.480469-10 10-10h60c5.515625 0 10 4.484375 10 10 0 5.519531-4.480469 10-10 10h-60c-5.515625 0-10-4.484375-10-10zm10-176v20c0 11.046875-8.953125 20-20 20-11.027344 0-20-8.972656-20-20v-20zm60 0v20c0 11.046875-8.953125 20-20 20-11.027344 0-20-8.972656-20-20v-20zm60 0v20c0 11.046875-8.953125 20-20 20-11.027344 0-20-8.972656-20-20v-20zm60 0v20c0 11.046875-8.953125 20-20 20-11.027344 0-20-8.972656-20-20v-20zm60 0v20c0 11.046875-8.953125 20-20 20-11.027344 0-20-8.972656-20-20v-20zm-376-30c0-5.519531 4.480469-10 10-10h452c5.515625 0 10 4.484375 10 10 0 5.519531-4.480469 10-10 10h-452c-5.515625 0-10-4.484375-10-10zm76 30v20c0 11.273438-9.214844 20-20 20-11.019531 0-20-8.988281-20-20v-20zm-30 58.71875c3.238281.839844 6.597656 1.28125 10 1.28125s6.761719-.441406 10-1.28125v167.28125h-20zm0 227.28125h60v146h-60zm140 0v146h-60v-146zm80 0v146h-60v-146zm80 0v146h-60v-146zm80 146h-60v-146h60zm46-176c0 5.519531-4.480469 10-10 10h-452c-5.515625 0-10-4.484375-10-10 0-5.519531 4.480469-10 10-10h452c5.515625 0 10 4.484375 10 10zm-66-30v-167.28125c3.238281.839844 6.597656 1.28125 10 1.28125s6.761719-.441406 10-1.28125v167.28125zm0 0"/><path d="m96 366c-5.523438 0-10 4.476562-10 10v46c0 5.523438 4.476562 10 10 10s10-4.476562 10-10v-46c0-5.523438-4.476562-10-10-10zm0 0"/></svg>