<svg height="464pt" viewBox="0 -20 464.01228 464" width="464pt" xmlns="http://www.w3.org/2000/svg"><path d="m10.542969 371.980469c4.824219 12.179687 16.613281 20.164062 29.710937 20.121093h26.808594l7.152344 14.3125c5.386718 10.871094 16.492187 17.730469 28.625 17.6875h258.335937c12.132813.042969 23.234375-6.816406 28.621094-17.6875l7.152344-14.3125h26.808593c13.097657.042969 24.886719-7.933593 29.710938-20.109374l9.96875-24.914063c.988281-2.464844.6875-5.261719-.800781-7.460937-1.488281-2.199219-3.972657-3.515626-6.628907-3.515626h-60.449218c6.292968-10.542968 5.878906-23.78125-1.054688-33.910156 14.148438-4.84375 23.011719-18.886718 21.296875-33.742187-1.714843-14.855469-13.546875-26.511719-28.425781-28.003907 6.175781-10.019531 6.175781-22.667968 0-32.6875 12.644531-1.242187 23.332031-9.910156 27.15625-22.027343 3.828125-12.117188.058594-25.347657-9.582031-33.628907 10.109375-8.710937 13.71875-22.796874 9.042969-35.296874-4.675782-12.5-16.640626-20.761719-29.984376-20.703126h-9.472656c-3.378906-9.554687-12.394531-15.957031-22.527344-16h-84.304687c13.089844-14.5 16.027344-35.515624 7.40625-53.046874 12.898437-4.222657 27.074219-.402344 36.097656 9.734374l11.3125-11.3125c-14.601562-15.765624-37.585937-20.5625-57.273437-11.949218-18.570313-18.003906-48.074219-18.03125-66.675782-.0625-18.605468 17.964844-19.605468 47.453125-2.261718 66.636718h-60.300782c-10.136718.042969-19.152343 6.445313-22.53125 16h-33.46875c-13.347656-.058593-25.3125 8.203126-29.988281 20.703126s-1.066406 26.585937 9.042969 35.296874c-9.640625 8.285157-13.410156 21.519532-9.574219 33.640626 3.832031 12.117187 14.523438 20.78125 27.175781 22.015624-6.175781 10.019532-6.175781 22.667969 0 32.6875-14.882812 1.492188-26.714843 13.148438-28.429687 28.003907s7.152344 28.898437 21.300781 33.742187c-6.945312 10.125-7.367187 23.363282-1.082031 33.910156h-60.445313c-2.660156 0-5.144531 1.316407-6.632812 3.515626-1.488281 2.199218-1.789062 4.996093-.800781 7.460937zm198.839843-346.511719c10.808594-10.804688 27.753907-12.457031 40.449219-3.941406-4.339843 2.824218-8.414062 6.035156-12.167969 9.597656l11.308594 11.3125c3.523438-3.285156 7.367188-6.203125 11.472656-8.71875 6.386719 12.277344 4.03125 27.28125-5.816406 37.007812-12.667968 12.070313-32.578125 12.070313-45.246094 0-12.503906-12.496093-12.503906-32.765624 0-45.265624zm-81.375 78.632812c0-4.417968 3.578126-8 8-8h216c4.417969 0 8 3.582032 8 8v32c0 4.417969-3.582031 8-8 8h-8c-13.257812 0-24 10.746094-24 24v32c0 4.417969-3.582031 8-8 8-4.421874 0-8-3.582031-8-8v-28c0-15.464843-12.539062-28-28-28-15.464843 0-28 12.535157-28 28v72c0 6.628907-5.375 12-12 12-6.628906 0-12-5.371093-12-12v-76c0-13.253906-10.746093-24-24-24h-64c-4.421874 0-8-3.582031-8-8zm-64 168c0-8.835937 7.160157-16 16-16h112v-16h-88c-8.839843 0-16-7.164062-16-16 0-8.835937 7.160157-16 16-16h88v-16h-112c-8.839843 0-16-7.164062-16-16 0-8.835937 7.160157-16 16-16h24v-16h-24c-8.839843 0-16-7.164062-16-16 0-8.835937 7.160157-16 16-16h32v24c0 13.253907 10.742188 24 24 24h64c4.417969 0 8 3.582032 8 8v76c0 15.464844 12.535157 28 28 28 15.460938 0 28-12.535156 28-28v-72c0-6.625 5.371094-12 12-12 6.625 0 12 5.375 12 12v28c0 13.253907 10.742188 24 24 24 13.253907 0 24-10.746093 24-24v-32c0-4.417968 3.578126-8 8-8h8c13.253907 0 24-10.746093 24-24v-24h8c8.835938 0 16 7.164063 16 16 0 8.835938-7.164062 16-16 16v16c8.835938 0 16 7.164063 16 16 0 8.835938-7.164062 16-16 16h-32v16h8c8.835938 0 16 7.164063 16 16 0 8.835938-7.164062 16-16 16h-80v16h104c8.835938 0 16 7.164063 16 16 0 8.835938-7.164062 16-16 16h-304c-8.839843 0-16-7.164062-16-16zm16 48c0-8.835937 7.160157-16 16-16h272c8.835938 0 16 7.164063 16 16 0 8.835938-7.164062 16-16 16h-272c-8.839843 0-16-7.164062-16-16zm364.175782 32-5.601563 13.945313c-2.402343 6.082031-8.285156 10.070313-14.824219 10.054687h-55.75v16h11.054688l-3.578125 7.199219c-2.707031 5.417969-8.253906 8.832031-14.308594 8.800781h-258.335937c-6.058594.03125-11.605469-3.382812-14.3125-8.800781l-3.578125-7.199219h43.058593v-16h-87.753906c-6.546875.023438-12.441406-3.964843-14.847656-10.054687l-5.574219-13.945313zm0 0"/></svg>