<svg height="512pt" viewBox="-6 0 511 512" width="512pt" xmlns="http://www.w3.org/2000/svg"><path d="m130.375 497.382812-24.871094-8.289062v-159.902344c9.269532-9.472656 15-22.421875 15-36.691406v-100c0-15.164062-12.335937-27.5-27.5-27.5h-50c-15.164062 0-27.5 12.335938-27.5 27.5v100c0 14.269531 5.730469 27.21875 15 36.691406v159.902344l-24.875 8.289062c-3.929687 1.308594-6.050781 5.558594-4.742187 9.488282 1.046875 3.140625 3.972656 5.128906 7.113281 5.128906.785156 0 1.585938-.125 2.375-.386719l30-10c3.0625-1.019531 5.125-3.886719 5.125-7.113281v-154.578125c6.824219 3.25 14.453125 5.078125 22.5 5.078125 8.050781 0 15.675781-1.828125 22.5-5.078125v154.578125c0 3.226562 2.066406 6.09375 5.128906 7.113281l30 10c.789063.261719 1.585938.386719 2.375.386719 3.136719 0 6.0625-1.988281 7.113282-5.128906 1.308593-3.929688-.8125-8.179688-4.742188-9.488282zm-87.371094-317.382812h50c6.890625 0 12.5 5.605469 12.5 12.5v92.5h-75v-92.5c0-6.894531 5.605469-12.5 12.5-12.5zm-11.746094 120h73.492188c-3.484375 17.09375-18.636719 30-36.746094 30s-33.261718-12.90625-36.746094-30zm0 0"/><path d="m68.003906 150c28.949219 0 52.5-23.550781 52.5-52.5s-23.550781-52.5-52.5-52.5c-28.949218 0-52.5 23.550781-52.5 52.5s23.550782 52.5 52.5 52.5zm0-90c20.675782 0 37.5 16.820312 37.5 37.5 0 20.675781-16.824218 37.5-37.5 37.5-20.679687 0-37.5-16.824219-37.5-37.5 0-20.679688 16.820313-37.5 37.5-37.5zm0 0"/><path d="m398 150c28.949219 0 52.5-23.550781 52.5-52.5v-67.5c0-12.40625-10.09375-22.5-22.5-22.5-1.027344 0-2.050781.070312-3.058594.207031-4.207031-4.8125-10.351562-7.707031-16.941406-7.707031-3.496094 0-6.914062.816406-10 2.355469-3.082031-1.539063-6.5-2.355469-10-2.355469-6.589844 0-12.734375 2.894531-16.941406 7.707031-1.007813-.136719-2.027344-.207031-3.058594-.207031-12.40625 0-22.5 10.09375-22.5 22.5v67.5c0 28.949219 23.550781 52.5 52.5 52.5zm-37.5-120c0-4.136719 3.363281-7.5 7.5-7.5 1.082031 0 2.140625.238281 3.148438.703125 1.820312.847656 3.90625.929687 5.789062.222656 1.878906-.703125 3.398438-2.132812 4.21875-3.96875 1.207031-2.707031 3.894531-4.457031 6.84375-4.457031 1.835938 0 3.609375.683594 4.992188 1.925781 2.851562 2.554688 7.167968 2.554688 10.015624 0 1.386719-1.242187 3.15625-1.925781 4.992188-1.925781 2.953125 0 5.640625 1.75 6.847656 4.457031.816406 1.835938 2.339844 3.265625 4.21875 3.96875 1.882813.707031 3.964844.625 5.789063-.222656 1.007812-.464844 2.066406-.703125 3.144531-.703125 4.136719 0 7.5 3.363281 7.5 7.5v30.808594c-9.535156-9.746094-22.820312-15.808594-37.5-15.808594s-27.960938 6.0625-37.5 15.808594zm37.5 30c20.679688 0 37.5 16.820312 37.5 37.5 0 20.675781-16.820312 37.5-37.5 37.5-20.675781 0-37.5-16.824219-37.5-37.5 0-20.679688 16.824219-37.5 37.5-37.5zm0 0"/><path d="m443 390c4.144531 0 7.5-3.359375 7.5-7.5v-82.976562c28.171875-3.6875 50-27.832032 50-56.996094 0-29.480469-22.308594-53.839844-50.929688-57.109375-3.132812-11.742188-13.855468-20.417969-26.570312-20.417969h-50c-12.5625 0-23.175781 8.472656-26.449219 20h-48.550781c-12.5625 0-23.175781-8.472656-26.449219-20h51.449219c4.144531 0 7.5-3.359375 7.5-7.5 0-4.144531-3.355469-7.5-7.5-7.5h-7.5v-67.5c0-9.777344-6.269531-18.113281-15-21.210938v-23.789062c0-4.144531-3.355469-7.5-7.5-7.5-4.140625 0-7.5 3.355469-7.5 7.5v23.789062c-8.726562 3.097657-15 11.433594-15 21.210938v67.5h-15v-67.5c0-4.144531-3.355469-7.5-7.5-7.5h-30c-4.140625 0-7.5 3.355469-7.5 7.5v67.5h-7.5c-4.140625 0-7.5 3.355469-7.5 7.5 0 4.140625 3.359375 7.5 7.5 7.5h53.175781c3.554688 19.867188 20.949219 35 41.824219 35h47.5v182.5c0 4.140625 3.359375 7.5 7.5 7.5h7.25v99.09375l-24.871094 8.289062c-3.929687 1.308594-6.050781 5.558594-4.742187 9.488282 1.046875 3.140625 3.972656 5.128906 7.113281 5.128906.785156 0 1.585938-.125 2.371094-.386719l30-10c3.0625-1.019531 5.128906-3.886719 5.128906-7.113281v-104.5h45.5v104.5c0 3.226562 2.066406 6.09375 5.128906 7.113281l30 10c.785156.261719 1.585938.386719 2.371094.386719 3.140625 0 6.066406-1.988281 7.113281-5.128906 1.3125-3.929688-.8125-8.179688-4.742187-9.488282l-24.871094-8.289062v-99.09375zm-157.5-307.5c0-4.136719 3.367188-7.5 7.5-7.5 4.136719 0 7.5 3.363281 7.5 7.5v67.5h-15zm-60 7.5h15v60h-15zm135 285v-74.972656h75v74.972656zm125-132.472656c0 20.875-15.132812 38.273437-35 41.824218v-83.644531c19.867188 3.550781 35 20.949219 35 41.820313zm-112.5-62.527344h17.5v82.5c0 4.140625 3.359375 7.5 7.5 7.5 4.144531 0 7.5-3.359375 7.5-7.5v-82.5h17.5c6.894531 0 12.5 5.605469 12.5 12.5v92.527344h-75v-92.527344c0-6.894531 5.609375-12.5 12.5-12.5zm0 0"/><path d="m330.5 262.5c0-4.144531-3.355469-7.5-7.5-7.5h-179.996094c-4.144531 0-7.5 3.355469-7.5 7.5v30c0 4.140625 3.355469 7.5 7.5 7.5h82.496094v90h-7.5c-4.140625 0-7.5 3.355469-7.5 7.5 0 4.140625 3.359375 7.5 7.5 7.5h7.078125c-2.15625 18.707031-12.429687 28.996094-24.128906 40.695312-13.570313 13.566407-28.949219 28.945313-28.949219 58.800782 0 4.144531 3.359375 7.5 7.5 7.5 4.144531 0 7.5-3.355469 7.5-7.5 0-23.640625 11.378906-35.019532 24.554688-48.195313 4.667968-4.667969 9.550781-9.550781 13.945312-15.167969v63.363282c0 4.144531 3.359375 7.5 7.5 7.5 4.144531 0 7.5-3.355469 7.5-7.5v-63.363282c4.398438 5.617188 9.277344 10.5 13.949219 15.167969 13.171875 13.175781 24.550781 24.554688 24.550781 48.195313 0 4.144531 3.359375 7.5 7.5 7.5s7.5-3.355469 7.5-7.5c0-29.855469-15.378906-45.234375-28.945312-58.800782-11.699219-11.699218-21.972657-21.988281-24.132813-40.695312h7.078125c4.140625 0 7.5-3.359375 7.5-7.5 0-4.144531-3.359375-7.5-7.5-7.5h-7.5v-90h82.5c4.140625 0 7.5-3.359375 7.5-7.5zm-15 22.5h-164.996094v-15h164.996094zm0 0"/></svg>