<svg height="512pt" viewBox="-98 0 512 512" width="512pt" xmlns="http://www.w3.org/2000/svg"><path d="m43.511719 103.171875c4.140625 0 7.5-3.359375 7.5-7.5v-13.9375c3.871093 2.082031 8.292969 3.265625 12.988281 3.265625h33.5625v136.804688c0 4.140624 3.359375 7.5 7.5 7.5 4.144531 0 7.5-3.359376 7.5-7.5v-136.804688h37.4375v136.804688c0 4.140624 3.359375 7.5 7.5 7.5 4.144531 0 7.5-3.359376 7.5-7.5v-136.804688h37.4375v136.804688c0 4.140624 3.355469 7.5 7.5 7.5 4.140625 0 7.5-3.359376 7.5-7.5v-136.804688h33.5625c4.695312 0 9.117188-1.183594 12.988281-3.265625v142.015625c0 4.140625 3.359375 7.5 7.5 7.5 4.144531 0 7.5-3.359375 7.5-7.5v-196.25c0-15.164062-12.335937-27.5-27.5-27.5h-187.976562c-15.164063 0-27.5 12.335938-27.5 27.5v68.171875c0 4.140625 3.355469 7.5 7.5 7.5zm207.488281-88.171875c6.894531 0 12.5 5.605469 12.5 12.5v30c0 6.894531-5.605469 12.5-12.5 12.5h-187c-6.894531 0-12.5-5.605469-12.5-12.5v-30c0-6.894531 5.605469-12.5 12.5-12.5zm0 0"/><path d="m315 318c0-20.179688-16.019531-36.6875-36.011719-37.472656v-24.527344c0-4.140625-3.355469-7.5-7.5-7.5-4.140625 0-7.5 3.359375-7.5 7.5v24.5h-212.976562v-152.828125c0-4.144531-3.359375-7.5-7.5-7.5-4.144531 0-7.5 3.355469-7.5 7.5v152.855469c-19.992188.785156-36.011719 17.292968-36.011719 37.472656 0 18.808594 13.921875 34.429688 32 37.097656v134.402344c0 12.40625 10.09375 22.5 22.5 22.5s22.5-10.09375 22.5-22.5v-47h16.167969c4.140625 0 7.5-3.359375 7.5-7.5s-3.359375-7.5-7.5-7.5h-16.167969v-15h161v15h-112.832031c-4.144531 0-7.5 3.359375-7.5 7.5s3.355469 7.5 7.5 7.5h112.832031v47c0 12.40625 10.09375 22.5 22.5 22.5s22.5-10.09375 22.5-22.5v-134.402344c18.078125-2.667968 32-18.289062 32-37.097656zm-253 171.5c0 4.136719-3.363281 7.5-7.5 7.5s-7.5-3.363281-7.5-7.5v-134h15zm15-92v-42h161v42zm191 92c0 4.136719-3.363281 7.5-7.5 7.5s-7.5-3.363281-7.5-7.5v-134h15zm9.5-149h-240c-12.40625 0-22.5-10.09375-22.5-22.5s10.09375-22.5 22.5-22.5h240c12.40625 0 22.5 10.09375 22.5 22.5s-10.09375 22.5-22.5 22.5zm0 0"/></svg>