<svg height="512pt" viewBox="-98 0 512 512" width="512pt" xmlns="http://www.w3.org/2000/svg"><path d="m315 289c0-18.550781-13.535156-33.996094-31.25-36.980469v-68.273437c12.277344-3.6875 21.25-15.097656 21.25-28.558594v-98.101562c0-31.476563-25.609375-57.085938-57.085938-57.085938h-180.828124c-31.476563 0-57.085938 25.609375-57.085938 57.085938v6.914062c0 4.144531 3.359375 7.5 7.5 7.5s7.5-3.355469 7.5-7.5v-6.914062c0-23.207032 18.878906-42.085938 42.085938-42.085938h180.828124c23.207032 0 42.085938 18.878906 42.085938 42.085938v98.101562c0 8.167969-6.644531 14.8125-14.8125 14.8125h-235.375c-8.167969 0-14.8125-6.644531-14.8125-14.8125v-59.1875c0-4.144531-3.359375-7.5-7.5-7.5s-7.5 3.355469-7.5 7.5v59.1875c0 13.738281 9.339844 25.332031 22 28.773438v67.941406c-18.078125 2.667968-32 18.289062-32 37.097656s13.921875 34.429688 32 37.097656v163.402344c0 12.40625 10.09375 22.5 22.5 22.5s22.5-10.09375 22.5-22.5v-47h161.75v47c0 12.40625 10.09375 22.5 22.5 22.5s22.5-10.09375 22.5-22.5v-163.519531c17.714844-2.984375 31.25-18.429688 31.25-36.980469zm-46.25-104v66.5h-15v-66.5zm-206.75 0v66.5h-15v-66.5zm0 304.5c0 4.136719-3.363281 7.5-7.5 7.5s-7.5-3.363281-7.5-7.5v-163h15v25.167969c0 4.140625 3.359375 7.5 7.5 7.5s7.5-3.359375 7.5-7.5v-25.167969h161.75v71h-161.75v-13.5c0-4.144531-3.359375-7.5-7.5-7.5s-7.5 3.355469-7.5 7.5zm15-62v-15h161.75v15zm191.75 62c0 4.136719-3.363281 7.5-7.5 7.5s-7.5-3.363281-7.5-7.5v-163h15zm8.75-178h-240c-12.40625 0-22.5-10.09375-22.5-22.5s10.09375-22.5 22.5-22.5h152c4.144531 0 7.5-3.355469 7.5-7.5s-3.355469-7.5-7.5-7.5h-112.5v-66.5h161.75v66.5h-17.417969c-4.140625 0-7.5 3.355469-7.5 7.5s3.359375 7.5 7.5 7.5h56.167969c12.40625 0 22.5 10.09375 22.5 22.5s-10.09375 22.5-22.5 22.5zm0 0"/></svg>